solid vr-version3
facet normal 0.0 0.8050558373533684 0.5931990380498495
  outer loop
    vertex 270.8999158551465 73.25227359785116 52.7080664288134
    vertex 273.89991585514645 76.05227359785115 48.9080664288134
    vertex 270.8999158551465 76.05227359785115 48.9080664288134
  endloop
endfacet
facet normal 0.0 0.8050558373533684 0.5931990380498495
  outer loop
    vertex 273.89991585514645 76.05227359785115 48.9080664288134
    vertex 270.8999158551465 73.25227359785116 52.7080664288134
    vertex 273.89991585514645 73.25227359785116 52.7080664288134
  endloop
endfacet
facet normal 0.0 -0.7071067811865481 -0.7071067811865469
  outer loop
    vertex 273.89991585514645 16.052273597851308 2.508066428813494
    vertex 270.8999158551465 18.8522735978513 -0.2919335711865059
    vertex 273.89991585514645 18.8522735978513 -0.2919335711865059
  endloop
endfacet
facet normal 0.0 -0.7071067811865481 -0.7071067811865469
  outer loop
    vertex 270.8999158551465 18.8522735978513 -0.2919335711865059
    vertex 273.89991585514645 16.052273597851308 2.508066428813494
    vertex 270.8999158551465 16.052273597851308 2.508066428813494
  endloop
endfacet
facet normal 0.0 -1.0 0.0
  outer loop
    vertex 273.89991585514645 16.052273597851308 48.9080664288134
    vertex 270.8999158551465 16.052273597851308 2.508066428813494
    vertex 273.89991585514645 16.052273597851308 2.508066428813494
  endloop
endfacet
facet normal 0.0 -1.0 0.0
  outer loop
    vertex 270.8999158551465 16.052273597851308 2.508066428813494
    vertex 273.89991585514645 16.052273597851308 48.9080664288134
    vertex 270.8999158551465 16.052273597851308 48.9080664288134
  endloop
endfacet
facet normal 0.0 -1.0 0.0
  outer loop
    vertex 270.8999158551465 29.252273597851307 2.508066428813494
    vertex 95.29991585514647 29.252273597851307 -0.2919335711865059
    vertex 270.8999158551465 29.252273597851307 -0.2919335711865059
  endloop
endfacet
facet normal 0.0 -1.0 0.0
  outer loop
    vertex 95.29991585514647 29.252273597851307 -0.2919335711865059
    vertex 270.8999158551465 29.252273597851307 2.508066428813494
    vertex 95.29991585514647 29.252273597851307 2.508066428813494
  endloop
endfacet
facet normal 0.0 0.0 1.0
  outer loop
    vertex 273.89991585514645 18.8522735978513 52.7080664288134
    vertex 270.8999158551465 73.25227359785116 52.7080664288134
    vertex 270.8999158551465 18.8522735978513 52.7080664288134
  endloop
endfacet
facet normal 0.0 0.0 1.0
  outer loop
    vertex 270.8999158551465 73.25227359785116 52.7080664288134
    vertex 273.89991585514645 18.8522735978513 52.7080664288134
    vertex 273.89991585514645 73.25227359785116 52.7080664288134
  endloop
endfacet
facet normal 0.0 1.0 0.0
  outer loop
    vertex 270.8999158551465 76.05227359785115 48.9080664288134
    vertex 273.89991585514645 76.05227359785115 2.508066428813494
    vertex 270.8999158551465 76.05227359785115 2.508066428813494
  endloop
endfacet
facet normal 0.0 1.0 0.0
  outer loop
    vertex 273.89991585514645 76.05227359785115 2.508066428813494
    vertex 270.8999158551465 76.05227359785115 48.9080664288134
    vertex 273.89991585514645 76.05227359785115 48.9080664288134
  endloop
endfacet
facet normal 0.0 -0.8050558373533684 0.5931990380498495
  outer loop
    vertex 273.89991585514645 18.8522735978513 52.7080664288134
    vertex 270.8999158551465 16.052273597851308 48.9080664288134
    vertex 273.89991585514645 16.052273597851308 48.9080664288134
  endloop
endfacet
facet normal 0.0 -0.8050558373533684 0.5931990380498495
  outer loop
    vertex 270.8999158551465 16.052273597851308 48.9080664288134
    vertex 273.89991585514645 18.8522735978513 52.7080664288134
    vertex 270.8999158551465 18.8522735978513 52.7080664288134
  endloop
endfacet
facet normal 1.0 0.0 0.0
  outer loop
    vertex 273.89991585514645 73.25227359785116 -2.291933571186506
    vertex 273.89991585514645 18.8522735978513 -0.2919335711865059
    vertex 273.89991585514645 18.8522735978513 -2.291933571186506
  endloop
endfacet
facet normal 1.0 0.0 0.0
  outer loop
    vertex 273.89991585514645 18.8522735978513 -0.2919335711865059
    vertex 273.89991585514645 73.25227359785116 -2.291933571186506
    vertex 273.89991585514645 18.8522735978513 52.7080664288134
  endloop
endfacet
facet normal 1.0 0.0 0.0
  outer loop
    vertex 273.89991585514645 18.8522735978513 52.7080664288134
    vertex 273.89991585514645 73.25227359785116 -2.291933571186506
    vertex 273.89991585514645 73.25227359785116 52.7080664288134
  endloop
endfacet
facet normal 1.0 0.0 0.0
  outer loop
    vertex 273.89991585514645 73.25227359785116 52.7080664288134
    vertex 273.89991585514645 73.25227359785116 -2.291933571186506
    vertex 273.89991585514645 73.25227359785116 -0.2919335711865059
  endloop
endfacet
facet normal 1.0 0.0 0.0
  outer loop
    vertex 273.89991585514645 73.25227359785116 52.7080664288134
    vertex 273.89991585514645 73.25227359785116 -0.2919335711865059
    vertex 273.89991585514645 76.05227359785115 2.508066428813494
  endloop
endfacet
facet normal 1.0 0.0 0.0
  outer loop
    vertex 273.89991585514645 73.25227359785116 52.7080664288134
    vertex 273.89991585514645 76.05227359785115 2.508066428813494
    vertex 273.89991585514645 76.05227359785115 48.9080664288134
  endloop
endfacet
facet normal 1.0 0.0 0.0
  outer loop
    vertex 273.89991585514645 18.8522735978513 -0.2919335711865059
    vertex 273.89991585514645 16.052273597851308 48.9080664288134
    vertex 273.89991585514645 16.052273597851308 2.508066428813494
  endloop
endfacet
facet normal 1.0 0.0 0.0
  outer loop
    vertex 273.89991585514645 16.052273597851308 48.9080664288134
    vertex 273.89991585514645 18.8522735978513 -0.2919335711865059
    vertex 273.89991585514645 18.8522735978513 52.7080664288134
  endloop
endfacet
facet normal 0.0 1.0 0.0
  outer loop
    vertex 95.29991585514647 62.85227359785115 2.508066428813494
    vertex 270.8999158551465 62.85227359785115 -0.2919335711865059
    vertex 95.29991585514647 62.85227359785115 -0.2919335711865059
  endloop
endfacet
facet normal 0.0 1.0 0.0
  outer loop
    vertex 270.8999158551465 62.85227359785115 -0.2919335711865059
    vertex 95.29991585514647 62.85227359785115 2.508066428813494
    vertex 270.8999158551465 62.85227359785115 2.508066428813494
  endloop
endfacet
facet normal 0.0 1.0 0.0
  outer loop
    vertex 95.29991585514647 73.25227359785116 -0.2919335711865059
    vertex 273.89991585514645 73.25227359785116 -2.291933571186506
    vertex 95.29991585514647 73.25227359785116 -2.291933571186506
  endloop
endfacet
facet normal 0.0 1.0 0.0
  outer loop
    vertex 273.89991585514645 73.25227359785116 -2.291933571186506
    vertex 95.29991585514647 73.25227359785116 -0.2919335711865059
    vertex 273.89991585514645 73.25227359785116 -0.2919335711865059
  endloop
endfacet
facet normal 0.0 1.0 0.0
  outer loop
    vertex 273.89991585514645 73.25227359785116 -0.2919335711865059
    vertex 95.29991585514647 73.25227359785116 -0.2919335711865059
    vertex 270.8999158551465 73.25227359785116 -0.2919335711865059
  endloop
endfacet
facet normal -1.0 0.0 0.0
  outer loop
    vertex 270.8999158551465 18.8522735978513 52.7080664288134
    vertex 270.8999158551465 16.052273597851308 2.508066428813494
    vertex 270.8999158551465 16.052273597851308 48.9080664288134
  endloop
endfacet
facet normal -1.0 0.0 0.0
  outer loop
    vertex 270.8999158551465 16.052273597851308 2.508066428813494
    vertex 270.8999158551465 18.8522735978513 52.7080664288134
    vertex 270.8999158551465 18.8522735978513 -0.2919335711865059
  endloop
endfacet
facet normal -1.0 0.0 0.0
  outer loop
    vertex 270.8999158551465 18.8522735978513 -0.2919335711865059
    vertex 270.8999158551465 18.8522735978513 52.7080664288134
    vertex 270.8999158551465 73.25227359785116 52.7080664288134
  endloop
endfacet
facet normal -1.0 0.0 0.0
  outer loop
    vertex 270.8999158551465 18.8522735978513 -0.2919335711865059
    vertex 270.8999158551465 73.25227359785116 52.7080664288134
    vertex 270.8999158551465 29.252273597851307 2.508066428813494
  endloop
endfacet
facet normal -1.0 0.0 0.0
  outer loop
    vertex 270.8999158551465 29.252273597851307 2.508066428813494
    vertex 270.8999158551465 73.25227359785116 52.7080664288134
    vertex 270.8999158551465 62.85227359785115 2.508066428813494
  endloop
endfacet
facet normal -1.0 0.0 0.0
  outer loop
    vertex 270.8999158551465 62.85227359785115 2.508066428813494
    vertex 270.8999158551465 73.25227359785116 52.7080664288134
    vertex 270.8999158551465 62.85227359785115 -0.2919335711865059
  endloop
endfacet
facet normal -1.0 0.0 0.0
  outer loop
    vertex 270.8999158551465 62.85227359785115 -0.2919335711865059
    vertex 270.8999158551465 73.25227359785116 52.7080664288134
    vertex 270.8999158551465 73.25227359785116 -0.2919335711865059
  endloop
endfacet
facet normal -1.0 0.0 0.0
  outer loop
    vertex 270.8999158551465 73.25227359785116 -0.2919335711865059
    vertex 270.8999158551465 73.25227359785116 52.7080664288134
    vertex 270.8999158551465 76.05227359785115 48.9080664288134
  endloop
endfacet
facet normal -1.0 0.0 0.0
  outer loop
    vertex 270.8999158551465 73.25227359785116 -0.2919335711865059
    vertex 270.8999158551465 76.05227359785115 48.9080664288134
    vertex 270.8999158551465 76.05227359785115 2.508066428813494
  endloop
endfacet
facet normal -1.0 0.0 0.0
  outer loop
    vertex 270.8999158551465 29.252273597851307 -0.2919335711865059
    vertex 270.8999158551465 18.8522735978513 -0.2919335711865059
    vertex 270.8999158551465 29.252273597851307 2.508066428813494
  endloop
endfacet
facet normal 0.0 0.0 1.0
  outer loop
    vertex 270.8999158551465 62.85227359785115 -0.2919335711865059
    vertex 95.29991585514647 73.25227359785116 -0.2919335711865059
    vertex 95.29991585514647 62.85227359785115 -0.2919335711865059
  endloop
endfacet
facet normal 0.0 0.0 1.0
  outer loop
    vertex 95.29991585514647 73.25227359785116 -0.2919335711865059
    vertex 270.8999158551465 62.85227359785115 -0.2919335711865059
    vertex 270.8999158551465 73.25227359785116 -0.2919335711865059
  endloop
endfacet
facet normal 0.0 0.0 1.0
  outer loop
    vertex 270.8999158551465 18.8522735978513 -0.2919335711865059
    vertex 95.29991585514647 29.252273597851307 -0.2919335711865059
    vertex 95.29991585514647 18.8522735978513 -0.2919335711865059
  endloop
endfacet
facet normal 0.0 0.0 1.0
  outer loop
    vertex 95.29991585514647 29.252273597851307 -0.2919335711865059
    vertex 270.8999158551465 18.8522735978513 -0.2919335711865059
    vertex 270.8999158551465 29.252273597851307 -0.2919335711865059
  endloop
endfacet
facet normal 0.0 -1.0 0.0
  outer loop
    vertex 273.89991585514645 18.8522735978513 -0.2919335711865059
    vertex 95.29991585514647 18.8522735978513 -2.291933571186506
    vertex 273.89991585514645 18.8522735978513 -2.291933571186506
  endloop
endfacet
facet normal 0.0 -1.0 0.0
  outer loop
    vertex 95.29991585514647 18.8522735978513 -2.291933571186506
    vertex 273.89991585514645 18.8522735978513 -0.2919335711865059
    vertex 95.29991585514647 18.8522735978513 -0.2919335711865059
  endloop
endfacet
facet normal 0.0 -1.0 0.0
  outer loop
    vertex 95.29991585514647 18.8522735978513 -0.2919335711865059
    vertex 273.89991585514645 18.8522735978513 -0.2919335711865059
    vertex 270.8999158551465 18.8522735978513 -0.2919335711865059
  endloop
endfacet
facet normal -1.0 0.0 0.0
  outer loop
    vertex 95.29991585514647 62.85227359785115 2.508066428813494
    vertex 95.29991585514647 29.252273597851307 -0.2919335711865059
    vertex 95.29991585514647 29.252273597851307 2.508066428813494
  endloop
endfacet
facet normal -1.0 0.0 0.0
  outer loop
    vertex 95.29991585514647 29.252273597851307 -0.2919335711865059
    vertex 95.29991585514647 18.8522735978513 -2.291933571186506
    vertex 95.29991585514647 18.8522735978513 -0.2919335711865059
  endloop
endfacet
facet normal -1.0 0.0 0.0
  outer loop
    vertex 95.29991585514647 18.8522735978513 -2.291933571186506
    vertex 95.29991585514647 29.252273597851307 -0.2919335711865059
    vertex 95.29991585514647 73.25227359785116 -2.291933571186506
  endloop
endfacet
facet normal -1.0 0.0 0.0
  outer loop
    vertex 95.29991585514647 73.25227359785116 -2.291933571186506
    vertex 95.29991585514647 29.252273597851307 -0.2919335711865059
    vertex 95.29991585514647 62.85227359785115 -0.2919335711865059
  endloop
endfacet
facet normal -1.0 0.0 0.0
  outer loop
    vertex 95.29991585514647 62.85227359785115 -0.2919335711865059
    vertex 95.29991585514647 29.252273597851307 -0.2919335711865059
    vertex 95.29991585514647 62.85227359785115 2.508066428813494
  endloop
endfacet
facet normal -1.0 0.0 0.0
  outer loop
    vertex 95.29991585514647 73.25227359785116 -2.291933571186506
    vertex 95.29991585514647 62.85227359785115 -0.2919335711865059
    vertex 95.29991585514647 73.25227359785116 -0.2919335711865059
  endloop
endfacet
facet normal 0.0 0.0 -1.0
  outer loop
    vertex 273.89991585514645 73.25227359785116 -2.291933571186506
    vertex 95.29991585514647 18.8522735978513 -2.291933571186506
    vertex 95.29991585514647 73.25227359785116 -2.291933571186506
  endloop
endfacet
facet normal 0.0 0.0 -1.0
  outer loop
    vertex 95.29991585514647 18.8522735978513 -2.291933571186506
    vertex 273.89991585514645 73.25227359785116 -2.291933571186506
    vertex 273.89991585514645 18.8522735978513 -2.291933571186506
  endloop
endfacet
facet normal 0.0 0.7071067811865481 -0.7071067811865469
  outer loop
    vertex 270.8999158551465 76.05227359785115 2.508066428813494
    vertex 273.89991585514645 73.25227359785116 -0.2919335711865059
    vertex 270.8999158551465 73.25227359785116 -0.2919335711865059
  endloop
endfacet
facet normal 0.0 0.7071067811865481 -0.7071067811865469
  outer loop
    vertex 273.89991585514645 73.25227359785116 -0.2919335711865059
    vertex 270.8999158551465 76.05227359785115 2.508066428813494
    vertex 273.89991585514645 76.05227359785115 2.508066428813494
  endloop
endfacet
facet normal 0.0 0.0 1.0
  outer loop
    vertex 95.29991585514647 29.252273597851307 2.508066428813494
    vertex 134.89991585514647 38.55227359785131 2.508066428813494
    vertex 95.29991585514647 62.85227359785115 2.508066428813494
  endloop
endfacet
facet normal 0.0 0.0 1.0
  outer loop
    vertex 134.89991585514647 38.55227359785131 2.508066428813494
    vertex 95.29991585514647 29.252273597851307 2.508066428813494
    vertex 270.8999158551465 29.252273597851307 2.508066428813494
  endloop
endfacet
facet normal 0.0 0.0 1.0
  outer loop
    vertex 134.89991585514647 38.55227359785131 2.508066428813494
    vertex 270.8999158551465 29.252273597851307 2.508066428813494
    vertex 149.89991585514647 38.55227359785131 2.508066428813494
  endloop
endfacet
facet normal 0.0 0.0 1.0
  outer loop
    vertex 149.89991585514647 38.55227359785131 2.508066428813494
    vertex 270.8999158551465 29.252273597851307 2.508066428813494
    vertex 149.89991585514647 53.55227359785115 2.508066428813494
  endloop
endfacet
facet normal 0.0 0.0 1.0
  outer loop
    vertex 95.29991585514647 62.85227359785115 2.508066428813494
    vertex 134.89991585514647 53.55227359785115 2.508066428813494
    vertex 270.8999158551465 62.85227359785115 2.508066428813494
  endloop
endfacet
facet normal 0.0 0.0 1.0
  outer loop
    vertex 134.89991585514647 53.55227359785115 2.508066428813494
    vertex 95.29991585514647 62.85227359785115 2.508066428813494
    vertex 134.89991585514647 38.55227359785131 2.508066428813494
  endloop
endfacet
facet normal 0.0 0.0 1.0
  outer loop
    vertex 270.8999158551465 62.85227359785115 2.508066428813494
    vertex 134.89991585514647 53.55227359785115 2.508066428813494
    vertex 149.89991585514647 53.55227359785115 2.508066428813494
  endloop
endfacet
facet normal 0.0 0.0 1.0
  outer loop
    vertex 270.8999158551465 62.85227359785115 2.508066428813494
    vertex 149.89991585514647 53.55227359785115 2.508066428813494
    vertex 270.8999158551465 29.252273597851307 2.508066428813494
  endloop
endfacet
facet normal 0.0 0.0 1.0
  outer loop
    vertex 149.89991585514647 38.55227359785131 -1.291933571186506
    vertex 134.89991585514647 53.55227359785115 -1.291933571186506
    vertex 134.89991585514647 38.55227359785131 -1.291933571186506
  endloop
endfacet
facet normal 0.0 0.0 1.0
  outer loop
    vertex 134.89991585514647 53.55227359785115 -1.291933571186506
    vertex 149.89991585514647 38.55227359785131 -1.291933571186506
    vertex 149.89991585514647 53.55227359785115 -1.291933571186506
  endloop
endfacet
facet normal -0.0 -1.0 -0.0
  outer loop
    vertex 149.89991585514647 53.55227359785115 2.508066428813494
    vertex 134.89991585514647 53.55227359785115 -1.291933571186506
    vertex 149.89991585514647 53.55227359785115 -1.291933571186506
  endloop
endfacet
facet normal -0.0 -1.0 -0.0
  outer loop
    vertex 134.89991585514647 53.55227359785115 -1.291933571186506
    vertex 149.89991585514647 53.55227359785115 2.508066428813494
    vertex 134.89991585514647 53.55227359785115 2.508066428813494
  endloop
endfacet
facet normal 1.0 0.0 0.0
  outer loop
    vertex 134.89991585514647 53.55227359785115 -1.291933571186506
    vertex 134.89991585514647 38.55227359785131 2.508066428813494
    vertex 134.89991585514647 38.55227359785131 -1.291933571186506
  endloop
endfacet
facet normal 1.0 0.0 0.0
  outer loop
    vertex 134.89991585514647 38.55227359785131 2.508066428813494
    vertex 134.89991585514647 53.55227359785115 -1.291933571186506
    vertex 134.89991585514647 53.55227359785115 2.508066428813494
  endloop
endfacet
facet normal 0.0 1.0 0.0
  outer loop
    vertex 134.89991585514647 38.55227359785131 2.508066428813494
    vertex 149.89991585514647 38.55227359785131 -1.291933571186506
    vertex 134.89991585514647 38.55227359785131 -1.291933571186506
  endloop
endfacet
facet normal 0.0 1.0 0.0
  outer loop
    vertex 149.89991585514647 38.55227359785131 -1.291933571186506
    vertex 134.89991585514647 38.55227359785131 2.508066428813494
    vertex 149.89991585514647 38.55227359785131 2.508066428813494
  endloop
endfacet
facet normal -1.0 0.0 0.0
  outer loop
    vertex 149.89991585514647 53.55227359785115 2.508066428813494
    vertex 149.89991585514647 38.55227359785131 -1.291933571186506
    vertex 149.89991585514647 38.55227359785131 2.508066428813494
  endloop
endfacet
facet normal -1.0 0.0 0.0
  outer loop
    vertex 149.89991585514647 38.55227359785131 -1.291933571186506
    vertex 149.89991585514647 53.55227359785115 2.508066428813494
    vertex 149.89991585514647 53.55227359785115 -1.291933571186506
  endloop
endfacet
endsolid vr-version3
