solid vr-version3
facet normal -1.4899180646313288e-08 0.0 1.0
  outer loop
    vertex 80.61550733043921 380.290815693934 100.50966116122271
    vertex 76.81550733043922 370.29081569393406 100.50966110460584
    vertex 80.61550733043921 370.29081569393406 100.50966116122271
  endloop
endfacet
facet normal -1.4899180646313288e-08 0.0 1.0
  outer loop
    vertex 76.81550733043922 370.29081569393406 100.50966110460584
    vertex 80.61550733043921 380.290815693934 100.50966116122271
    vertex 76.81550733043922 380.290815693934 100.50966110460584
  endloop
endfacet
facet normal 0.0 -1.0 0.0
  outer loop
    vertex 76.8155062874966 380.290815693934 170.5096611046059
    vertex 80.61550733043921 380.290815693934 100.50966116122271
    vertex 80.6155062874966 380.290815693934 170.50966116122294
  endloop
endfacet
facet normal 0.0 -1.0 0.0
  outer loop
    vertex 80.61550733043921 380.290815693934 100.50966116122271
    vertex 76.8155062874966 380.290815693934 170.5096611046059
    vertex 76.81550733043922 380.290815693934 100.50966110460584
  endloop
endfacet
facet normal 0.0 1.0 0.0
  outer loop
    vertex 80.61550733043921 370.29081569393406 100.50966116122271
    vertex 76.8155062874966 370.29081569393406 170.5096611046059
    vertex 80.6155062874966 370.29081569393406 170.50966116122294
  endloop
endfacet
facet normal 0.0 1.0 0.0
  outer loop
    vertex 76.8155062874966 370.29081569393406 170.5096611046059
    vertex 80.61550733043921 370.29081569393406 100.50966116122271
    vertex 76.81550733043922 370.29081569393406 100.50966110460584
  endloop
endfacet
facet normal 0.0 1.0 0.0
  outer loop
    vertex 127.0155085968696 350.89081569393403 15.509661852544678
    vertex 129.81550597461379 350.89081569393403 191.50966189426262
    vertex 129.8155085968696 350.89081569393403 15.509661894262429
  endloop
endfacet
facet normal 0.0 1.0 0.0
  outer loop
    vertex 129.81550597461379 350.89081569393403 191.50966189426262
    vertex 127.0155085968696 350.89081569393403 15.509661852544678
    vertex 127.0155059746138 350.89081569393403 191.50966185254475
  endloop
endfacet
facet normal -1.4899180646313288e-08 0.0 1.0
  outer loop
    vertex 129.8155085968696 385.29081569393406 15.509661894262429
    vertex 127.0155085968696 350.89081569393403 15.509661852544678
    vertex 129.8155085968696 350.89081569393403 15.509661894262429
  endloop
endfacet
facet normal -1.4899180646313288e-08 0.0 1.0
  outer loop
    vertex 127.0155085968696 350.89081569393403 15.509661852544678
    vertex 129.8155085968696 385.29081569393406 15.509661894262429
    vertex 127.0155085968696 385.29081569393406 15.509661852544678
  endloop
endfacet
facet normal -0.0 -1.0 0.0
  outer loop
    vertex 127.0155059746138 385.29081569393406 191.50966185254475
    vertex 129.8155085968696 385.29081569393406 15.509661894262429
    vertex 129.81550597461379 385.29081569393406 191.50966189426262
  endloop
endfacet
facet normal -0.0 -1.0 0.0
  outer loop
    vertex 129.8155085968696 385.29081569393406 15.509661894262429
    vertex 127.0155059746138 385.29081569393406 191.50966185254475
    vertex 127.0155085968696 385.29081569393406 15.509661852544678
  endloop
endfacet
facet normal -1.4899180646313288e-08 0.0 1.0
  outer loop
    vertex 138.8155087223207 323.0908156939341 7.08966202835483
    vertex 127.01550872232069 338.0908156939341 7.0896618525444595
    vertex 68.81550872232067 323.0908156939341 7.089660985412189
  endloop
endfacet
facet normal -1.4899180646313288e-08 0.0 1.0
  outer loop
    vertex 127.01550872232069 338.0908156939341 7.0896618525444595
    vertex 138.8155087223207 323.0908156939341 7.08966202835483
    vertex 129.8155087223207 340.8908156939341 7.089661894262209
  endloop
endfacet
facet normal -1.4899180646313288e-08 0.0 1.0
  outer loop
    vertex 129.8155087223207 340.8908156939341 7.089661894262209
    vertex 138.8155087223207 323.0908156939341 7.08966202835483
    vertex 138.8155087223207 413.0908156939341 7.08966202835483
  endloop
endfacet
facet normal -1.4899180646313288e-08 0.0 1.0
  outer loop
    vertex 129.8155087223207 340.8908156939341 7.089661894262209
    vertex 138.8155087223207 413.0908156939341 7.08966202835483
    vertex 129.8155087223207 395.29081569393406 7.089661894262209
  endloop
endfacet
facet normal -1.4899180646313288e-08 0.0 1.0
  outer loop
    vertex 129.8155087223207 395.29081569393406 7.089661894262209
    vertex 138.8155087223207 413.0908156939341 7.08966202835483
    vertex 127.01550872232069 398.090815693934 7.0896618525444595
  endloop
endfacet
facet normal -1.4899180646313288e-08 0.0 1.0
  outer loop
    vertex 127.01550872232069 398.090815693934 7.0896618525444595
    vertex 138.8155087223207 413.0908156939341 7.08966202835483
    vertex 80.6155087223207 398.090815693934 7.089661161222479
  endloop
endfacet
facet normal -1.4899180646313288e-08 0.0 1.0
  outer loop
    vertex 68.81550872232067 323.0908156939341 7.089660985412189
    vertex 76.81550872232071 340.8908156939341 7.089661104605596
    vertex 68.81550872232067 413.0908156939341 7.089660985412189
  endloop
endfacet
facet normal -1.4899180646313288e-08 0.0 1.0
  outer loop
    vertex 76.81550872232071 340.8908156939341 7.089661104605596
    vertex 68.81550872232067 323.0908156939341 7.089660985412189
    vertex 80.6155087223207 338.0908156939341 7.089661161222479
  endloop
endfacet
facet normal -1.4899180646313288e-08 0.0 1.0
  outer loop
    vertex 80.6155087223207 338.0908156939341 7.089661161222479
    vertex 68.81550872232067 323.0908156939341 7.089660985412189
    vertex 127.01550872232069 338.0908156939341 7.0896618525444595
  endloop
endfacet
facet normal -1.4899180646313288e-08 0.0 1.0
  outer loop
    vertex 68.81550872232067 413.0908156939341 7.089660985412189
    vertex 76.81550872232071 340.8908156939341 7.089661104605596
    vertex 76.81550872232071 395.29081569393406 7.089661104605596
  endloop
endfacet
facet normal -1.4899180646313288e-08 0.0 1.0
  outer loop
    vertex 68.81550872232067 413.0908156939341 7.089660985412189
    vertex 76.81550872232071 395.29081569393406 7.089661104605596
    vertex 80.6155087223207 398.090815693934 7.089661161222479
  endloop
endfacet
facet normal -1.4899180646313288e-08 0.0 1.0
  outer loop
    vertex 68.81550872232067 413.0908156939341 7.089660985412189
    vertex 80.6155087223207 398.090815693934 7.089661161222479
    vertex 138.8155087223207 413.0908156939341 7.08966202835483
  endloop
endfacet
facet normal 1.0 0.0 1.4899180646313288e-08
  outer loop
    vertex 129.8155087223207 395.29081569393406 7.089661894262209
    vertex 129.8155085968696 385.29081569393406 15.509661894262429
    vertex 129.8155087223207 340.8908156939341 7.089661894262209
  endloop
endfacet
facet normal 1.0 0.0 1.4899180646313288e-08
  outer loop
    vertex 129.8155085968696 385.29081569393406 15.509661894262429
    vertex 129.8155087223207 395.29081569393406 7.089661894262209
    vertex 129.81550597461379 395.29081569393406 191.50966189426262
  endloop
endfacet
facet normal 1.0 0.0 1.4899180646313288e-08
  outer loop
    vertex 129.8155085968696 385.29081569393406 15.509661894262429
    vertex 129.81550597461379 395.29081569393406 191.50966189426262
    vertex 129.81550597461379 385.29081569393406 191.50966189426262
  endloop
endfacet
facet normal 1.0 0.0 1.4899180646313288e-08
  outer loop
    vertex 129.8155087223207 340.8908156939341 7.089661894262209
    vertex 129.8155085968696 350.89081569393403 15.509661894262429
    vertex 129.81550597461379 340.8908156939341 191.50966189426262
  endloop
endfacet
facet normal 1.0 0.0 1.4899180646313288e-08
  outer loop
    vertex 129.8155085968696 350.89081569393403 15.509661894262429
    vertex 129.8155087223207 340.8908156939341 7.089661894262209
    vertex 129.8155085968696 385.29081569393406 15.509661894262429
  endloop
endfacet
facet normal 1.0 0.0 1.4899180646313288e-08
  outer loop
    vertex 129.81550597461379 340.8908156939341 191.50966189426262
    vertex 129.8155085968696 350.89081569393403 15.509661894262429
    vertex 129.81550597461379 350.89081569393403 191.50966189426262
  endloop
endfacet
facet normal -0.0 -1.0 0.0
  outer loop
    vertex 80.61550597461381 338.0908156939341 191.50966116122294
    vertex 127.01550872232069 338.0908156939341 7.0896618525444595
    vertex 127.0155059746138 338.0908156939341 191.50966185254475
  endloop
endfacet
facet normal -0.0 -1.0 0.0
  outer loop
    vertex 127.01550872232069 338.0908156939341 7.0896618525444595
    vertex 80.61550597461381 338.0908156939341 191.50966116122294
    vertex 80.6155087223207 338.0908156939341 7.089661161222479
  endloop
endfacet
facet normal -1.0 0.0 -1.4899180644009342e-08
  outer loop
    vertex 76.81550597461381 340.8908156939341 191.50966110460604
    vertex 76.81550872232071 395.29081569393406 7.089661104605596
    vertex 76.81550872232071 340.8908156939341 7.089661104605596
  endloop
endfacet
facet normal -1.0 0.0 -1.4899180644009342e-08
  outer loop
    vertex 76.81550872232071 395.29081569393406 7.089661104605596
    vertex 76.81550597461381 340.8908156939341 191.50966110460604
    vertex 76.81550733043922 370.29081569393406 100.50966110460584
  endloop
endfacet
facet normal -1.0 0.0 -1.4899180644009342e-08
  outer loop
    vertex 76.81550733043922 370.29081569393406 100.50966110460584
    vertex 76.81550597461381 340.8908156939341 191.50966110460604
    vertex 76.8155062874966 370.29081569393406 170.5096611046059
  endloop
endfacet
facet normal -1.0 0.0 -1.4899180644009342e-08
  outer loop
    vertex 76.8155062874966 370.29081569393406 170.5096611046059
    vertex 76.81550597461381 340.8908156939341 191.50966110460604
    vertex 76.8155062874966 380.290815693934 170.5096611046059
  endloop
endfacet
facet normal -1.0 0.0 -1.4899180644009342e-08
  outer loop
    vertex 76.81550872232071 395.29081569393406 7.089661104605596
    vertex 76.81550733043922 380.290815693934 100.50966110460584
    vertex 76.81550597461381 395.29081569393406 191.50966110460604
  endloop
endfacet
facet normal -1.0 0.0 -1.4899180644009342e-08
  outer loop
    vertex 76.81550733043922 380.290815693934 100.50966110460584
    vertex 76.81550872232071 395.29081569393406 7.089661104605596
    vertex 76.81550733043922 370.29081569393406 100.50966110460584
  endloop
endfacet
facet normal -1.0 0.0 -1.4899180644009342e-08
  outer loop
    vertex 76.81550597461381 395.29081569393406 191.50966110460604
    vertex 76.81550733043922 380.290815693934 100.50966110460584
    vertex 76.8155062874966 380.290815693934 170.5096611046059
  endloop
endfacet
facet normal -1.0 0.0 -1.4899180644009342e-08
  outer loop
    vertex 76.81550597461381 395.29081569393406 191.50966110460604
    vertex 76.8155062874966 380.290815693934 170.5096611046059
    vertex 76.81550597461381 340.8908156939341 191.50966110460604
  endloop
endfacet
facet normal -0.0 -1.0 0.0
  outer loop
    vertex 127.0155059746138 395.29081569393406 191.50966185254475
    vertex 80.61550877565978 395.29081569393406 3.509661161222676
    vertex 127.0155087756598 395.29081569393406 3.5096618525446557
  endloop
endfacet
facet normal -0.0 -1.0 0.0
  outer loop
    vertex 80.61550877565978 395.29081569393406 3.509661161222676
    vertex 127.0155059746138 395.29081569393406 191.50966185254475
    vertex 80.61550597461381 395.29081569393406 191.50966116122294
  endloop
endfacet
facet normal -1.0 0.0 -1.4899180646313288e-08
  outer loop
    vertex 127.0155087756598 340.8908156939341 3.5096618525446557
    vertex 127.0155085968696 350.89081569393403 15.509661852544678
    vertex 127.0155087756598 395.29081569393406 3.5096618525446557
  endloop
endfacet
facet normal -1.0 0.0 -1.4899180646313288e-08
  outer loop
    vertex 127.0155085968696 350.89081569393403 15.509661852544678
    vertex 127.0155087756598 340.8908156939341 3.5096618525446557
    vertex 127.0155059746138 340.8908156939341 191.50966185254475
  endloop
endfacet
facet normal -1.0 0.0 -1.4899180646313288e-08
  outer loop
    vertex 127.0155085968696 350.89081569393403 15.509661852544678
    vertex 127.0155059746138 340.8908156939341 191.50966185254475
    vertex 127.0155059746138 350.89081569393403 191.50966185254475
  endloop
endfacet
facet normal -1.0 0.0 -1.4899180646313288e-08
  outer loop
    vertex 127.0155087756598 395.29081569393406 3.5096618525446557
    vertex 127.0155085968696 385.29081569393406 15.509661852544678
    vertex 127.0155059746138 395.29081569393406 191.50966185254475
  endloop
endfacet
facet normal -1.0 0.0 -1.4899180646313288e-08
  outer loop
    vertex 127.0155085968696 385.29081569393406 15.509661852544678
    vertex 127.0155087756598 395.29081569393406 3.5096618525446557
    vertex 127.0155085968696 350.89081569393403 15.509661852544678
  endloop
endfacet
facet normal -1.0 0.0 -1.4899180646313288e-08
  outer loop
    vertex 127.0155059746138 395.29081569393406 191.50966185254475
    vertex 127.0155085968696 385.29081569393406 15.509661852544678
    vertex 127.0155059746138 385.29081569393406 191.50966185254475
  endloop
endfacet
facet normal 0.0 1.0 0.0
  outer loop
    vertex 80.61550877565978 340.8908156939341 3.509661161222676
    vertex 127.0155059746138 340.8908156939341 191.50966185254475
    vertex 127.0155087756598 340.8908156939341 3.5096618525446557
  endloop
endfacet
facet normal 0.0 1.0 0.0
  outer loop
    vertex 127.0155059746138 340.8908156939341 191.50966185254475
    vertex 80.61550877565978 340.8908156939341 3.509661161222676
    vertex 80.61550597461381 340.8908156939341 191.50966116122294
  endloop
endfacet
facet normal 1.0 0.0 1.4899180646313288e-08
  outer loop
    vertex 80.61550877565978 395.29081569393406 3.509661161222676
    vertex 80.61550733043921 380.290815693934 100.50966116122271
    vertex 80.61550877565978 340.8908156939341 3.509661161222676
  endloop
endfacet
facet normal 1.0 0.0 1.4899180646313288e-08
  outer loop
    vertex 80.61550733043921 380.290815693934 100.50966116122271
    vertex 80.61550877565978 395.29081569393406 3.509661161222676
    vertex 80.61550597461381 395.29081569393406 191.50966116122294
  endloop
endfacet
facet normal 1.0 0.0 1.4899180646313288e-08
  outer loop
    vertex 80.61550733043921 380.290815693934 100.50966116122271
    vertex 80.61550597461381 395.29081569393406 191.50966116122294
    vertex 80.6155062874966 380.290815693934 170.50966116122294
  endloop
endfacet
facet normal 1.0 0.0 1.4899180646313288e-08
  outer loop
    vertex 80.6155062874966 380.290815693934 170.50966116122294
    vertex 80.61550597461381 395.29081569393406 191.50966116122294
    vertex 80.6155062874966 370.29081569393406 170.50966116122294
  endloop
endfacet
facet normal 1.0 0.0 1.4899180646313288e-08
  outer loop
    vertex 80.61550877565978 340.8908156939341 3.509661161222676
    vertex 80.61550733043921 370.29081569393406 100.50966116122271
    vertex 80.61550597461381 340.8908156939341 191.50966116122294
  endloop
endfacet
facet normal 1.0 0.0 1.4899180646313288e-08
  outer loop
    vertex 80.61550733043921 370.29081569393406 100.50966116122271
    vertex 80.61550877565978 340.8908156939341 3.509661161222676
    vertex 80.61550733043921 380.290815693934 100.50966116122271
  endloop
endfacet
facet normal 1.0 0.0 1.4899180646313288e-08
  outer loop
    vertex 80.61550597461381 340.8908156939341 191.50966116122294
    vertex 80.61550733043921 370.29081569393406 100.50966116122271
    vertex 80.6155062874966 370.29081569393406 170.50966116122294
  endloop
endfacet
facet normal 1.0 0.0 1.4899180646313288e-08
  outer loop
    vertex 80.61550597461381 340.8908156939341 191.50966116122294
    vertex 80.6155062874966 370.29081569393406 170.50966116122294
    vertex 80.61550597461381 395.29081569393406 191.50966116122294
  endloop
endfacet
facet normal 1.48991949538114e-08 -4.071532012899116e-29 -1.0
  outer loop
    vertex 76.8155062874966 380.290815693934 170.5096611046059
    vertex 80.6155062874966 370.29081569393406 170.50966116122294
    vertex 76.8155062874966 370.29081569393406 170.5096611046059
  endloop
endfacet
facet normal 1.48991949538114e-08 -4.071532012899116e-29 -1.0
  outer loop
    vertex 80.6155062874966 370.29081569393406 170.50966116122294
    vertex 76.8155062874966 380.290815693934 170.5096611046059
    vertex 80.6155062874966 380.290815693934 170.50966116122294
  endloop
endfacet
facet normal -1.4899180646313288e-08 3.566653643116953e-32 1.0
  outer loop
    vertex 129.81550597461379 350.89081569393403 191.50966189426262
    vertex 127.0155059746138 340.8908156939341 191.50966185254475
    vertex 129.81550597461379 340.8908156939341 191.50966189426262
  endloop
endfacet
facet normal -1.4899180646313288e-08 3.566653643116953e-32 1.0
  outer loop
    vertex 127.0155059746138 340.8908156939341 191.50966185254475
    vertex 129.81550597461379 350.89081569393403 191.50966189426262
    vertex 127.0155059746138 350.89081569393403 191.50966185254475
  endloop
endfacet
facet normal -1.4899180646313288e-08 3.566653643116953e-32 1.0
  outer loop
    vertex 129.81550597461379 395.29081569393406 191.50966189426262
    vertex 127.0155059746138 385.29081569393406 191.50966185254475
    vertex 129.81550597461379 385.29081569393406 191.50966189426262
  endloop
endfacet
facet normal -1.4899180646313288e-08 3.566653643116953e-32 1.0
  outer loop
    vertex 127.0155059746138 385.29081569393406 191.50966185254475
    vertex 129.81550597461379 395.29081569393406 191.50966189426262
    vertex 127.0155059746138 395.29081569393406 191.50966185254475
  endloop
endfacet
facet normal -1.4899180646313288e-08 3.566653643116953e-32 1.0
  outer loop
    vertex 127.0155059746138 395.29081569393406 191.50966185254475
    vertex 129.81550597461379 395.29081569393406 191.50966189426262
    vertex 127.0155059746138 398.090815693934 191.50966185254475
  endloop
endfacet
facet normal -1.4899180646313288e-08 3.566653643116953e-32 1.0
  outer loop
    vertex 127.0155059746138 395.29081569393406 191.50966185254475
    vertex 127.0155059746138 398.090815693934 191.50966185254475
    vertex 80.61550597461381 395.29081569393406 191.50966116122294
  endloop
endfacet
facet normal -1.4899180646313288e-08 3.566653643116953e-32 1.0
  outer loop
    vertex 80.61550597461381 395.29081569393406 191.50966116122294
    vertex 127.0155059746138 398.090815693934 191.50966185254475
    vertex 76.81550597461381 395.29081569393406 191.50966110460604
  endloop
endfacet
facet normal -1.4899180646313288e-08 3.566653643116953e-32 1.0
  outer loop
    vertex 76.81550597461381 395.29081569393406 191.50966110460604
    vertex 127.0155059746138 398.090815693934 191.50966185254475
    vertex 80.61550597461381 398.090815693934 191.50966116122294
  endloop
endfacet
facet normal -1.4899180646313288e-08 3.566653643116953e-32 1.0
  outer loop
    vertex 129.81550597461379 340.8908156939341 191.50966189426262
    vertex 80.61550597461381 338.0908156939341 191.50966116122294
    vertex 127.0155059746138 338.0908156939341 191.50966185254475
  endloop
endfacet
facet normal -1.4899180646313288e-08 3.566653643116953e-32 1.0
  outer loop
    vertex 80.61550597461381 338.0908156939341 191.50966116122294
    vertex 129.81550597461379 340.8908156939341 191.50966189426262
    vertex 76.81550597461381 340.8908156939341 191.50966110460604
  endloop
endfacet
facet normal -1.4899180646313288e-08 3.566653643116953e-32 1.0
  outer loop
    vertex 76.81550597461381 340.8908156939341 191.50966110460604
    vertex 129.81550597461379 340.8908156939341 191.50966189426262
    vertex 127.0155059746138 340.8908156939341 191.50966185254475
  endloop
endfacet
facet normal -1.4899180646313288e-08 3.566653643116953e-32 1.0
  outer loop
    vertex 76.81550597461381 340.8908156939341 191.50966110460604
    vertex 127.0155059746138 340.8908156939341 191.50966185254475
    vertex 80.61550597461381 340.8908156939341 191.50966116122294
  endloop
endfacet
facet normal -1.4899180646313288e-08 3.566653643116953e-32 1.0
  outer loop
    vertex 76.81550597461381 340.8908156939341 191.50966110460604
    vertex 80.61550597461381 340.8908156939341 191.50966116122294
    vertex 80.61550597461381 395.29081569393406 191.50966116122294
  endloop
endfacet
facet normal -1.4899180646313288e-08 3.566653643116953e-32 1.0
  outer loop
    vertex 76.81550597461381 340.8908156939341 191.50966110460604
    vertex 80.61550597461381 395.29081569393406 191.50966116122294
    vertex 76.81550597461381 395.29081569393406 191.50966110460604
  endloop
endfacet
facet normal -0.5931990380498511 -0.8050558373533672 -8.838179627124e-09
  outer loop
    vertex 76.81550597461381 340.8908156939341 191.50966110460604
    vertex 80.6155087223207 338.0908156939341 7.089661161222479
    vertex 80.61550597461381 338.0908156939341 191.50966116122294
  endloop
endfacet
facet normal -0.5931990380498511 -0.8050558373533672 -8.838179627124e-09
  outer loop
    vertex 80.6155087223207 338.0908156939341 7.089661161222479
    vertex 76.81550597461381 340.8908156939341 191.50966110460604
    vertex 76.81550872232071 340.8908156939341 7.089661104605596
  endloop
endfacet
facet normal 0.7071067811865479 -0.7071067811865472 1.0535311669131499e-08
  outer loop
    vertex 129.8155087223207 340.8908156939341 7.089661894262209
    vertex 127.0155059746138 338.0908156939341 191.50966185254475
    vertex 127.01550872232069 338.0908156939341 7.0896618525444595
  endloop
endfacet
facet normal 0.7071067811865479 -0.7071067811865472 1.0535311669131499e-08
  outer loop
    vertex 127.0155059746138 338.0908156939341 191.50966185254475
    vertex 129.8155087223207 340.8908156939341 7.089661894262209
    vertex 129.81550597461379 340.8908156939341 191.50966189426262
  endloop
endfacet
facet normal 0.7071067811865472 0.707106781186548 1.0535311669131489e-08
  outer loop
    vertex 127.01550872232069 398.090815693934 7.0896618525444595
    vertex 129.81550597461379 395.29081569393406 191.50966189426262
    vertex 129.8155087223207 395.29081569393406 7.089661894262209
  endloop
endfacet
facet normal 0.7071067811865472 0.707106781186548 1.0535311669131489e-08
  outer loop
    vertex 129.81550597461379 395.29081569393406 191.50966189426262
    vertex 127.01550872232069 398.090815693934 7.0896618525444595
    vertex 127.0155059746138 398.090815693934 191.50966185254475
  endloop
endfacet
facet normal -0.5931990380498503 0.8050558373533678 -8.838179627123989e-09
  outer loop
    vertex 76.81550872232071 395.29081569393406 7.089661104605596
    vertex 80.61550597461381 398.090815693934 191.50966116122294
    vertex 80.6155087223207 398.090815693934 7.089661161222479
  endloop
endfacet
facet normal -0.5931990380498503 0.8050558373533678 -8.838179627123989e-09
  outer loop
    vertex 80.61550597461381 398.090815693934 191.50966116122294
    vertex 76.81550872232071 395.29081569393406 7.089661104605596
    vertex 76.81550597461381 395.29081569393406 191.50966110460604
  endloop
endfacet
facet normal 0.0 1.0 0.0
  outer loop
    vertex 80.6155087223207 398.090815693934 7.089661161222479
    vertex 127.0155059746138 398.090815693934 191.50966185254475
    vertex 127.01550872232069 398.090815693934 7.0896618525444595
  endloop
endfacet
facet normal 0.0 1.0 0.0
  outer loop
    vertex 127.0155059746138 398.090815693934 191.50966185254475
    vertex 80.6155087223207 398.090815693934 7.089661161222479
    vertex 80.61550597461381 398.090815693934 191.50966116122294
  endloop
endfacet
facet normal 1.0 2.228143805452393e-35 1.489917966168812e-08
  outer loop
    vertex 138.8155087223207 413.0908156939341 7.08966202835483
    vertex 138.81550877565982 323.0908156939341 3.509662028354992
    vertex 138.81550877565982 413.0908156939341 3.509662028354992
  endloop
endfacet
facet normal 1.0 2.228143805452393e-35 1.489917966168812e-08
  outer loop
    vertex 138.81550877565982 323.0908156939341 3.509662028354992
    vertex 138.8155087223207 413.0908156939341 7.08966202835483
    vertex 138.8155087223207 323.0908156939341 7.08966202835483
  endloop
endfacet
facet normal 1.8777738567386618e-22 -1.0 -1.2603202156639347e-14
  outer loop
    vertex 138.8155087223207 323.0908156939341 7.08966202835483
    vertex 68.81550877565977 323.0908156939341 3.5096609854123844
    vertex 138.81550877565982 323.0908156939341 3.509662028354992
  endloop
endfacet
facet normal 1.8777738567386618e-22 -1.0 -1.2603202156639347e-14
  outer loop
    vertex 68.81550877565977 323.0908156939341 3.5096609854123844
    vertex 138.8155087223207 323.0908156939341 7.08966202835483
    vertex 68.81550872232067 323.0908156939341 7.089660985412189
  endloop
endfacet
facet normal -1.0 0.0 -1.4899180646313288e-08
  outer loop
    vertex 68.81550872232067 323.0908156939341 7.089660985412189
    vertex 68.81550877565977 413.0908156939341 3.5096609854123844
    vertex 68.81550877565977 323.0908156939341 3.5096609854123844
  endloop
endfacet
facet normal -1.0 0.0 -1.4899180646313288e-08
  outer loop
    vertex 68.81550877565977 413.0908156939341 3.5096609854123844
    vertex 68.81550872232067 323.0908156939341 7.089660985412189
    vertex 68.81550872232067 413.0908156939341 7.089660985412189
  endloop
endfacet
facet normal 0.0 1.0 0.0
  outer loop
    vertex 68.81550877565977 413.0908156939341 3.5096609854123844
    vertex 138.8155087223207 413.0908156939341 7.08966202835483
    vertex 138.81550877565982 413.0908156939341 3.509662028354992
  endloop
endfacet
facet normal 0.0 1.0 0.0
  outer loop
    vertex 138.8155087223207 413.0908156939341 7.08966202835483
    vertex 68.81550877565977 413.0908156939341 3.5096609854123844
    vertex 68.81550872232067 413.0908156939341 7.089660985412189
  endloop
endfacet
facet normal 1.4899180646313288e-08 0.0 -1.0
  outer loop
    vertex 68.81550877565977 323.0908156939341 3.5096609854123844
    vertex 80.61550877565978 340.8908156939341 3.509661161222676
    vertex 138.81550877565982 323.0908156939341 3.509662028354992
  endloop
endfacet
facet normal 1.4899180646313288e-08 0.0 -1.0
  outer loop
    vertex 80.61550877565978 340.8908156939341 3.509661161222676
    vertex 68.81550877565977 323.0908156939341 3.5096609854123844
    vertex 68.81550877565977 413.0908156939341 3.5096609854123844
  endloop
endfacet
facet normal 1.4899180646313288e-08 0.0 -1.0
  outer loop
    vertex 80.61550877565978 340.8908156939341 3.509661161222676
    vertex 68.81550877565977 413.0908156939341 3.5096609854123844
    vertex 80.61550877565978 395.29081569393406 3.509661161222676
  endloop
endfacet
facet normal 1.4899180646313288e-08 0.0 -1.0
  outer loop
    vertex 80.61550877565978 395.29081569393406 3.509661161222676
    vertex 68.81550877565977 413.0908156939341 3.5096609854123844
    vertex 127.0155087756598 395.29081569393406 3.5096618525446557
  endloop
endfacet
facet normal 1.4899180646313288e-08 0.0 -1.0
  outer loop
    vertex 138.81550877565982 323.0908156939341 3.509662028354992
    vertex 127.0155087756598 340.8908156939341 3.5096618525446557
    vertex 138.81550877565982 413.0908156939341 3.509662028354992
  endloop
endfacet
facet normal 1.4899180646313288e-08 0.0 -1.0
  outer loop
    vertex 127.0155087756598 340.8908156939341 3.5096618525446557
    vertex 138.81550877565982 323.0908156939341 3.509662028354992
    vertex 80.61550877565978 340.8908156939341 3.509661161222676
  endloop
endfacet
facet normal 1.4899180646313288e-08 0.0 -1.0
  outer loop
    vertex 138.81550877565982 413.0908156939341 3.509662028354992
    vertex 127.0155087756598 340.8908156939341 3.5096618525446557
    vertex 127.0155087756598 395.29081569393406 3.5096618525446557
  endloop
endfacet
facet normal 1.4899180646313288e-08 0.0 -1.0
  outer loop
    vertex 138.81550877565982 413.0908156939341 3.509662028354992
    vertex 127.0155087756598 395.29081569393406 3.5096618525446557
    vertex 68.81550877565977 413.0908156939341 3.5096609854123844
  endloop
endfacet
endsolid vr-version3
