solid vr-version3
facet normal -1.0 0.0 0.0
  outer loop
    vertex 806.598969994782 577.0649485301126 -67.87804038574329
    vertex 806.598969994782 503.06494853011264 -112.87804038574328
    vertex 806.598969994782 503.06494853011264 -67.87804038574329
  endloop
endfacet
facet normal -1.0 0.0 0.0
  outer loop
    vertex 806.598969994782 503.06494853011264 -112.87804038574328
    vertex 806.598969994782 577.0649485301126 -67.87804038574329
    vertex 806.598969994782 577.0649485301126 -112.87804038574328
  endloop
endfacet
facet normal 0.0 0.0 1.0
  outer loop
    vertex 874.5989699947819 525.0649485301126 -110.87804038574329
    vertex 850.5989699947819 540.0649485301126 -110.87804038574329
    vertex 850.5989699947819 525.0649485301126 -110.87804038574329
  endloop
endfacet
facet normal 0.0 0.0 1.0
  outer loop
    vertex 850.5989699947819 540.0649485301126 -110.87804038574329
    vertex 874.5989699947819 525.0649485301126 -110.87804038574329
    vertex 862.5989699947819 540.0649485301126 -110.87804038574329
  endloop
endfacet
facet normal 0.0 0.0 1.0
  outer loop
    vertex 862.5989699947819 540.0649485301126 -110.87804038574329
    vertex 874.5989699947819 525.0649485301126 -110.87804038574329
    vertex 862.5989699947819 541.2649485301126 -110.87804038574329
  endloop
endfacet
facet normal 0.0 0.0 1.0
  outer loop
    vertex 862.5989699947819 541.2649485301126 -110.87804038574329
    vertex 874.5989699947819 525.0649485301126 -110.87804038574329
    vertex 868.4060420787931 546.9068984799859 -110.87804038574329
  endloop
endfacet
facet normal 0.0 0.0 1.0
  outer loop
    vertex 868.4060420787931 546.9068984799859 -110.87804038574329
    vertex 874.5989699947819 525.0649485301126 -110.87804038574329
    vertex 868.4060420787931 561.9068984799859 -110.87804038574329
  endloop
endfacet
facet normal 0.0 0.0 1.0
  outer loop
    vertex 808.598969994782 575.0649485301126 -110.87804038574329
    vertex 847.4060420787931 561.9068984799859 -110.87804038574329
    vertex 874.5989699947819 575.0649485301126 -110.87804038574329
  endloop
endfacet
facet normal 0.0 0.0 1.0
  outer loop
    vertex 847.4060420787931 561.9068984799859 -110.87804038574329
    vertex 808.598969994782 575.0649485301126 -110.87804038574329
    vertex 847.4060420787931 546.9068984799859 -110.87804038574329
  endloop
endfacet
facet normal 0.0 0.0 1.0
  outer loop
    vertex 874.5989699947819 575.0649485301126 -110.87804038574329
    vertex 847.4060420787931 561.9068984799859 -110.87804038574329
    vertex 868.4060420787931 561.9068984799859 -110.87804038574329
  endloop
endfacet
facet normal 0.0 0.0 1.0
  outer loop
    vertex 874.5989699947819 575.0649485301126 -110.87804038574329
    vertex 868.4060420787931 561.9068984799859 -110.87804038574329
    vertex 874.5989699947819 525.0649485301126 -110.87804038574329
  endloop
endfacet
facet normal 0.0 0.0 1.0
  outer loop
    vertex 849.3989699947819 505.0649485301126 -110.87804038574329
    vertex 808.598969994782 575.0649485301126 -110.87804038574329
    vertex 808.598969994782 505.0649485301126 -110.87804038574329
  endloop
endfacet
facet normal 0.0 0.0 1.0
  outer loop
    vertex 808.598969994782 575.0649485301126 -110.87804038574329
    vertex 849.3989699947819 505.0649485301126 -110.87804038574329
    vertex 847.4060420787931 546.9068984799859 -110.87804038574329
  endloop
endfacet
facet normal 0.0 0.0 1.0
  outer loop
    vertex 847.4060420787931 546.9068984799859 -110.87804038574329
    vertex 849.3989699947819 505.0649485301126 -110.87804038574329
    vertex 849.3989699947819 541.2649485301126 -110.87804038574329
  endloop
endfacet
facet normal 0.0 0.0 1.0
  outer loop
    vertex 847.4060420787931 546.9068984799859 -110.87804038574329
    vertex 849.3989699947819 541.2649485301126 -110.87804038574329
    vertex 868.4060420787931 546.9068984799859 -110.87804038574329
  endloop
endfacet
facet normal 0.0 0.0 1.0
  outer loop
    vertex 868.4060420787931 546.9068984799859 -110.87804038574329
    vertex 849.3989699947819 541.2649485301126 -110.87804038574329
    vertex 862.5989699947819 541.2649485301126 -110.87804038574329
  endloop
endfacet
facet normal -1.0 0.0 0.0
  outer loop
    vertex 874.5989699947819 575.0649485301126 -67.87804038574329
    vertex 874.5989699947819 505.0649485301126 -105.87804038574328
    vertex 874.5989699947819 505.0649485301126 -67.87804038574329
  endloop
endfacet
facet normal -1.0 0.0 0.0
  outer loop
    vertex 874.5989699947819 505.0649485301126 -105.87804038574328
    vertex 874.5989699947819 575.0649485301126 -67.87804038574329
    vertex 874.5989699947819 525.0649485301126 -105.87804038574328
  endloop
endfacet
facet normal -1.0 0.0 0.0
  outer loop
    vertex 874.5989699947819 525.0649485301126 -105.87804038574328
    vertex 874.5989699947819 575.0649485301126 -67.87804038574329
    vertex 874.5989699947819 525.0649485301126 -110.87804038574329
  endloop
endfacet
facet normal -1.0 0.0 0.0
  outer loop
    vertex 874.5989699947819 525.0649485301126 -110.87804038574329
    vertex 874.5989699947819 575.0649485301126 -67.87804038574329
    vertex 874.5989699947819 575.0649485301126 -110.87804038574329
  endloop
endfacet
facet normal 0.0 -1.0 0.0
  outer loop
    vertex 876.5989699947819 503.06494853011264 -112.87804038574328
    vertex 864.7989699947819 503.06494853011264 -95.0780403857433
    vertex 806.598969994782 503.06494853011264 -112.87804038574328
  endloop
endfacet
facet normal 0.0 -1.0 0.0
  outer loop
    vertex 864.7989699947819 503.06494853011264 -95.0780403857433
    vertex 876.5989699947819 503.06494853011264 -112.87804038574328
    vertex 876.5989699947819 503.06494853011264 -67.87804038574329
  endloop
endfacet
facet normal 0.0 -1.0 0.0
  outer loop
    vertex 864.7989699947819 503.06494853011264 -95.0780403857433
    vertex 876.5989699947819 503.06494853011264 -67.87804038574329
    vertex 864.7989699947819 503.06494853011264 -67.87804038574329
  endloop
endfacet
facet normal 0.0 -1.0 0.0
  outer loop
    vertex 806.598969994782 503.06494853011264 -112.87804038574328
    vertex 818.398969994782 503.06494853011264 -95.0780403857433
    vertex 806.598969994782 503.06494853011264 -67.87804038574329
  endloop
endfacet
facet normal 0.0 -1.0 0.0
  outer loop
    vertex 818.398969994782 503.06494853011264 -95.0780403857433
    vertex 806.598969994782 503.06494853011264 -112.87804038574328
    vertex 864.7989699947819 503.06494853011264 -95.0780403857433
  endloop
endfacet
facet normal 0.0 -1.0 0.0
  outer loop
    vertex 806.598969994782 503.06494853011264 -67.87804038574329
    vertex 818.398969994782 503.06494853011264 -95.0780403857433
    vertex 818.398969994782 503.06494853011264 -67.87804038574329
  endloop
endfacet
facet normal 1.0 0.0 0.0
  outer loop
    vertex 808.598969994782 575.0649485301126 -110.87804038574329
    vertex 808.598969994782 505.0649485301126 -67.87804038574329
    vertex 808.598969994782 505.0649485301126 -110.87804038574329
  endloop
endfacet
facet normal 1.0 0.0 0.0
  outer loop
    vertex 808.598969994782 505.0649485301126 -67.87804038574329
    vertex 808.598969994782 575.0649485301126 -110.87804038574329
    vertex 808.598969994782 575.0649485301126 -67.87804038574329
  endloop
endfacet
facet normal 0.0 1.0 0.0
  outer loop
    vertex 806.598969994782 577.0649485301126 -112.87804038574328
    vertex 815.398969994782 577.0649485301126 -94.07804038574328
    vertex 876.5989699947819 577.0649485301126 -112.87804038574328
  endloop
endfacet
facet normal 0.0 1.0 0.0
  outer loop
    vertex 815.398969994782 577.0649485301126 -94.07804038574328
    vertex 806.598969994782 577.0649485301126 -112.87804038574328
    vertex 806.598969994782 577.0649485301126 -67.87804038574329
  endloop
endfacet
facet normal 0.0 1.0 0.0
  outer loop
    vertex 815.398969994782 577.0649485301126 -94.07804038574328
    vertex 806.598969994782 577.0649485301126 -67.87804038574329
    vertex 815.398969994782 577.0649485301126 -67.87804038574329
  endloop
endfacet
facet normal 0.0 1.0 0.0
  outer loop
    vertex 876.5989699947819 577.0649485301126 -112.87804038574328
    vertex 867.7989699947818 577.0649485301126 -94.07804038574328
    vertex 876.5989699947819 577.0649485301126 -67.87804038574329
  endloop
endfacet
facet normal 0.0 1.0 0.0
  outer loop
    vertex 867.7989699947818 577.0649485301126 -94.07804038574328
    vertex 876.5989699947819 577.0649485301126 -112.87804038574328
    vertex 815.398969994782 577.0649485301126 -94.07804038574328
  endloop
endfacet
facet normal 0.0 1.0 0.0
  outer loop
    vertex 876.5989699947819 577.0649485301126 -67.87804038574329
    vertex 867.7989699947818 577.0649485301126 -94.07804038574328
    vertex 867.7989699947818 577.0649485301126 -67.87804038574329
  endloop
endfacet
facet normal 1.0 0.0 0.0
  outer loop
    vertex 876.5989699947819 577.0649485301126 -112.87804038574328
    vertex 876.5989699947819 503.06494853011264 -67.87804038574329
    vertex 876.5989699947819 503.06494853011264 -112.87804038574328
  endloop
endfacet
facet normal 1.0 0.0 0.0
  outer loop
    vertex 876.5989699947819 503.06494853011264 -67.87804038574329
    vertex 876.5989699947819 577.0649485301126 -112.87804038574328
    vertex 876.5989699947819 577.0649485301126 -67.87804038574329
  endloop
endfacet
facet normal 0.0 -1.0 0.0
  outer loop
    vertex 874.5989699947819 575.0649485301126 -110.87804038574329
    vertex 867.7989699947818 575.0649485301126 -94.07804038574328
    vertex 808.598969994782 575.0649485301126 -110.87804038574329
  endloop
endfacet
facet normal 0.0 -1.0 0.0
  outer loop
    vertex 867.7989699947818 575.0649485301126 -94.07804038574328
    vertex 874.5989699947819 575.0649485301126 -110.87804038574329
    vertex 874.5989699947819 575.0649485301126 -67.87804038574329
  endloop
endfacet
facet normal 0.0 -1.0 0.0
  outer loop
    vertex 867.7989699947818 575.0649485301126 -94.07804038574328
    vertex 874.5989699947819 575.0649485301126 -67.87804038574329
    vertex 867.7989699947818 575.0649485301126 -67.87804038574329
  endloop
endfacet
facet normal 0.0 -1.0 0.0
  outer loop
    vertex 808.598969994782 575.0649485301126 -110.87804038574329
    vertex 815.398969994782 575.0649485301126 -94.07804038574328
    vertex 808.598969994782 575.0649485301126 -67.87804038574329
  endloop
endfacet
facet normal 0.0 -1.0 0.0
  outer loop
    vertex 815.398969994782 575.0649485301126 -94.07804038574328
    vertex 808.598969994782 575.0649485301126 -110.87804038574329
    vertex 867.7989699947818 575.0649485301126 -94.07804038574328
  endloop
endfacet
facet normal 0.0 -1.0 0.0
  outer loop
    vertex 808.598969994782 575.0649485301126 -67.87804038574329
    vertex 815.398969994782 575.0649485301126 -94.07804038574328
    vertex 815.398969994782 575.0649485301126 -67.87804038574329
  endloop
endfacet
facet normal 0.0 1.0 0.0
  outer loop
    vertex 808.598969994782 505.0649485301126 -110.87804038574329
    vertex 818.398969994782 505.0649485301126 -95.0780403857433
    vertex 849.3989699947819 505.0649485301126 -110.87804038574329
  endloop
endfacet
facet normal 0.0 1.0 0.0
  outer loop
    vertex 818.398969994782 505.0649485301126 -95.0780403857433
    vertex 808.598969994782 505.0649485301126 -110.87804038574329
    vertex 808.598969994782 505.0649485301126 -67.87804038574329
  endloop
endfacet
facet normal 0.0 1.0 0.0
  outer loop
    vertex 849.3989699947819 505.0649485301126 -110.87804038574329
    vertex 818.398969994782 505.0649485301126 -95.0780403857433
    vertex 849.3989699947819 505.0649485301126 -100.87804038574328
  endloop
endfacet
facet normal 0.0 1.0 0.0
  outer loop
    vertex 849.3989699947819 505.0649485301126 -100.87804038574328
    vertex 818.398969994782 505.0649485301126 -95.0780403857433
    vertex 850.5989699947819 505.0649485301126 -100.87804038574328
  endloop
endfacet
facet normal 0.0 1.0 0.0
  outer loop
    vertex 818.398969994782 505.0649485301126 -95.0780403857433
    vertex 808.598969994782 505.0649485301126 -67.87804038574329
    vertex 818.398969994782 505.0649485301126 -67.87804038574329
  endloop
endfacet
facet normal 0.0 1.0 0.0
  outer loop
    vertex 850.5989699947819 505.0649485301126 -100.87804038574328
    vertex 874.5989699947819 505.0649485301126 -105.87804038574328
    vertex 850.5989699947819 505.0649485301126 -105.87804038574328
  endloop
endfacet
facet normal 0.0 1.0 0.0
  outer loop
    vertex 874.5989699947819 505.0649485301126 -105.87804038574328
    vertex 850.5989699947819 505.0649485301126 -100.87804038574328
    vertex 864.7989699947819 505.0649485301126 -95.0780403857433
  endloop
endfacet
facet normal 0.0 1.0 0.0
  outer loop
    vertex 874.5989699947819 505.0649485301126 -105.87804038574328
    vertex 864.7989699947819 505.0649485301126 -95.0780403857433
    vertex 874.5989699947819 505.0649485301126 -67.87804038574329
  endloop
endfacet
facet normal 0.0 1.0 0.0
  outer loop
    vertex 864.7989699947819 505.0649485301126 -95.0780403857433
    vertex 850.5989699947819 505.0649485301126 -100.87804038574328
    vertex 818.398969994782 505.0649485301126 -95.0780403857433
  endloop
endfacet
facet normal 0.0 1.0 0.0
  outer loop
    vertex 874.5989699947819 505.0649485301126 -67.87804038574329
    vertex 864.7989699947819 505.0649485301126 -95.0780403857433
    vertex 864.7989699947819 505.0649485301126 -67.87804038574329
  endloop
endfacet
facet normal 0.0 0.0 1.0
  outer loop
    vertex 850.5989699947819 505.0649485301126 -100.87804038574328
    vertex 849.3989699947819 541.2649485301126 -100.87804038574328
    vertex 849.3989699947819 505.0649485301126 -100.87804038574328
  endloop
endfacet
facet normal 0.0 0.0 1.0
  outer loop
    vertex 849.3989699947819 541.2649485301126 -100.87804038574328
    vertex 850.5989699947819 505.0649485301126 -100.87804038574328
    vertex 850.5989699947819 540.0649485301126 -100.87804038574328
  endloop
endfacet
facet normal 0.0 0.0 1.0
  outer loop
    vertex 849.3989699947819 541.2649485301126 -100.87804038574328
    vertex 850.5989699947819 540.0649485301126 -100.87804038574328
    vertex 862.5989699947819 541.2649485301126 -100.87804038574328
  endloop
endfacet
facet normal 0.0 0.0 1.0
  outer loop
    vertex 862.5989699947819 541.2649485301126 -100.87804038574328
    vertex 850.5989699947819 540.0649485301126 -100.87804038574328
    vertex 862.5989699947819 540.0649485301126 -100.87804038574328
  endloop
endfacet
facet normal 1.0 0.0 0.0
  outer loop
    vertex 850.5989699947819 540.0649485301126 -110.87804038574329
    vertex 850.5989699947819 525.0649485301126 -105.87804038574328
    vertex 850.5989699947819 525.0649485301126 -110.87804038574329
  endloop
endfacet
facet normal 1.0 0.0 0.0
  outer loop
    vertex 850.5989699947819 525.0649485301126 -105.87804038574328
    vertex 850.5989699947819 505.0649485301126 -100.87804038574328
    vertex 850.5989699947819 505.0649485301126 -105.87804038574328
  endloop
endfacet
facet normal 1.0 0.0 0.0
  outer loop
    vertex 850.5989699947819 505.0649485301126 -100.87804038574328
    vertex 850.5989699947819 525.0649485301126 -105.87804038574328
    vertex 850.5989699947819 540.0649485301126 -100.87804038574328
  endloop
endfacet
facet normal 1.0 0.0 0.0
  outer loop
    vertex 850.5989699947819 540.0649485301126 -100.87804038574328
    vertex 850.5989699947819 525.0649485301126 -105.87804038574328
    vertex 850.5989699947819 540.0649485301126 -110.87804038574329
  endloop
endfacet
facet normal 0.0 -1.0 0.0
  outer loop
    vertex 862.5989699947819 540.0649485301126 -100.87804038574328
    vertex 850.5989699947819 540.0649485301126 -110.87804038574329
    vertex 862.5989699947819 540.0649485301126 -110.87804038574329
  endloop
endfacet
facet normal 0.0 -1.0 0.0
  outer loop
    vertex 850.5989699947819 540.0649485301126 -110.87804038574329
    vertex 862.5989699947819 540.0649485301126 -100.87804038574328
    vertex 850.5989699947819 540.0649485301126 -100.87804038574328
  endloop
endfacet
facet normal 1.0 0.0 0.0
  outer loop
    vertex 862.5989699947819 541.2649485301126 -110.87804038574329
    vertex 862.5989699947819 540.0649485301126 -100.87804038574328
    vertex 862.5989699947819 540.0649485301126 -110.87804038574329
  endloop
endfacet
facet normal 1.0 0.0 0.0
  outer loop
    vertex 862.5989699947819 540.0649485301126 -100.87804038574328
    vertex 862.5989699947819 541.2649485301126 -110.87804038574329
    vertex 862.5989699947819 541.2649485301126 -100.87804038574328
  endloop
endfacet
facet normal 0.0 1.0 0.0
  outer loop
    vertex 849.3989699947819 541.2649485301126 -100.87804038574328
    vertex 862.5989699947819 541.2649485301126 -110.87804038574329
    vertex 849.3989699947819 541.2649485301126 -110.87804038574329
  endloop
endfacet
facet normal 0.0 1.0 0.0
  outer loop
    vertex 862.5989699947819 541.2649485301126 -110.87804038574329
    vertex 849.3989699947819 541.2649485301126 -100.87804038574328
    vertex 862.5989699947819 541.2649485301126 -100.87804038574328
  endloop
endfacet
facet normal -1.0 -0.0 -0.0
  outer loop
    vertex 849.3989699947819 541.2649485301126 -100.87804038574328
    vertex 849.3989699947819 505.0649485301126 -110.87804038574329
    vertex 849.3989699947819 505.0649485301126 -100.87804038574328
  endloop
endfacet
facet normal -1.0 -0.0 -0.0
  outer loop
    vertex 849.3989699947819 505.0649485301126 -110.87804038574329
    vertex 849.3989699947819 541.2649485301126 -100.87804038574328
    vertex 849.3989699947819 541.2649485301126 -110.87804038574329
  endloop
endfacet
facet normal 0.0 0.0 1.0
  outer loop
    vertex 874.5989699947819 505.0649485301126 -105.87804038574328
    vertex 850.5989699947819 525.0649485301126 -105.87804038574328
    vertex 850.5989699947819 505.0649485301126 -105.87804038574328
  endloop
endfacet
facet normal 0.0 0.0 1.0
  outer loop
    vertex 850.5989699947819 525.0649485301126 -105.87804038574328
    vertex 874.5989699947819 505.0649485301126 -105.87804038574328
    vertex 874.5989699947819 525.0649485301126 -105.87804038574328
  endloop
endfacet
facet normal 0.0 1.0 0.0
  outer loop
    vertex 850.5989699947819 525.0649485301126 -105.87804038574328
    vertex 874.5989699947819 525.0649485301126 -110.87804038574329
    vertex 850.5989699947819 525.0649485301126 -110.87804038574329
  endloop
endfacet
facet normal 0.0 1.0 0.0
  outer loop
    vertex 874.5989699947819 525.0649485301126 -110.87804038574329
    vertex 850.5989699947819 525.0649485301126 -105.87804038574328
    vertex 874.5989699947819 525.0649485301126 -105.87804038574328
  endloop
endfacet
facet normal 0.0 0.0 1.0
  outer loop
    vertex 867.7989699947818 575.0649485301126 -94.07804038574328
    vertex 815.398969994782 577.0649485301126 -94.07804038574328
    vertex 815.398969994782 575.0649485301126 -94.07804038574328
  endloop
endfacet
facet normal 0.0 0.0 1.0
  outer loop
    vertex 815.398969994782 577.0649485301126 -94.07804038574328
    vertex 867.7989699947818 575.0649485301126 -94.07804038574328
    vertex 867.7989699947818 577.0649485301126 -94.07804038574328
  endloop
endfacet
facet normal 0.0 0.0 1.0
  outer loop
    vertex 876.5989699947819 503.06494853011264 -67.87804038574329
    vertex 864.7989699947819 505.0649485301126 -67.87804038574329
    vertex 864.7989699947819 503.06494853011264 -67.87804038574329
  endloop
endfacet
facet normal 0.0 0.0 1.0
  outer loop
    vertex 864.7989699947819 505.0649485301126 -67.87804038574329
    vertex 876.5989699947819 503.06494853011264 -67.87804038574329
    vertex 874.5989699947819 505.0649485301126 -67.87804038574329
  endloop
endfacet
facet normal 0.0 0.0 1.0
  outer loop
    vertex 874.5989699947819 505.0649485301126 -67.87804038574329
    vertex 876.5989699947819 503.06494853011264 -67.87804038574329
    vertex 874.5989699947819 575.0649485301126 -67.87804038574329
  endloop
endfacet
facet normal 0.0 0.0 1.0
  outer loop
    vertex 874.5989699947819 575.0649485301126 -67.87804038574329
    vertex 867.7989699947818 577.0649485301126 -67.87804038574329
    vertex 867.7989699947818 575.0649485301126 -67.87804038574329
  endloop
endfacet
facet normal 0.0 0.0 1.0
  outer loop
    vertex 867.7989699947818 577.0649485301126 -67.87804038574329
    vertex 874.5989699947819 575.0649485301126 -67.87804038574329
    vertex 876.5989699947819 577.0649485301126 -67.87804038574329
  endloop
endfacet
facet normal 0.0 0.0 1.0
  outer loop
    vertex 876.5989699947819 577.0649485301126 -67.87804038574329
    vertex 874.5989699947819 575.0649485301126 -67.87804038574329
    vertex 876.5989699947819 503.06494853011264 -67.87804038574329
  endloop
endfacet
facet normal 1.0 0.0 0.0
  outer loop
    vertex 815.398969994782 577.0649485301126 -94.07804038574328
    vertex 815.398969994782 575.0649485301126 -67.87804038574329
    vertex 815.398969994782 575.0649485301126 -94.07804038574328
  endloop
endfacet
facet normal 1.0 0.0 0.0
  outer loop
    vertex 815.398969994782 575.0649485301126 -67.87804038574329
    vertex 815.398969994782 577.0649485301126 -94.07804038574328
    vertex 815.398969994782 577.0649485301126 -67.87804038574329
  endloop
endfacet
facet normal -1.0 0.0 0.0
  outer loop
    vertex 867.7989699947818 577.0649485301126 -67.87804038574329
    vertex 867.7989699947818 575.0649485301126 -94.07804038574328
    vertex 867.7989699947818 575.0649485301126 -67.87804038574329
  endloop
endfacet
facet normal -1.0 0.0 0.0
  outer loop
    vertex 867.7989699947818 575.0649485301126 -94.07804038574328
    vertex 867.7989699947818 577.0649485301126 -67.87804038574329
    vertex 867.7989699947818 577.0649485301126 -94.07804038574328
  endloop
endfacet
facet normal 0.0 0.0 -1.0
  outer loop
    vertex 806.598969994782 577.0649485301126 -112.87804038574328
    vertex 847.4060420787931 561.9068984799859 -112.87804038574328
    vertex 806.598969994782 503.06494853011264 -112.87804038574328
  endloop
endfacet
facet normal 0.0 0.0 -1.0
  outer loop
    vertex 847.4060420787931 561.9068984799859 -112.87804038574328
    vertex 806.598969994782 577.0649485301126 -112.87804038574328
    vertex 876.5989699947819 577.0649485301126 -112.87804038574328
  endloop
endfacet
facet normal 0.0 0.0 -1.0
  outer loop
    vertex 847.4060420787931 561.9068984799859 -112.87804038574328
    vertex 876.5989699947819 577.0649485301126 -112.87804038574328
    vertex 868.4060420787931 561.9068984799859 -112.87804038574328
  endloop
endfacet
facet normal 0.0 0.0 -1.0
  outer loop
    vertex 868.4060420787931 561.9068984799859 -112.87804038574328
    vertex 876.5989699947819 577.0649485301126 -112.87804038574328
    vertex 868.4060420787931 546.9068984799859 -112.87804038574328
  endloop
endfacet
facet normal 0.0 0.0 -1.0
  outer loop
    vertex 806.598969994782 503.06494853011264 -112.87804038574328
    vertex 847.4060420787931 546.9068984799859 -112.87804038574328
    vertex 876.5989699947819 503.06494853011264 -112.87804038574328
  endloop
endfacet
facet normal 0.0 0.0 -1.0
  outer loop
    vertex 847.4060420787931 546.9068984799859 -112.87804038574328
    vertex 806.598969994782 503.06494853011264 -112.87804038574328
    vertex 847.4060420787931 561.9068984799859 -112.87804038574328
  endloop
endfacet
facet normal 0.0 0.0 -1.0
  outer loop
    vertex 876.5989699947819 503.06494853011264 -112.87804038574328
    vertex 847.4060420787931 546.9068984799859 -112.87804038574328
    vertex 868.4060420787931 546.9068984799859 -112.87804038574328
  endloop
endfacet
facet normal 0.0 0.0 -1.0
  outer loop
    vertex 876.5989699947819 503.06494853011264 -112.87804038574328
    vertex 868.4060420787931 546.9068984799859 -112.87804038574328
    vertex 876.5989699947819 577.0649485301126 -112.87804038574328
  endloop
endfacet
facet normal 0.0 1.0 0.0
  outer loop
    vertex 847.4060420787931 546.9068984799859 -110.87804038574329
    vertex 868.4060420787931 546.9068984799859 -112.87804038574328
    vertex 847.4060420787931 546.9068984799859 -112.87804038574328
  endloop
endfacet
facet normal 0.0 1.0 0.0
  outer loop
    vertex 868.4060420787931 546.9068984799859 -112.87804038574328
    vertex 847.4060420787931 546.9068984799859 -110.87804038574329
    vertex 868.4060420787931 546.9068984799859 -110.87804038574329
  endloop
endfacet
facet normal 1.0 0.0 0.0
  outer loop
    vertex 847.4060420787931 561.9068984799859 -112.87804038574328
    vertex 847.4060420787931 546.9068984799859 -110.87804038574329
    vertex 847.4060420787931 546.9068984799859 -112.87804038574328
  endloop
endfacet
facet normal 1.0 0.0 0.0
  outer loop
    vertex 847.4060420787931 546.9068984799859 -110.87804038574329
    vertex 847.4060420787931 561.9068984799859 -112.87804038574328
    vertex 847.4060420787931 561.9068984799859 -110.87804038574329
  endloop
endfacet
facet normal 0.0 -1.0 0.0
  outer loop
    vertex 868.4060420787931 561.9068984799859 -110.87804038574329
    vertex 847.4060420787931 561.9068984799859 -112.87804038574328
    vertex 868.4060420787931 561.9068984799859 -112.87804038574328
  endloop
endfacet
facet normal 0.0 -1.0 0.0
  outer loop
    vertex 847.4060420787931 561.9068984799859 -112.87804038574328
    vertex 868.4060420787931 561.9068984799859 -110.87804038574329
    vertex 847.4060420787931 561.9068984799859 -110.87804038574329
  endloop
endfacet
facet normal -1.0 -0.0 -0.0
  outer loop
    vertex 868.4060420787931 561.9068984799859 -110.87804038574329
    vertex 868.4060420787931 546.9068984799859 -112.87804038574328
    vertex 868.4060420787931 546.9068984799859 -110.87804038574329
  endloop
endfacet
facet normal -1.0 -0.0 -0.0
  outer loop
    vertex 868.4060420787931 546.9068984799859 -112.87804038574328
    vertex 868.4060420787931 561.9068984799859 -110.87804038574329
    vertex 868.4060420787931 561.9068984799859 -112.87804038574328
  endloop
endfacet
facet normal 0.0 0.0 1.0
  outer loop
    vertex 806.598969994782 503.06494853011264 -67.87804038574329
    vertex 808.598969994782 505.0649485301126 -67.87804038574329
    vertex 806.598969994782 577.0649485301126 -67.87804038574329
  endloop
endfacet
facet normal 0.0 0.0 1.0
  outer loop
    vertex 808.598969994782 505.0649485301126 -67.87804038574329
    vertex 806.598969994782 503.06494853011264 -67.87804038574329
    vertex 818.398969994782 503.06494853011264 -67.87804038574329
  endloop
endfacet
facet normal 0.0 0.0 1.0
  outer loop
    vertex 808.598969994782 505.0649485301126 -67.87804038574329
    vertex 818.398969994782 503.06494853011264 -67.87804038574329
    vertex 818.398969994782 505.0649485301126 -67.87804038574329
  endloop
endfacet
facet normal 0.0 0.0 1.0
  outer loop
    vertex 806.598969994782 577.0649485301126 -67.87804038574329
    vertex 808.598969994782 575.0649485301126 -67.87804038574329
    vertex 815.398969994782 577.0649485301126 -67.87804038574329
  endloop
endfacet
facet normal 0.0 0.0 1.0
  outer loop
    vertex 808.598969994782 575.0649485301126 -67.87804038574329
    vertex 806.598969994782 577.0649485301126 -67.87804038574329
    vertex 808.598969994782 505.0649485301126 -67.87804038574329
  endloop
endfacet
facet normal 0.0 0.0 1.0
  outer loop
    vertex 815.398969994782 577.0649485301126 -67.87804038574329
    vertex 808.598969994782 575.0649485301126 -67.87804038574329
    vertex 815.398969994782 575.0649485301126 -67.87804038574329
  endloop
endfacet
facet normal 0.0 0.0 1.0
  outer loop
    vertex 864.7989699947819 503.06494853011264 -95.0780403857433
    vertex 818.398969994782 505.0649485301126 -95.0780403857433
    vertex 818.398969994782 503.06494853011264 -95.0780403857433
  endloop
endfacet
facet normal 0.0 0.0 1.0
  outer loop
    vertex 818.398969994782 505.0649485301126 -95.0780403857433
    vertex 864.7989699947819 503.06494853011264 -95.0780403857433
    vertex 864.7989699947819 505.0649485301126 -95.0780403857433
  endloop
endfacet
facet normal 1.0 0.0 0.0
  outer loop
    vertex 818.398969994782 505.0649485301126 -95.0780403857433
    vertex 818.398969994782 503.06494853011264 -67.87804038574329
    vertex 818.398969994782 503.06494853011264 -95.0780403857433
  endloop
endfacet
facet normal 1.0 0.0 0.0
  outer loop
    vertex 818.398969994782 503.06494853011264 -67.87804038574329
    vertex 818.398969994782 505.0649485301126 -95.0780403857433
    vertex 818.398969994782 505.0649485301126 -67.87804038574329
  endloop
endfacet
facet normal -1.0 -0.0 -0.0
  outer loop
    vertex 864.7989699947819 505.0649485301126 -67.87804038574329
    vertex 864.7989699947819 503.06494853011264 -95.0780403857433
    vertex 864.7989699947819 503.06494853011264 -67.87804038574329
  endloop
endfacet
facet normal -1.0 -0.0 -0.0
  outer loop
    vertex 864.7989699947819 503.06494853011264 -95.0780403857433
    vertex 864.7989699947819 505.0649485301126 -67.87804038574329
    vertex 864.7989699947819 505.0649485301126 -95.0780403857433
  endloop
endfacet
facet normal 0.0 0.0 -1.0
  outer loop
    vertex 710.934296403337 603.5119241510275 -71.16000000000003
    vertex 712.934296403337 566.5119241510275 -71.16000000000001
    vertex 710.934296403337 529.5119241510275 -71.16000000000003
  endloop
endfacet
facet normal 0.0 0.0 -1.0
  outer loop
    vertex 712.934296403337 566.5119241510275 -71.16000000000001
    vertex 710.934296403337 603.5119241510275 -71.16000000000003
    vertex 780.934296403337 603.5119241510275 -71.16000000000003
  endloop
endfacet
facet normal 0.0 0.0 -1.0
  outer loop
    vertex 712.934296403337 566.5119241510275 -71.16000000000001
    vertex 780.934296403337 603.5119241510275 -71.16000000000003
    vertex 736.934296403337 566.5119241510275 -71.16000000000001
  endloop
endfacet
facet normal 0.0 0.0 -1.0
  outer loop
    vertex 736.934296403337 566.5119241510275 -71.16000000000001
    vertex 780.934296403337 603.5119241510275 -71.16000000000003
    vertex 736.934296403337 531.5119241510275 -71.16000000000001
  endloop
endfacet
facet normal 0.0 0.0 -1.0
  outer loop
    vertex 710.934296403337 529.5119241510275 -71.16000000000003
    vertex 712.934296403337 531.5119241510275 -71.16000000000001
    vertex 780.934296403337 529.5119241510275 -71.16000000000003
  endloop
endfacet
facet normal 0.0 0.0 -1.0
  outer loop
    vertex 712.934296403337 531.5119241510275 -71.16000000000001
    vertex 710.934296403337 529.5119241510275 -71.16000000000003
    vertex 712.934296403337 566.5119241510275 -71.16000000000001
  endloop
endfacet
facet normal 0.0 0.0 -1.0
  outer loop
    vertex 780.934296403337 529.5119241510275 -71.16000000000003
    vertex 712.934296403337 531.5119241510275 -71.16000000000001
    vertex 736.934296403337 531.5119241510275 -71.16000000000001
  endloop
endfacet
facet normal 0.0 0.0 -1.0
  outer loop
    vertex 780.934296403337 529.5119241510275 -71.16000000000003
    vertex 736.934296403337 531.5119241510275 -71.16000000000001
    vertex 780.934296403337 603.5119241510275 -71.16000000000003
  endloop
endfacet
facet normal 0.0 1.0 0.0
  outer loop
    vertex 712.934296403337 531.5119241510275 -71.16000000000001
    vertex 722.7342964033371 531.5119241510275 -53.36000000000002
    vertex 736.934296403337 531.5119241510275 -71.16000000000001
  endloop
endfacet
facet normal 0.0 1.0 0.0
  outer loop
    vertex 722.7342964033371 531.5119241510275 -53.36000000000002
    vertex 712.934296403337 531.5119241510275 -71.16000000000001
    vertex 712.934296403337 531.5119241510275 -26.160000000000025
  endloop
endfacet
facet normal 0.0 1.0 0.0
  outer loop
    vertex 736.934296403337 531.5119241510275 -71.16000000000001
    vertex 722.7342964033371 531.5119241510275 -53.36000000000002
    vertex 736.934296403337 531.5119241510275 -66.16000000000003
  endloop
endfacet
facet normal 0.0 1.0 0.0
  outer loop
    vertex 736.934296403337 531.5119241510275 -66.16000000000003
    vertex 722.7342964033371 531.5119241510275 -53.36000000000002
    vertex 737.934296403337 531.5119241510275 -66.16000000000003
  endloop
endfacet
facet normal 0.0 1.0 0.0
  outer loop
    vertex 722.7342964033371 531.5119241510275 -53.36000000000002
    vertex 712.934296403337 531.5119241510275 -26.160000000000025
    vertex 722.7342964033371 531.5119241510275 -26.160000000000025
  endloop
endfacet
facet normal 0.0 1.0 0.0
  outer loop
    vertex 737.934296403337 531.5119241510275 -66.16000000000003
    vertex 778.934296403337 531.5119241510275 -69.16000000000003
    vertex 737.934296403337 531.5119241510275 -69.16000000000003
  endloop
endfacet
facet normal 0.0 1.0 0.0
  outer loop
    vertex 778.934296403337 531.5119241510275 -69.16000000000003
    vertex 737.934296403337 531.5119241510275 -66.16000000000003
    vertex 769.134296403337 531.5119241510275 -53.36000000000002
  endloop
endfacet
facet normal 0.0 1.0 0.0
  outer loop
    vertex 778.934296403337 531.5119241510275 -69.16000000000003
    vertex 769.134296403337 531.5119241510275 -53.36000000000002
    vertex 778.934296403337 531.5119241510275 -26.160000000000025
  endloop
endfacet
facet normal 0.0 1.0 0.0
  outer loop
    vertex 769.134296403337 531.5119241510275 -53.36000000000002
    vertex 737.934296403337 531.5119241510275 -66.16000000000003
    vertex 722.7342964033371 531.5119241510275 -53.36000000000002
  endloop
endfacet
facet normal 0.0 1.0 0.0
  outer loop
    vertex 778.934296403337 531.5119241510275 -26.160000000000025
    vertex 769.134296403337 531.5119241510275 -53.36000000000002
    vertex 769.134296403337 531.5119241510275 -26.160000000000025
  endloop
endfacet
facet normal 1.0 0.0 0.0
  outer loop
    vertex 712.934296403337 601.5119241510275 -69.16000000000003
    vertex 712.934296403337 567.5119241510275 -66.16000000000003
    vertex 712.934296403337 567.5119241510275 -69.16000000000003
  endloop
endfacet
facet normal 1.0 0.0 0.0
  outer loop
    vertex 712.934296403337 566.5119241510275 -71.16000000000001
    vertex 712.934296403337 531.5119241510275 -26.160000000000025
    vertex 712.934296403337 531.5119241510275 -71.16000000000001
  endloop
endfacet
facet normal 1.0 0.0 0.0
  outer loop
    vertex 712.934296403337 531.5119241510275 -26.160000000000025
    vertex 712.934296403337 566.5119241510275 -71.16000000000001
    vertex 712.934296403337 566.5119241510275 -66.16000000000003
  endloop
endfacet
facet normal 1.0 0.0 0.0
  outer loop
    vertex 712.934296403337 531.5119241510275 -26.160000000000025
    vertex 712.934296403337 566.5119241510275 -66.16000000000003
    vertex 712.934296403337 601.5119241510275 -26.160000000000025
  endloop
endfacet
facet normal 1.0 0.0 0.0
  outer loop
    vertex 712.934296403337 601.5119241510275 -26.160000000000025
    vertex 712.934296403337 566.5119241510275 -66.16000000000003
    vertex 712.934296403337 567.5119241510275 -66.16000000000003
  endloop
endfacet
facet normal 1.0 0.0 0.0
  outer loop
    vertex 712.934296403337 601.5119241510275 -26.160000000000025
    vertex 712.934296403337 567.5119241510275 -66.16000000000003
    vertex 712.934296403337 601.5119241510275 -69.16000000000003
  endloop
endfacet
facet normal 0.0 -1.0 0.0
  outer loop
    vertex 778.934296403337 601.5119241510275 -69.16000000000003
    vertex 772.134296403337 601.5119241510275 -52.36000000000002
    vertex 712.934296403337 601.5119241510275 -69.16000000000003
  endloop
endfacet
facet normal 0.0 -1.0 0.0
  outer loop
    vertex 772.134296403337 601.5119241510275 -52.36000000000002
    vertex 778.934296403337 601.5119241510275 -69.16000000000003
    vertex 778.934296403337 601.5119241510275 -26.160000000000025
  endloop
endfacet
facet normal 0.0 -1.0 0.0
  outer loop
    vertex 772.134296403337 601.5119241510275 -52.36000000000002
    vertex 778.934296403337 601.5119241510275 -26.160000000000025
    vertex 772.134296403337 601.5119241510275 -26.160000000000025
  endloop
endfacet
facet normal 0.0 -1.0 0.0
  outer loop
    vertex 712.934296403337 601.5119241510275 -69.16000000000003
    vertex 719.734296403337 601.5119241510275 -52.36000000000002
    vertex 712.934296403337 601.5119241510275 -26.160000000000025
  endloop
endfacet
facet normal 0.0 -1.0 0.0
  outer loop
    vertex 719.734296403337 601.5119241510275 -52.36000000000002
    vertex 712.934296403337 601.5119241510275 -69.16000000000003
    vertex 772.134296403337 601.5119241510275 -52.36000000000002
  endloop
endfacet
facet normal 0.0 -1.0 0.0
  outer loop
    vertex 712.934296403337 601.5119241510275 -26.160000000000025
    vertex 719.734296403337 601.5119241510275 -52.36000000000002
    vertex 719.734296403337 601.5119241510275 -26.160000000000025
  endloop
endfacet
facet normal -1.0 0.0 0.0
  outer loop
    vertex 778.934296403337 601.5119241510275 -26.160000000000025
    vertex 778.934296403337 531.5119241510275 -69.16000000000003
    vertex 778.934296403337 531.5119241510275 -26.160000000000025
  endloop
endfacet
facet normal -1.0 0.0 0.0
  outer loop
    vertex 778.934296403337 531.5119241510275 -69.16000000000003
    vertex 778.934296403337 601.5119241510275 -26.160000000000025
    vertex 778.934296403337 601.5119241510275 -69.16000000000003
  endloop
endfacet
facet normal -1.0 0.0 0.0
  outer loop
    vertex 710.934296403337 603.5119241510275 -26.160000000000025
    vertex 710.934296403337 529.5119241510275 -71.16000000000003
    vertex 710.934296403337 529.5119241510275 -26.160000000000025
  endloop
endfacet
facet normal -1.0 0.0 0.0
  outer loop
    vertex 710.934296403337 529.5119241510275 -71.16000000000003
    vertex 710.934296403337 603.5119241510275 -26.160000000000025
    vertex 710.934296403337 603.5119241510275 -71.16000000000003
  endloop
endfacet
facet normal 1.0 0.0 0.0
  outer loop
    vertex 780.934296403337 603.5119241510275 -71.16000000000003
    vertex 780.934296403337 529.5119241510275 -26.160000000000025
    vertex 780.934296403337 529.5119241510275 -71.16000000000003
  endloop
endfacet
facet normal 1.0 0.0 0.0
  outer loop
    vertex 780.934296403337 529.5119241510275 -26.160000000000025
    vertex 780.934296403337 603.5119241510275 -71.16000000000003
    vertex 780.934296403337 603.5119241510275 -26.160000000000025
  endloop
endfacet
facet normal 0.0 1.0 0.0
  outer loop
    vertex 710.934296403337 603.5119241510275 -71.16000000000003
    vertex 719.734296403337 603.5119241510275 -52.36000000000002
    vertex 780.934296403337 603.5119241510275 -71.16000000000003
  endloop
endfacet
facet normal 0.0 1.0 0.0
  outer loop
    vertex 719.734296403337 603.5119241510275 -52.36000000000002
    vertex 710.934296403337 603.5119241510275 -71.16000000000003
    vertex 710.934296403337 603.5119241510275 -26.160000000000025
  endloop
endfacet
facet normal 0.0 1.0 0.0
  outer loop
    vertex 719.734296403337 603.5119241510275 -52.36000000000002
    vertex 710.934296403337 603.5119241510275 -26.160000000000025
    vertex 719.734296403337 603.5119241510275 -26.160000000000025
  endloop
endfacet
facet normal 0.0 1.0 0.0
  outer loop
    vertex 780.934296403337 603.5119241510275 -71.16000000000003
    vertex 772.134296403337 603.5119241510275 -52.36000000000002
    vertex 780.934296403337 603.5119241510275 -26.160000000000025
  endloop
endfacet
facet normal 0.0 1.0 0.0
  outer loop
    vertex 772.134296403337 603.5119241510275 -52.36000000000002
    vertex 780.934296403337 603.5119241510275 -71.16000000000003
    vertex 719.734296403337 603.5119241510275 -52.36000000000002
  endloop
endfacet
facet normal 0.0 1.0 0.0
  outer loop
    vertex 780.934296403337 603.5119241510275 -26.160000000000025
    vertex 772.134296403337 603.5119241510275 -52.36000000000002
    vertex 772.134296403337 603.5119241510275 -26.160000000000025
  endloop
endfacet
facet normal 0.0 -1.0 0.0
  outer loop
    vertex 780.934296403337 529.5119241510275 -71.16000000000003
    vertex 769.134296403337 529.5119241510275 -53.36000000000002
    vertex 710.934296403337 529.5119241510275 -71.16000000000003
  endloop
endfacet
facet normal 0.0 -1.0 0.0
  outer loop
    vertex 769.134296403337 529.5119241510275 -53.36000000000002
    vertex 780.934296403337 529.5119241510275 -71.16000000000003
    vertex 780.934296403337 529.5119241510275 -26.160000000000025
  endloop
endfacet
facet normal 0.0 -1.0 0.0
  outer loop
    vertex 769.134296403337 529.5119241510275 -53.36000000000002
    vertex 780.934296403337 529.5119241510275 -26.160000000000025
    vertex 769.134296403337 529.5119241510275 -26.160000000000025
  endloop
endfacet
facet normal 0.0 -1.0 0.0
  outer loop
    vertex 710.934296403337 529.5119241510275 -71.16000000000003
    vertex 722.7342964033371 529.5119241510275 -53.36000000000002
    vertex 710.934296403337 529.5119241510275 -26.160000000000025
  endloop
endfacet
facet normal 0.0 -1.0 0.0
  outer loop
    vertex 722.7342964033371 529.5119241510275 -53.36000000000002
    vertex 710.934296403337 529.5119241510275 -71.16000000000003
    vertex 769.134296403337 529.5119241510275 -53.36000000000002
  endloop
endfacet
facet normal 0.0 -1.0 0.0
  outer loop
    vertex 710.934296403337 529.5119241510275 -26.160000000000025
    vertex 722.7342964033371 529.5119241510275 -53.36000000000002
    vertex 722.7342964033371 529.5119241510275 -26.160000000000025
  endloop
endfacet
facet normal 0.0 0.0 1.0
  outer loop
    vertex 772.134296403337 601.5119241510275 -52.36000000000002
    vertex 719.734296403337 603.5119241510275 -52.36000000000002
    vertex 719.734296403337 601.5119241510275 -52.36000000000002
  endloop
endfacet
facet normal 0.0 0.0 1.0
  outer loop
    vertex 719.734296403337 603.5119241510275 -52.36000000000002
    vertex 772.134296403337 601.5119241510275 -52.36000000000002
    vertex 772.134296403337 603.5119241510275 -52.36000000000002
  endloop
endfacet
facet normal 0.0 0.0 1.0
  outer loop
    vertex 710.934296403337 529.5119241510275 -26.160000000000025
    vertex 712.934296403337 531.5119241510275 -26.160000000000025
    vertex 710.934296403337 603.5119241510275 -26.160000000000025
  endloop
endfacet
facet normal 0.0 0.0 1.0
  outer loop
    vertex 712.934296403337 531.5119241510275 -26.160000000000025
    vertex 710.934296403337 529.5119241510275 -26.160000000000025
    vertex 722.7342964033371 529.5119241510275 -26.160000000000025
  endloop
endfacet
facet normal 0.0 0.0 1.0
  outer loop
    vertex 712.934296403337 531.5119241510275 -26.160000000000025
    vertex 722.7342964033371 529.5119241510275 -26.160000000000025
    vertex 722.7342964033371 531.5119241510275 -26.160000000000025
  endloop
endfacet
facet normal 0.0 0.0 1.0
  outer loop
    vertex 710.934296403337 603.5119241510275 -26.160000000000025
    vertex 712.934296403337 601.5119241510275 -26.160000000000025
    vertex 719.734296403337 603.5119241510275 -26.160000000000025
  endloop
endfacet
facet normal 0.0 0.0 1.0
  outer loop
    vertex 712.934296403337 601.5119241510275 -26.160000000000025
    vertex 710.934296403337 603.5119241510275 -26.160000000000025
    vertex 712.934296403337 531.5119241510275 -26.160000000000025
  endloop
endfacet
facet normal 0.0 0.0 1.0
  outer loop
    vertex 719.734296403337 603.5119241510275 -26.160000000000025
    vertex 712.934296403337 601.5119241510275 -26.160000000000025
    vertex 719.734296403337 601.5119241510275 -26.160000000000025
  endloop
endfacet
facet normal -1.0 -0.0 -0.0
  outer loop
    vertex 772.134296403337 603.5119241510275 -26.160000000000025
    vertex 772.134296403337 601.5119241510275 -52.36000000000002
    vertex 772.134296403337 601.5119241510275 -26.160000000000025
  endloop
endfacet
facet normal -1.0 -0.0 -0.0
  outer loop
    vertex 772.134296403337 601.5119241510275 -52.36000000000002
    vertex 772.134296403337 603.5119241510275 -26.160000000000025
    vertex 772.134296403337 603.5119241510275 -52.36000000000002
  endloop
endfacet
facet normal 1.0 0.0 0.0
  outer loop
    vertex 719.734296403337 603.5119241510275 -52.36000000000002
    vertex 719.734296403337 601.5119241510275 -26.160000000000025
    vertex 719.734296403337 601.5119241510275 -52.36000000000002
  endloop
endfacet
facet normal 1.0 0.0 0.0
  outer loop
    vertex 719.734296403337 601.5119241510275 -26.160000000000025
    vertex 719.734296403337 603.5119241510275 -52.36000000000002
    vertex 719.734296403337 603.5119241510275 -26.160000000000025
  endloop
endfacet
facet normal 0.0 0.0 1.0
  outer loop
    vertex 780.934296403337 529.5119241510275 -26.160000000000025
    vertex 769.134296403337 531.5119241510275 -26.160000000000025
    vertex 769.134296403337 529.5119241510275 -26.160000000000025
  endloop
endfacet
facet normal 0.0 0.0 1.0
  outer loop
    vertex 769.134296403337 531.5119241510275 -26.160000000000025
    vertex 780.934296403337 529.5119241510275 -26.160000000000025
    vertex 778.934296403337 531.5119241510275 -26.160000000000025
  endloop
endfacet
facet normal 0.0 0.0 1.0
  outer loop
    vertex 778.934296403337 531.5119241510275 -26.160000000000025
    vertex 780.934296403337 529.5119241510275 -26.160000000000025
    vertex 778.934296403337 601.5119241510275 -26.160000000000025
  endloop
endfacet
facet normal 0.0 0.0 1.0
  outer loop
    vertex 778.934296403337 601.5119241510275 -26.160000000000025
    vertex 772.134296403337 603.5119241510275 -26.160000000000025
    vertex 772.134296403337 601.5119241510275 -26.160000000000025
  endloop
endfacet
facet normal 0.0 0.0 1.0
  outer loop
    vertex 772.134296403337 603.5119241510275 -26.160000000000025
    vertex 778.934296403337 601.5119241510275 -26.160000000000025
    vertex 780.934296403337 603.5119241510275 -26.160000000000025
  endloop
endfacet
facet normal 0.0 0.0 1.0
  outer loop
    vertex 780.934296403337 603.5119241510275 -26.160000000000025
    vertex 778.934296403337 601.5119241510275 -26.160000000000025
    vertex 780.934296403337 529.5119241510275 -26.160000000000025
  endloop
endfacet
facet normal 0.0 0.0 1.0
  outer loop
    vertex 769.134296403337 529.5119241510275 -53.36000000000002
    vertex 722.7342964033371 531.5119241510275 -53.36000000000002
    vertex 722.7342964033371 529.5119241510275 -53.36000000000002
  endloop
endfacet
facet normal 0.0 0.0 1.0
  outer loop
    vertex 722.7342964033371 531.5119241510275 -53.36000000000002
    vertex 769.134296403337 529.5119241510275 -53.36000000000002
    vertex 769.134296403337 531.5119241510275 -53.36000000000002
  endloop
endfacet
facet normal -1.0 0.0 0.0
  outer loop
    vertex 769.134296403337 531.5119241510275 -26.160000000000025
    vertex 769.134296403337 529.5119241510275 -53.36000000000002
    vertex 769.134296403337 529.5119241510275 -26.160000000000025
  endloop
endfacet
facet normal -1.0 0.0 0.0
  outer loop
    vertex 769.134296403337 529.5119241510275 -53.36000000000002
    vertex 769.134296403337 531.5119241510275 -26.160000000000025
    vertex 769.134296403337 531.5119241510275 -53.36000000000002
  endloop
endfacet
facet normal 1.0 0.0 0.0
  outer loop
    vertex 722.7342964033371 531.5119241510275 -53.36000000000002
    vertex 722.7342964033371 529.5119241510275 -26.160000000000025
    vertex 722.7342964033371 529.5119241510275 -53.36000000000002
  endloop
endfacet
facet normal 1.0 0.0 0.0
  outer loop
    vertex 722.7342964033371 529.5119241510275 -26.160000000000025
    vertex 722.7342964033371 531.5119241510275 -53.36000000000002
    vertex 722.7342964033371 531.5119241510275 -26.160000000000025
  endloop
endfacet
facet normal 0.0 0.0 1.0
  outer loop
    vertex 778.934296403337 531.5119241510275 -69.16000000000003
    vertex 737.934296403337 567.5119241510275 -69.16000000000003
    vertex 737.934296403337 531.5119241510275 -69.16000000000003
  endloop
endfacet
facet normal 0.0 0.0 1.0
  outer loop
    vertex 737.934296403337 567.5119241510275 -69.16000000000003
    vertex 712.934296403337 601.5119241510275 -69.16000000000003
    vertex 712.934296403337 567.5119241510275 -69.16000000000003
  endloop
endfacet
facet normal 0.0 0.0 1.0
  outer loop
    vertex 712.934296403337 601.5119241510275 -69.16000000000003
    vertex 737.934296403337 567.5119241510275 -69.16000000000003
    vertex 778.934296403337 601.5119241510275 -69.16000000000003
  endloop
endfacet
facet normal 0.0 0.0 1.0
  outer loop
    vertex 778.934296403337 601.5119241510275 -69.16000000000003
    vertex 737.934296403337 567.5119241510275 -69.16000000000003
    vertex 778.934296403337 531.5119241510275 -69.16000000000003
  endloop
endfacet
facet normal 0.0 0.0 1.0
  outer loop
    vertex 737.934296403337 531.5119241510275 -66.16000000000003
    vertex 736.934296403337 566.5119241510275 -66.16000000000003
    vertex 736.934296403337 531.5119241510275 -66.16000000000003
  endloop
endfacet
facet normal 0.0 0.0 1.0
  outer loop
    vertex 736.934296403337 566.5119241510275 -66.16000000000003
    vertex 712.934296403337 567.5119241510275 -66.16000000000003
    vertex 712.934296403337 566.5119241510275 -66.16000000000003
  endloop
endfacet
facet normal 0.0 0.0 1.0
  outer loop
    vertex 712.934296403337 567.5119241510275 -66.16000000000003
    vertex 736.934296403337 566.5119241510275 -66.16000000000003
    vertex 737.934296403337 567.5119241510275 -66.16000000000003
  endloop
endfacet
facet normal 0.0 0.0 1.0
  outer loop
    vertex 737.934296403337 567.5119241510275 -66.16000000000003
    vertex 736.934296403337 566.5119241510275 -66.16000000000003
    vertex 737.934296403337 531.5119241510275 -66.16000000000003
  endloop
endfacet
facet normal 1.0 0.0 0.0
  outer loop
    vertex 737.934296403337 567.5119241510275 -69.16000000000003
    vertex 737.934296403337 531.5119241510275 -66.16000000000003
    vertex 737.934296403337 531.5119241510275 -69.16000000000003
  endloop
endfacet
facet normal 1.0 0.0 0.0
  outer loop
    vertex 737.934296403337 531.5119241510275 -66.16000000000003
    vertex 737.934296403337 567.5119241510275 -69.16000000000003
    vertex 737.934296403337 567.5119241510275 -66.16000000000003
  endloop
endfacet
facet normal 0.0 1.0 0.0
  outer loop
    vertex 712.934296403337 567.5119241510275 -66.16000000000003
    vertex 737.934296403337 567.5119241510275 -69.16000000000003
    vertex 712.934296403337 567.5119241510275 -69.16000000000003
  endloop
endfacet
facet normal 0.0 1.0 0.0
  outer loop
    vertex 737.934296403337 567.5119241510275 -69.16000000000003
    vertex 712.934296403337 567.5119241510275 -66.16000000000003
    vertex 737.934296403337 567.5119241510275 -66.16000000000003
  endloop
endfacet
facet normal 0.0 -1.0 0.0
  outer loop
    vertex 736.934296403337 566.5119241510275 -66.16000000000003
    vertex 712.934296403337 566.5119241510275 -71.16000000000001
    vertex 736.934296403337 566.5119241510275 -71.16000000000001
  endloop
endfacet
facet normal 0.0 -1.0 0.0
  outer loop
    vertex 712.934296403337 566.5119241510275 -71.16000000000001
    vertex 736.934296403337 566.5119241510275 -66.16000000000003
    vertex 712.934296403337 566.5119241510275 -66.16000000000003
  endloop
endfacet
facet normal -1.0 -0.0 -0.0
  outer loop
    vertex 736.934296403337 566.5119241510275 -66.16000000000003
    vertex 736.934296403337 531.5119241510275 -71.16000000000001
    vertex 736.934296403337 531.5119241510275 -66.16000000000003
  endloop
endfacet
facet normal -1.0 -0.0 -0.0
  outer loop
    vertex 736.934296403337 531.5119241510275 -71.16000000000001
    vertex 736.934296403337 566.5119241510275 -66.16000000000003
    vertex 736.934296403337 566.5119241510275 -71.16000000000001
  endloop
endfacet
endsolid vr-version3
