solid vr-version3
facet normal 1.0 -3.8843112375365365e-15 3.0711272519124335e-15
  outer loop
    vertex 332.19446036411205 304.5358372668573 60.38253988221186
    vertex 332.19446036411176 209.53583726685727 22.88253988221186
    vertex 332.19446036411216 304.5358372668573 22.88253988221186
  endloop
endfacet
facet normal 1.0 -3.8843112375365365e-15 3.0711272519124335e-15
  outer loop
    vertex 332.19446036411176 209.53583726685727 22.88253988221186
    vertex 332.19446036411205 304.5358372668573 60.38253988221186
    vertex 332.1944603641116 209.53583726685727 60.38253988221186
  endloop
endfacet
facet normal -3.8843112375365365e-15 -1.0 -1.0154277059760887e-29
  outer loop
    vertex 327.194460364112 299.5358372668573 50.38253988221183
    vertex 262.19446036411205 299.5358372668575 25.382539882211642
    vertex 327.1944603641121 299.5358372668573 25.38253988221184
  endloop
endfacet
facet normal -3.8843112375365365e-15 -1.0 -1.0154277059760887e-29
  outer loop
    vertex 262.19446036411205 299.5358372668575 25.382539882211642
    vertex 327.194460364112 299.5358372668573 50.38253988221183
    vertex 262.194460364112 299.5358372668575 50.38253988221164
  endloop
endfacet
facet normal -3.0711272519124335e-15 1.7749370367472808e-30 1.0
  outer loop
    vertex 327.1944603641121 299.5358372668573 25.38253988221184
    vertex 262.19446036411176 214.53583726685753 25.382539882211642
    vertex 327.1944603641118 214.53583726685721 25.38253988221184
  endloop
endfacet
facet normal -3.0711272519124335e-15 1.7749370367472808e-30 1.0
  outer loop
    vertex 262.19446036411176 214.53583726685753 25.382539882211642
    vertex 327.1944603641121 299.5358372668573 25.38253988221184
    vertex 262.19446036411205 299.5358372668575 25.382539882211642
  endloop
endfacet
facet normal 3.8843112375365365e-15 1.0 1.0154277059760887e-29
  outer loop
    vertex 262.19446036411176 214.53583726685753 25.382539882211642
    vertex 327.19446036411165 214.53583726685721 50.38253988221183
    vertex 327.1944603641118 214.53583726685721 25.38253988221184
  endloop
endfacet
facet normal 3.8843112375365365e-15 1.0 1.0154277059760887e-29
  outer loop
    vertex 327.19446036411165 214.53583726685721 50.38253988221183
    vertex 262.19446036411176 214.53583726685753 25.382539882211642
    vertex 262.1944603641117 214.53583726685753 50.38253988221164
  endloop
endfacet
facet normal -3.8843112375365365e-15 -1.0 -1.0154277059760887e-29
  outer loop
    vertex 257.1944603641116 209.5358372668575 60.38253988221161
    vertex 332.19446036411176 209.53583726685727 22.88253988221186
    vertex 332.1944603641116 209.53583726685727 60.38253988221186
  endloop
endfacet
facet normal -3.8843112375365365e-15 -1.0 -1.0154277059760887e-29
  outer loop
    vertex 332.19446036411176 209.53583726685727 22.88253988221186
    vertex 257.1944603641116 209.5358372668575 60.38253988221161
    vertex 257.1944603641118 209.5358372668575 22.882539882211628
  endloop
endfacet
facet normal -1.0 3.8843112375365365e-15 -3.0711272519124335e-15
  outer loop
    vertex 329.6944603641117 212.03583726685724 60.38253988221184
    vertex 329.694460364112 302.0358372668572 50.382539882211844
    vertex 329.69446036411165 212.03583726685724 50.382539882211844
  endloop
endfacet
facet normal -1.0 3.8843112375365365e-15 -3.0711272519124335e-15
  outer loop
    vertex 329.694460364112 302.0358372668572 50.382539882211844
    vertex 329.6944603641117 212.03583726685724 60.38253988221184
    vertex 329.69446036411193 302.0358372668572 60.38253988221184
  endloop
endfacet
facet normal -3.0711272519124335e-15 1.7749370367472808e-30 1.0
  outer loop
    vertex 332.19446036411205 304.5358372668573 60.38253988221186
    vertex 329.6944603641117 212.03583726685724 60.38253988221184
    vertex 332.1944603641116 209.53583726685727 60.38253988221186
  endloop
endfacet
facet normal -3.0711272519124335e-15 1.7749370367472808e-30 1.0
  outer loop
    vertex 329.6944603641117 212.03583726685724 60.38253988221184
    vertex 332.19446036411205 304.5358372668573 60.38253988221186
    vertex 329.69446036411193 302.0358372668572 60.38253988221184
  endloop
endfacet
facet normal -3.0711272519124335e-15 1.7749370367472808e-30 1.0
  outer loop
    vertex 329.69446036411193 302.0358372668572 60.38253988221184
    vertex 332.19446036411205 304.5358372668573 60.38253988221186
    vertex 259.69446036411193 302.03583726685747 60.382539882211624
  endloop
endfacet
facet normal -3.0711272519124335e-15 1.7749370367472808e-30 1.0
  outer loop
    vertex 257.1944603641116 209.5358372668575 60.38253988221161
    vertex 259.69446036411165 212.0358372668575 60.382539882211624
    vertex 257.19446036411205 304.5358372668576 60.38253988221161
  endloop
endfacet
facet normal -3.0711272519124335e-15 1.7749370367472808e-30 1.0
  outer loop
    vertex 259.69446036411165 212.0358372668575 60.382539882211624
    vertex 257.1944603641116 209.5358372668575 60.38253988221161
    vertex 332.1944603641116 209.53583726685727 60.38253988221186
  endloop
endfacet
facet normal -3.0711272519124335e-15 1.7749370367472808e-30 1.0
  outer loop
    vertex 259.69446036411165 212.0358372668575 60.382539882211624
    vertex 332.1944603641116 209.53583726685727 60.38253988221186
    vertex 329.6944603641117 212.03583726685724 60.38253988221184
  endloop
endfacet
facet normal -3.0711272519124335e-15 1.7749370367472808e-30 1.0
  outer loop
    vertex 257.19446036411205 304.5358372668576 60.38253988221161
    vertex 259.69446036411165 212.0358372668575 60.382539882211624
    vertex 259.69446036411193 302.03583726685747 60.382539882211624
  endloop
endfacet
facet normal -3.0711272519124335e-15 1.7749370367472808e-30 1.0
  outer loop
    vertex 257.19446036411205 304.5358372668576 60.38253988221161
    vertex 259.69446036411193 302.03583726685747 60.382539882211624
    vertex 332.19446036411205 304.5358372668573 60.38253988221186
  endloop
endfacet
facet normal -1.0 3.8843112375365365e-15 -3.0711272519124335e-15
  outer loop
    vertex 257.1944603641116 209.5358372668575 60.38253988221161
    vertex 257.1944603641121 304.5358372668576 22.882539882211628
    vertex 257.1944603641118 209.5358372668575 22.882539882211628
  endloop
endfacet
facet normal -1.0 3.8843112375365365e-15 -3.0711272519124335e-15
  outer loop
    vertex 257.1944603641121 304.5358372668576 22.882539882211628
    vertex 257.1944603641116 209.5358372668575 60.38253988221161
    vertex 257.19446036411205 304.5358372668576 60.38253988221161
  endloop
endfacet
facet normal 3.8843112375365365e-15 1.0 1.0154277059760887e-29
  outer loop
    vertex 329.69446036411165 212.03583726685724 50.382539882211844
    vertex 259.69446036411165 212.0358372668575 60.382539882211624
    vertex 329.6944603641117 212.03583726685724 60.38253988221184
  endloop
endfacet
facet normal 3.8843112375365365e-15 1.0 1.0154277059760887e-29
  outer loop
    vertex 259.69446036411165 212.0358372668575 60.382539882211624
    vertex 329.69446036411165 212.03583726685724 50.382539882211844
    vertex 259.69446036411165 212.0358372668575 50.38253988221163
  endloop
endfacet
facet normal -3.0711272519124335e-15 1.7749370367472808e-30 1.0
  outer loop
    vertex 329.69446036411165 212.03583726685724 50.382539882211844
    vertex 327.19446036411165 214.53583726685721 50.38253988221183
    vertex 259.69446036411165 212.0358372668575 50.38253988221163
  endloop
endfacet
facet normal -3.0711272519124335e-15 1.7749370367472808e-30 1.0
  outer loop
    vertex 327.19446036411165 214.53583726685721 50.38253988221183
    vertex 329.69446036411165 212.03583726685724 50.382539882211844
    vertex 329.694460364112 302.0358372668572 50.382539882211844
  endloop
endfacet
facet normal -3.0711272519124335e-15 1.7749370367472808e-30 1.0
  outer loop
    vertex 327.19446036411165 214.53583726685721 50.38253988221183
    vertex 329.694460364112 302.0358372668572 50.382539882211844
    vertex 327.194460364112 299.5358372668573 50.38253988221183
  endloop
endfacet
facet normal -3.0711272519124335e-15 1.7749370367472808e-30 1.0
  outer loop
    vertex 327.194460364112 299.5358372668573 50.38253988221183
    vertex 329.694460364112 302.0358372668572 50.382539882211844
    vertex 262.194460364112 299.5358372668575 50.38253988221164
  endloop
endfacet
facet normal -3.0711272519124335e-15 1.7749370367472808e-30 1.0
  outer loop
    vertex 259.69446036411165 212.0358372668575 50.38253988221163
    vertex 262.1944603641117 214.53583726685753 50.38253988221164
    vertex 259.694460364112 302.03583726685747 50.38253988221163
  endloop
endfacet
facet normal -3.0711272519124335e-15 1.7749370367472808e-30 1.0
  outer loop
    vertex 262.1944603641117 214.53583726685753 50.38253988221164
    vertex 259.69446036411165 212.0358372668575 50.38253988221163
    vertex 327.19446036411165 214.53583726685721 50.38253988221183
  endloop
endfacet
facet normal -3.0711272519124335e-15 1.7749370367472808e-30 1.0
  outer loop
    vertex 259.694460364112 302.03583726685747 50.38253988221163
    vertex 262.1944603641117 214.53583726685753 50.38253988221164
    vertex 262.194460364112 299.5358372668575 50.38253988221164
  endloop
endfacet
facet normal -3.0711272519124335e-15 1.7749370367472808e-30 1.0
  outer loop
    vertex 259.694460364112 302.03583726685747 50.38253988221163
    vertex 262.194460364112 299.5358372668575 50.38253988221164
    vertex 329.694460364112 302.0358372668572 50.382539882211844
  endloop
endfacet
facet normal 3.8843112375365365e-15 1.0 1.0154277059760887e-29
  outer loop
    vertex 257.1944603641121 304.5358372668576 22.882539882211628
    vertex 332.19446036411205 304.5358372668573 60.38253988221186
    vertex 332.19446036411216 304.5358372668573 22.88253988221186
  endloop
endfacet
facet normal 3.8843112375365365e-15 1.0 1.0154277059760887e-29
  outer loop
    vertex 332.19446036411205 304.5358372668573 60.38253988221186
    vertex 257.1944603641121 304.5358372668576 22.882539882211628
    vertex 257.19446036411205 304.5358372668576 60.38253988221161
  endloop
endfacet
facet normal -3.8843112375365365e-15 -1.0 -1.0154277059760887e-29
  outer loop
    vertex 259.69446036411193 302.03583726685747 60.382539882211624
    vertex 329.694460364112 302.0358372668572 50.382539882211844
    vertex 329.69446036411193 302.0358372668572 60.38253988221184
  endloop
endfacet
facet normal -3.8843112375365365e-15 -1.0 -1.0154277059760887e-29
  outer loop
    vertex 329.694460364112 302.0358372668572 50.382539882211844
    vertex 259.69446036411193 302.03583726685747 60.382539882211624
    vertex 259.694460364112 302.03583726685747 50.38253988221163
  endloop
endfacet
facet normal 3.0711272519124335e-15 -1.7749370367472808e-30 -1.0
  outer loop
    vertex 257.1944603641121 304.5358372668576 22.882539882211628
    vertex 332.19446036411176 209.53583726685727 22.88253988221186
    vertex 257.1944603641118 209.5358372668575 22.882539882211628
  endloop
endfacet
facet normal 3.0711272519124335e-15 -1.7749370367472808e-30 -1.0
  outer loop
    vertex 332.19446036411176 209.53583726685727 22.88253988221186
    vertex 257.1944603641121 304.5358372668576 22.882539882211628
    vertex 332.19446036411216 304.5358372668573 22.88253988221186
  endloop
endfacet
facet normal 1.0 -3.8843112375365365e-15 3.0711272519124335e-15
  outer loop
    vertex 262.194460364112 299.5358372668575 50.38253988221164
    vertex 262.19446036411176 214.53583726685753 25.382539882211642
    vertex 262.19446036411205 299.5358372668575 25.382539882211642
  endloop
endfacet
facet normal 1.0 -3.8843112375365365e-15 3.0711272519124335e-15
  outer loop
    vertex 262.19446036411176 214.53583726685753 25.382539882211642
    vertex 262.194460364112 299.5358372668575 50.38253988221164
    vertex 262.1944603641117 214.53583726685753 50.38253988221164
  endloop
endfacet
facet normal 1.0 -3.8843112375365365e-15 3.0711272519124335e-15
  outer loop
    vertex 259.69446036411193 302.03583726685747 60.382539882211624
    vertex 259.69446036411165 212.0358372668575 50.38253988221163
    vertex 259.694460364112 302.03583726685747 50.38253988221163
  endloop
endfacet
facet normal 1.0 -3.8843112375365365e-15 3.0711272519124335e-15
  outer loop
    vertex 259.69446036411165 212.0358372668575 50.38253988221163
    vertex 259.69446036411193 302.03583726685747 60.382539882211624
    vertex 259.69446036411165 212.0358372668575 60.382539882211624
  endloop
endfacet
facet normal -1.0 3.859429180337584e-15 -3.0711272519124335e-15
  outer loop
    vertex 327.19446036411165 214.53583726685721 50.38253988221183
    vertex 327.1944603641121 299.5358372668573 25.38253988221184
    vertex 327.1944603641118 214.53583726685721 25.38253988221184
  endloop
endfacet
facet normal -1.0 3.859429180337584e-15 -3.0711272519124335e-15
  outer loop
    vertex 327.1944603641121 299.5358372668573 25.38253988221184
    vertex 327.19446036411165 214.53583726685721 50.38253988221183
    vertex 327.194460364112 299.5358372668573 50.38253988221183
  endloop
endfacet
facet normal 1.5912685704358705e-15 -1.7382732094943477e-16 -1.0
  outer loop
    vertex 232.11733760962244 228.37964052847244 8.119205013075101
    vertex 227.11733760962238 225.87964052847246 8.1192050130751
    vertex 224.11733760962244 228.37964052847244 8.119205013075101
  endloop
endfacet
facet normal 1.5912685704358705e-15 -1.7382732094943477e-16 -1.0
  outer loop
    vertex 227.11733760962238 225.87964052847246 8.1192050130751
    vertex 232.11733760962244 228.37964052847244 8.119205013075101
    vertex 248.11733760962235 225.87964052847246 8.119205013075135
  endloop
endfacet
facet normal 1.5912685704358705e-15 -1.7382732094943477e-16 -1.0
  outer loop
    vertex 248.11733760962235 225.87964052847246 8.119205013075135
    vertex 232.11733760962244 228.37964052847244 8.119205013075101
    vertex 233.61733760962233 229.87964052847246 8.119205013075103
  endloop
endfacet
facet normal 1.5912685704358705e-15 -1.7382732094943477e-16 -1.0
  outer loop
    vertex 248.11733760962235 225.87964052847246 8.119205013075135
    vertex 233.61733760962233 229.87964052847246 8.119205013075103
    vertex 240.1173376096224 228.37964052847244 8.119205013075113
  endloop
endfacet
facet normal 1.5912685704358705e-15 -1.7382732094943477e-16 -1.0
  outer loop
    vertex 240.1173376096224 228.37964052847244 8.119205013075113
    vertex 233.61733760962233 229.87964052847246 8.119205013075103
    vertex 238.61733760962227 229.87964052847246 8.119205013075124
  endloop
endfacet
facet normal 1.5912685704358705e-15 -1.7382732094943477e-16 -1.0
  outer loop
    vertex 248.11733760962235 225.87964052847246 8.119205013075135
    vertex 240.1173376096224 228.37964052847244 8.119205013075113
    vertex 248.11733760962235 228.37964052847244 8.119205013075135
  endloop
endfacet
facet normal 1.5912685704358705e-15 -1.7382732094943477e-16 -1.0
  outer loop
    vertex 216.11733760962247 228.37964052847244 8.11920501307508
    vertex 208.11733760962255 225.87964052847246 8.11920501307507
    vertex 208.11733760962255 228.37964052847244 8.11920501307507
  endloop
endfacet
facet normal 1.5912685704358705e-15 -1.7382732094943477e-16 -1.0
  outer loop
    vertex 208.11733760962255 225.87964052847246 8.11920501307507
    vertex 216.11733760962247 228.37964052847244 8.11920501307508
    vertex 219.11733760962235 225.87964052847246 8.119205013075087
  endloop
endfacet
facet normal 1.5912685704358705e-15 -1.7382732094943477e-16 -1.0
  outer loop
    vertex 219.11733760962235 225.87964052847246 8.119205013075087
    vertex 216.11733760962247 228.37964052847244 8.11920501307508
    vertex 217.61733760962235 229.87964052847246 8.119205013075074
  endloop
endfacet
facet normal 1.5912685704358705e-15 -1.7382732094943477e-16 -1.0
  outer loop
    vertex 219.11733760962235 225.87964052847246 8.119205013075087
    vertex 217.61733760962235 229.87964052847246 8.119205013075074
    vertex 222.6173376096223 229.87964052847246 8.119205013075101
  endloop
endfacet
facet normal 1.5912685704358705e-15 -1.7382732094943477e-16 -1.0
  outer loop
    vertex 219.11733760962235 225.87964052847246 8.119205013075087
    vertex 222.6173376096223 229.87964052847246 8.119205013075101
    vertex 219.11733760962235 220.37964052847244 8.119205013075087
  endloop
endfacet
facet normal 1.5912685704358705e-15 -1.7382732094943477e-16 -1.0
  outer loop
    vertex 219.11733760962235 220.37964052847244 8.119205013075087
    vertex 222.6173376096223 229.87964052847246 8.119205013075101
    vertex 227.11733760962238 220.37964052847244 8.119205013075101
  endloop
endfacet
facet normal 1.5912685704358705e-15 -1.7382732094943477e-16 -1.0
  outer loop
    vertex 227.11733760962238 220.37964052847244 8.119205013075101
    vertex 222.6173376096223 229.87964052847246 8.119205013075101
    vertex 224.11733760962244 228.37964052847244 8.119205013075101
  endloop
endfacet
facet normal 1.5912685704358705e-15 -1.7382732094943477e-16 -1.0
  outer loop
    vertex 227.11733760962238 220.37964052847244 8.119205013075101
    vertex 224.11733760962244 228.37964052847244 8.119205013075101
    vertex 227.11733760962238 225.87964052847246 8.1192050130751
  endloop
endfacet
facet normal -1.0 6.586680409804349e-32 -1.582067810090848e-15
  outer loop
    vertex 219.11733760962233 225.87964052847246 28.1192050130751
    vertex 219.11733760962235 220.37964052847244 8.119205013075087
    vertex 219.11733760962233 220.37964052847244 28.1192050130751
  endloop
endfacet
facet normal -1.0 6.586680409804349e-32 -1.582067810090848e-15
  outer loop
    vertex 219.11733760962235 220.37964052847244 8.119205013075087
    vertex 219.11733760962233 225.87964052847246 28.1192050130751
    vertex 219.11733760962235 225.87964052847246 8.119205013075087
  endloop
endfacet
facet normal 0.0 -1.0 -4.163336342344338e-17
  outer loop
    vertex 227.11733760962235 220.37964052847244 28.11920501307511
    vertex 219.11733760962235 220.37964052847244 8.119205013075087
    vertex 227.11733760962238 220.37964052847244 8.119205013075101
  endloop
endfacet
facet normal 0.0 -1.0 -4.163336342344338e-17
  outer loop
    vertex 219.11733760962235 220.37964052847244 8.119205013075087
    vertex 227.11733760962235 220.37964052847244 28.11920501307511
    vertex 219.11733760962233 220.37964052847244 28.1192050130751
  endloop
endfacet
facet normal -1.582067810090848e-15 -4.163336342344338e-17 1.0
  outer loop
    vertex 227.11733760962235 220.37964052847244 28.11920501307511
    vertex 219.11733760962233 225.87964052847246 28.1192050130751
    vertex 219.11733760962233 220.37964052847244 28.1192050130751
  endloop
endfacet
facet normal -1.582067810090848e-15 -4.163336342344338e-17 1.0
  outer loop
    vertex 219.11733760962233 225.87964052847246 28.1192050130751
    vertex 227.11733760962235 220.37964052847244 28.11920501307511
    vertex 227.11733760962235 225.87964052847246 28.11920501307511
  endloop
endfacet
facet normal 1.0 -6.586680409804349e-32 1.582067810090848e-15
  outer loop
    vertex 227.11733760962238 225.87964052847246 8.1192050130751
    vertex 227.11733760962235 220.37964052847244 28.11920501307511
    vertex 227.11733760962238 220.37964052847244 8.119205013075101
  endloop
endfacet
facet normal 1.0 -6.586680409804349e-32 1.582067810090848e-15
  outer loop
    vertex 227.11733760962235 220.37964052847244 28.11920501307511
    vertex 227.11733760962238 225.87964052847246 8.1192050130751
    vertex 227.11733760962235 225.87964052847246 28.11920501307511
  endloop
endfacet
facet normal 0.0 -1.0 -4.163336342344338e-17
  outer loop
    vertex 248.11733760962235 225.87964052847246 8.119205013075135
    vertex 227.11733760962235 225.87964052847246 28.11920501307511
    vertex 227.11733760962238 225.87964052847246 8.1192050130751
  endloop
endfacet
facet normal 0.0 -1.0 -4.163336342344338e-17
  outer loop
    vertex 227.11733760962235 225.87964052847246 28.11920501307511
    vertex 248.11733760962235 225.87964052847246 8.119205013075135
    vertex 248.11733760962227 225.87964052847246 88.11920501307506
  endloop
endfacet
facet normal 0.0 -1.0 -4.163336342344338e-17
  outer loop
    vertex 219.11733760962233 225.87964052847246 28.1192050130751
    vertex 208.11733760962255 225.87964052847246 8.11920501307507
    vertex 219.11733760962235 225.87964052847246 8.119205013075087
  endloop
endfacet
facet normal 0.0 -1.0 -4.163336342344338e-17
  outer loop
    vertex 208.11733760962255 225.87964052847246 8.11920501307507
    vertex 219.11733760962233 225.87964052847246 28.1192050130751
    vertex 208.11733760962224 225.87964052847246 88.11920501307502
  endloop
endfacet
facet normal 0.0 -1.0 -4.163336342344338e-17
  outer loop
    vertex 208.11733760962224 225.87964052847246 88.11920501307502
    vertex 219.11733760962233 225.87964052847246 28.1192050130751
    vertex 227.11733760962235 225.87964052847246 28.11920501307511
  endloop
endfacet
facet normal 0.0 -1.0 -4.163336342344338e-17
  outer loop
    vertex 208.11733760962224 225.87964052847246 88.11920501307502
    vertex 227.11733760962235 225.87964052847246 28.11920501307511
    vertex 248.11733760962227 225.87964052847246 88.11920501307506
  endloop
endfacet
facet normal -1.0 -2.675378509203768e-15 -2.707754971959625e-15
  outer loop
    vertex 208.11733760962224 228.37964052847244 88.11920501307502
    vertex 208.11733760962255 225.87964052847246 8.11920501307507
    vertex 208.11733760962224 225.87964052847246 88.11920501307502
  endloop
endfacet
facet normal -1.0 -2.675378509203768e-15 -2.707754971959625e-15
  outer loop
    vertex 208.11733760962255 225.87964052847246 8.11920501307507
    vertex 208.11733760962224 228.37964052847244 88.11920501307502
    vertex 208.11733760962255 228.37964052847244 8.11920501307507
  endloop
endfacet
facet normal 1.0 0.0 1.1279865930191602e-15
  outer loop
    vertex 248.11733760962235 228.37964052847244 8.119205013075135
    vertex 248.11733760962227 225.87964052847246 88.11920501307506
    vertex 248.11733760962235 225.87964052847246 8.119205013075135
  endloop
endfacet
facet normal 1.0 0.0 1.1279865930191602e-15
  outer loop
    vertex 248.11733760962227 225.87964052847246 88.11920501307506
    vertex 248.11733760962235 228.37964052847244 8.119205013075135
    vertex 248.11733760962227 228.37964052847244 88.11920501307506
  endloop
endfacet
facet normal 0.0 1.0 0.0
  outer loop
    vertex 240.11733760962227 228.37964052847244 88.11920501307503
    vertex 248.11733760962235 228.37964052847244 8.119205013075135
    vertex 240.1173376096224 228.37964052847244 8.119205013075113
  endloop
endfacet
facet normal 0.0 1.0 0.0
  outer loop
    vertex 248.11733760962235 228.37964052847244 8.119205013075135
    vertex 240.11733760962227 228.37964052847244 88.11920501307503
    vertex 248.11733760962227 228.37964052847244 88.11920501307506
  endloop
endfacet
facet normal 0.0 1.0 0.0
  outer loop
    vertex 224.11733760962244 228.37964052847244 8.119205013075101
    vertex 232.1173376096223 228.37964052847244 88.11920501307503
    vertex 232.11733760962244 228.37964052847244 8.119205013075101
  endloop
endfacet
facet normal 0.0 1.0 0.0
  outer loop
    vertex 232.1173376096223 228.37964052847244 88.11920501307503
    vertex 224.11733760962244 228.37964052847244 8.119205013075101
    vertex 224.1173376096223 228.37964052847244 88.11920501307502
  endloop
endfacet
facet normal 0.0 1.0 0.0
  outer loop
    vertex 208.11733760962255 228.37964052847244 8.11920501307507
    vertex 216.11733760962233 228.37964052847244 88.11920501307502
    vertex 216.11733760962247 228.37964052847244 8.11920501307508
  endloop
endfacet
facet normal 0.0 1.0 0.0
  outer loop
    vertex 216.11733760962233 228.37964052847244 88.11920501307502
    vertex 208.11733760962255 228.37964052847244 8.11920501307507
    vertex 208.11733760962224 228.37964052847244 88.11920501307502
  endloop
endfacet
facet normal 0.0 1.0 0.0
  outer loop
    vertex 217.61733760962235 229.87964052847246 88.11920501307502
    vertex 222.6173376096223 229.87964052847246 8.119205013075101
    vertex 217.61733760962235 229.87964052847246 8.119205013075074
  endloop
endfacet
facet normal 0.0 1.0 0.0
  outer loop
    vertex 222.6173376096223 229.87964052847246 8.119205013075101
    vertex 217.61733760962235 229.87964052847246 88.11920501307502
    vertex 222.6173376096223 229.87964052847246 88.11920501307502
  endloop
endfacet
facet normal -1.1479736339677037e-15 2.8089938503201036e-15 1.0
  outer loop
    vertex 248.11733760962227 225.87964052847246 88.11920501307506
    vertex 208.11733760962224 228.37964052847244 88.11920501307502
    vertex 208.11733760962224 225.87964052847246 88.11920501307502
  endloop
endfacet
facet normal -1.1479736339677037e-15 2.8089938503201036e-15 1.0
  outer loop
    vertex 208.11733760962224 228.37964052847244 88.11920501307502
    vertex 248.11733760962227 225.87964052847246 88.11920501307506
    vertex 216.11733760962233 228.37964052847244 88.11920501307502
  endloop
endfacet
facet normal -1.1479736339677037e-15 2.8089938503201036e-15 1.0
  outer loop
    vertex 216.11733760962233 228.37964052847244 88.11920501307502
    vertex 248.11733760962227 225.87964052847246 88.11920501307506
    vertex 224.1173376096223 228.37964052847244 88.11920501307502
  endloop
endfacet
facet normal -1.1479736339677037e-15 2.8089938503201036e-15 1.0
  outer loop
    vertex 216.11733760962233 228.37964052847244 88.11920501307502
    vertex 224.1173376096223 228.37964052847244 88.11920501307502
    vertex 217.61733760962235 229.87964052847246 88.11920501307502
  endloop
endfacet
facet normal -1.1479736339677037e-15 2.8089938503201036e-15 1.0
  outer loop
    vertex 217.61733760962235 229.87964052847246 88.11920501307502
    vertex 224.1173376096223 228.37964052847244 88.11920501307502
    vertex 222.6173376096223 229.87964052847246 88.11920501307502
  endloop
endfacet
facet normal -1.1479736339677037e-15 2.8089938503201036e-15 1.0
  outer loop
    vertex 224.1173376096223 228.37964052847244 88.11920501307502
    vertex 248.11733760962227 225.87964052847246 88.11920501307506
    vertex 232.1173376096223 228.37964052847244 88.11920501307503
  endloop
endfacet
facet normal -1.1479736339677037e-15 2.8089938503201036e-15 1.0
  outer loop
    vertex 232.1173376096223 228.37964052847244 88.11920501307503
    vertex 248.11733760962227 225.87964052847246 88.11920501307506
    vertex 233.61733760962233 229.87964052847246 88.11920501307503
  endloop
endfacet
facet normal -1.1479736339677037e-15 2.8089938503201036e-15 1.0
  outer loop
    vertex 233.61733760962233 229.87964052847246 88.11920501307503
    vertex 248.11733760962227 225.87964052847246 88.11920501307506
    vertex 240.11733760962227 228.37964052847244 88.11920501307503
  endloop
endfacet
facet normal -1.1479736339677037e-15 2.8089938503201036e-15 1.0
  outer loop
    vertex 233.61733760962233 229.87964052847246 88.11920501307503
    vertex 240.11733760962227 228.37964052847244 88.11920501307503
    vertex 238.61733760962227 229.87964052847246 88.11920501307503
  endloop
endfacet
facet normal -1.1479736339677037e-15 2.8089938503201036e-15 1.0
  outer loop
    vertex 240.11733760962227 228.37964052847244 88.11920501307503
    vertex 248.11733760962227 225.87964052847246 88.11920501307506
    vertex 248.11733760962227 228.37964052847244 88.11920501307506
  endloop
endfacet
facet normal 0.7071067811865316 0.7071067811865634 5.984778463279923e-16
  outer loop
    vertex 238.61733760962227 229.87964052847246 8.119205013075124
    vertex 240.11733760962227 228.37964052847244 88.11920501307503
    vertex 240.1173376096224 228.37964052847244 8.119205013075113
  endloop
endfacet
facet normal 0.7071067811865316 0.7071067811865634 5.984778463279923e-16
  outer loop
    vertex 240.11733760962227 228.37964052847244 88.11920501307503
    vertex 238.61733760962227 229.87964052847246 8.119205013075124
    vertex 238.61733760962227 229.87964052847246 88.11920501307503
  endloop
endfacet
facet normal 0.7071067811865316 0.7071067811865634 5.984778463279923e-16
  outer loop
    vertex 222.6173376096223 229.87964052847246 8.119205013075101
    vertex 224.1173376096223 228.37964052847244 88.11920501307502
    vertex 224.11733760962244 228.37964052847244 8.119205013075101
  endloop
endfacet
facet normal 0.7071067811865316 0.7071067811865634 5.984778463279923e-16
  outer loop
    vertex 224.1173376096223 228.37964052847244 88.11920501307502
    vertex 222.6173376096223 229.87964052847246 8.119205013075101
    vertex 222.6173376096223 229.87964052847246 88.11920501307502
  endloop
endfacet
facet normal -0.7071067811865634 0.7071067811865316 -5.979832365376649e-16
  outer loop
    vertex 233.61733760962233 229.87964052847246 88.11920501307503
    vertex 232.11733760962244 228.37964052847244 8.119205013075101
    vertex 232.1173376096223 228.37964052847244 88.11920501307503
  endloop
endfacet
facet normal -0.7071067811865634 0.7071067811865316 -5.979832365376649e-16
  outer loop
    vertex 232.11733760962244 228.37964052847244 8.119205013075101
    vertex 233.61733760962233 229.87964052847246 88.11920501307503
    vertex 233.61733760962233 229.87964052847246 8.119205013075103
  endloop
endfacet
facet normal 0.0 1.0 0.0
  outer loop
    vertex 233.61733760962233 229.87964052847246 88.11920501307503
    vertex 238.61733760962227 229.87964052847246 8.119205013075124
    vertex 233.61733760962233 229.87964052847246 8.119205013075103
  endloop
endfacet
facet normal 0.0 1.0 0.0
  outer loop
    vertex 238.61733760962227 229.87964052847246 8.119205013075124
    vertex 233.61733760962233 229.87964052847246 88.11920501307503
    vertex 238.61733760962227 229.87964052847246 88.11920501307503
  endloop
endfacet
facet normal -0.7071067811865634 0.7071067811865316 -5.97983236537665e-16
  outer loop
    vertex 217.61733760962235 229.87964052847246 88.11920501307502
    vertex 216.11733760962247 228.37964052847244 8.11920501307508
    vertex 216.11733760962233 228.37964052847244 88.11920501307502
  endloop
endfacet
facet normal -0.7071067811865634 0.7071067811865316 -5.97983236537665e-16
  outer loop
    vertex 216.11733760962247 228.37964052847244 8.11920501307508
    vertex 217.61733760962235 229.87964052847246 88.11920501307502
    vertex 217.61733760962235 229.87964052847246 8.119205013075074
  endloop
endfacet
facet normal -4.214682624711865e-08 0.9999999999999991 -5.551115123125783e-17
  outer loop
    vertex 214.7251028427738 285.214150476216 31.046872161523066
    vertex 247.72510284277374 285.2141518670614 33.84687216152306
    vertex 247.72510284277374 285.2141518670614 31.046872161523066
  endloop
endfacet
facet normal -4.214682624711865e-08 0.9999999999999991 -5.551115123125783e-17
  outer loop
    vertex 247.72510284277374 285.2141518670614 33.84687216152306
    vertex 214.7251028427738 285.214150476216 31.046872161523066
    vertex 214.7251028427738 285.214150476216 33.84687216152306
  endloop
endfacet
facet normal 0.9999999999999991 4.214682624711865e-08 1.3073299375966007e-22
  outer loop
    vertex 247.72510237915867 296.21415186706133 31.046872161523055
    vertex 247.72510423361902 252.21415186706142 31.046872161523055
    vertex 247.72510237915867 296.21415186706133 29.246872161523086
  endloop
endfacet
facet normal 0.9999999999999991 4.214682624711865e-08 1.3073299375966007e-22
  outer loop
    vertex 247.72510423361902 252.21415186706142 31.046872161523055
    vertex 247.72510237915867 296.21415186706133 31.046872161523055
    vertex 247.72510284277374 285.2141518670614 31.046872161523066
  endloop
endfacet
facet normal 0.9999999999999991 4.214682624711865e-08 1.3073299375966007e-22
  outer loop
    vertex 247.72510423361902 252.21415186706142 31.046872161523055
    vertex 247.72510284277374 285.2141518670614 31.046872161523066
    vertex 247.72510423361902 252.21415186706142 33.84687216152305
  endloop
endfacet
facet normal 0.9999999999999991 4.214682624711865e-08 1.3073299375966007e-22
  outer loop
    vertex 247.72510423361902 252.21415186706142 33.84687216152305
    vertex 247.72510284277374 285.2141518670614 31.046872161523066
    vertex 247.72510284277374 285.2141518670614 33.84687216152306
  endloop
endfacet
facet normal 0.9999999999999991 4.214682624711865e-08 1.3073299375966007e-22
  outer loop
    vertex 247.72510423361902 252.21415186706142 33.84687216152305
    vertex 247.72510284277374 285.2141518670614 33.84687216152306
    vertex 247.72510339068248 272.21415186706133 33.84687216152306
  endloop
endfacet
facet normal 0.9999999999999991 4.214682624711865e-08 1.3073299375966007e-22
  outer loop
    vertex 247.72510339068248 272.21415186706133 33.84687216152306
    vertex 247.72510284277374 285.2141518670614 33.84687216152306
    vertex 247.7251032853154 274.71415186706145 33.84687216152306
  endloop
endfacet
facet normal 0.9999999999999991 4.214682624711865e-08 1.3073299375966007e-22
  outer loop
    vertex 247.72510339068248 272.21415186706133 33.84687216152306
    vertex 247.7251032853154 274.71415186706145 33.84687216152306
    vertex 247.7251032853154 274.71415186706145 38.84687216152305
  endloop
endfacet
facet normal 0.9999999999999991 4.214682624711865e-08 1.3073299375966007e-22
  outer loop
    vertex 247.72510339068248 272.21415186706133 33.84687216152306
    vertex 247.7251032853154 274.71415186706145 38.84687216152305
    vertex 247.72510339068248 272.21415186706133 38.84687216152305
  endloop
endfacet
facet normal 0.9999999999999991 4.214682624711865e-08 1.3073299375966007e-22
  outer loop
    vertex 247.72510237915867 296.21415186706133 29.246872161523086
    vertex 247.7251044022063 248.2141518670614 31.046872161523055
    vertex 247.7251044022063 248.2141518670614 29.246872161523058
  endloop
endfacet
facet normal 0.9999999999999991 4.214682624711865e-08 1.3073299375966007e-22
  outer loop
    vertex 247.7251044022063 248.2141518670614 31.046872161523055
    vertex 247.72510237915867 296.21415186706133 29.246872161523086
    vertex 247.72510423361902 252.21415186706142 31.046872161523055
  endloop
endfacet
facet normal -0.9999999999999991 -4.214682624711865e-08 -1.3073299375966007e-22
  outer loop
    vertex 214.7251033906825 272.21415047621605 38.84687216152305
    vertex 214.72510328531547 274.7141504762161 33.84687216152306
    vertex 214.7251033906825 272.21415047621605 33.84687216152306
  endloop
endfacet
facet normal -0.9999999999999991 -4.214682624711865e-08 -1.3073299375966007e-22
  outer loop
    vertex 214.72510328531547 274.7141504762161 33.84687216152306
    vertex 214.7251033906825 272.21415047621605 38.84687216152305
    vertex 214.72510328531547 274.7141504762161 38.84687216152305
  endloop
endfacet
facet normal -0.9999999999999991 -4.214682624711865e-08 -1.3073299375966007e-22
  outer loop
    vertex 214.72510440220634 248.21415047621602 31.046872161523055
    vertex 214.72510237915873 296.21415047621605 29.246872161523086
    vertex 214.72510440220634 248.21415047621602 29.246872161523058
  endloop
endfacet
facet normal -0.9999999999999991 -4.214682624711865e-08 -1.3073299375966007e-22
  outer loop
    vertex 214.72510237915873 296.21415047621605 29.246872161523086
    vertex 214.72510440220634 248.21415047621602 31.046872161523055
    vertex 214.72510423361913 252.21415047621613 31.046872161523055
  endloop
endfacet
facet normal -0.9999999999999991 -4.214682624711865e-08 -1.3073299375966007e-22
  outer loop
    vertex 214.72510237915873 296.21415047621605 29.246872161523086
    vertex 214.72510423361913 252.21415047621613 31.046872161523055
    vertex 214.72510237915873 296.21415047621605 31.046872161523055
  endloop
endfacet
facet normal -0.9999999999999991 -4.214682624711865e-08 -1.3073299375966007e-22
  outer loop
    vertex 214.72510237915873 296.21415047621605 31.046872161523055
    vertex 214.72510423361913 252.21415047621613 31.046872161523055
    vertex 214.7251028427738 285.214150476216 31.046872161523066
  endloop
endfacet
facet normal -0.9999999999999991 -4.214682624711865e-08 -1.3073299375966007e-22
  outer loop
    vertex 214.7251028427738 285.214150476216 31.046872161523066
    vertex 214.72510423361913 252.21415047621613 31.046872161523055
    vertex 214.72510423361913 252.21415047621613 33.84687216152305
  endloop
endfacet
facet normal -0.9999999999999991 -4.214682624711865e-08 -1.3073299375966007e-22
  outer loop
    vertex 214.7251028427738 285.214150476216 31.046872161523066
    vertex 214.72510423361913 252.21415047621613 33.84687216152305
    vertex 214.7251028427738 285.214150476216 33.84687216152306
  endloop
endfacet
facet normal -0.9999999999999991 -4.214682624711865e-08 -1.3073299375966007e-22
  outer loop
    vertex 214.7251028427738 285.214150476216 33.84687216152306
    vertex 214.72510423361913 252.21415047621613 33.84687216152305
    vertex 214.7251033906825 272.21415047621605 33.84687216152306
  endloop
endfacet
facet normal -0.9999999999999991 -4.214682624711865e-08 -1.3073299375966007e-22
  outer loop
    vertex 214.7251028427738 285.214150476216 33.84687216152306
    vertex 214.7251033906825 272.21415047621605 33.84687216152306
    vertex 214.72510328531547 274.7141504762161 33.84687216152306
  endloop
endfacet
facet normal -1.330726126053813e-22 5.551115123125227e-17 1.0
  outer loop
    vertex 247.72510284277374 285.2141518670614 31.046872161523066
    vertex 214.72510237915873 296.21415047621605 31.046872161523055
    vertex 214.7251028427738 285.214150476216 31.046872161523066
  endloop
endfacet
facet normal -1.330726126053813e-22 5.551115123125227e-17 1.0
  outer loop
    vertex 214.72510237915873 296.21415047621605 31.046872161523055
    vertex 247.72510284277374 285.2141518670614 31.046872161523066
    vertex 247.72510237915867 296.21415186706133 31.046872161523055
  endloop
endfacet
facet normal 1.330726126053813e-22 -5.551115123125227e-17 -1.0
  outer loop
    vertex 214.72510237915873 296.21415047621605 29.246872161523086
    vertex 247.7251044022063 248.2141518670614 29.246872161523058
    vertex 214.72510440220634 248.21415047621602 29.246872161523058
  endloop
endfacet
facet normal 1.330726126053813e-22 -5.551115123125227e-17 -1.0
  outer loop
    vertex 247.7251044022063 248.2141518670614 29.246872161523058
    vertex 214.72510237915873 296.21415047621605 29.246872161523086
    vertex 247.72510237915867 296.21415186706133 29.246872161523086
  endloop
endfacet
facet normal 4.214682624711865e-08 -0.9999999999999991 5.551115123125783e-17
  outer loop
    vertex 214.72510440220634 248.21415047621602 31.046872161523055
    vertex 247.7251044022063 248.2141518670614 29.246872161523058
    vertex 247.7251044022063 248.2141518670614 31.046872161523055
  endloop
endfacet
facet normal 4.214682624711865e-08 -0.9999999999999991 5.551115123125783e-17
  outer loop
    vertex 247.7251044022063 248.2141518670614 29.246872161523058
    vertex 214.72510440220634 248.21415047621602 31.046872161523055
    vertex 214.72510440220634 248.21415047621602 29.246872161523058
  endloop
endfacet
facet normal -1.330726126053813e-22 5.551115123125227e-17 1.0
  outer loop
    vertex 247.7251044022063 248.2141518670614 31.046872161523055
    vertex 214.72510423361913 252.21415047621613 31.046872161523055
    vertex 214.72510440220634 248.21415047621602 31.046872161523055
  endloop
endfacet
facet normal -1.330726126053813e-22 5.551115123125227e-17 1.0
  outer loop
    vertex 214.72510423361913 252.21415047621613 31.046872161523055
    vertex 247.7251044022063 248.2141518670614 31.046872161523055
    vertex 247.72510423361902 252.21415186706142 31.046872161523055
  endloop
endfacet
facet normal -1.330726126053813e-22 5.551115123125227e-17 1.0
  outer loop
    vertex 247.7251032853154 274.71415186706145 33.84687216152306
    vertex 214.7251028427738 285.214150476216 33.84687216152306
    vertex 214.72510328531547 274.7141504762161 33.84687216152306
  endloop
endfacet
facet normal -1.330726126053813e-22 5.551115123125227e-17 1.0
  outer loop
    vertex 214.7251028427738 285.214150476216 33.84687216152306
    vertex 247.7251032853154 274.71415186706145 33.84687216152306
    vertex 247.72510284277374 285.2141518670614 33.84687216152306
  endloop
endfacet
facet normal 4.214682624711865e-08 -0.9999999999999991 5.551115123125783e-17
  outer loop
    vertex 214.72510423361913 252.21415047621613 33.84687216152305
    vertex 247.72510423361902 252.21415186706142 31.046872161523055
    vertex 247.72510423361902 252.21415186706142 33.84687216152305
  endloop
endfacet
facet normal 4.214682624711865e-08 -0.9999999999999991 5.551115123125783e-17
  outer loop
    vertex 247.72510423361902 252.21415186706142 31.046872161523055
    vertex 214.72510423361913 252.21415047621613 33.84687216152305
    vertex 214.72510423361913 252.21415047621613 31.046872161523055
  endloop
endfacet
facet normal -4.214682624711865e-08 0.9999999999999991 -5.551115123125783e-17
  outer loop
    vertex 214.72510237915873 296.21415047621605 29.246872161523086
    vertex 247.72510237915867 296.21415186706133 31.046872161523055
    vertex 247.72510237915867 296.21415186706133 29.246872161523086
  endloop
endfacet
facet normal -4.214682624711865e-08 0.9999999999999991 -5.551115123125783e-17
  outer loop
    vertex 247.72510237915867 296.21415186706133 31.046872161523055
    vertex 214.72510237915873 296.21415047621605 29.246872161523086
    vertex 214.72510237915873 296.21415047621605 31.046872161523055
  endloop
endfacet
facet normal 4.214682624711865e-08 -0.9999999999999991 5.551115123125783e-17
  outer loop
    vertex 214.7251033906825 272.21415047621605 38.84687216152305
    vertex 247.72510339068248 272.21415186706133 33.84687216152306
    vertex 247.72510339068248 272.21415186706133 38.84687216152305
  endloop
endfacet
facet normal 4.214682624711865e-08 -0.9999999999999991 5.551115123125783e-17
  outer loop
    vertex 247.72510339068248 272.21415186706133 33.84687216152306
    vertex 214.7251033906825 272.21415047621605 38.84687216152305
    vertex 214.7251033906825 272.21415047621605 33.84687216152306
  endloop
endfacet
facet normal -1.330726126053813e-22 5.551115123125227e-17 1.0
  outer loop
    vertex 247.72510339068248 272.21415186706133 33.84687216152306
    vertex 214.72510423361913 252.21415047621613 33.84687216152305
    vertex 247.72510423361902 252.21415186706142 33.84687216152305
  endloop
endfacet
facet normal -1.330726126053813e-22 5.551115123125227e-17 1.0
  outer loop
    vertex 214.72510423361913 252.21415047621613 33.84687216152305
    vertex 247.72510339068248 272.21415186706133 33.84687216152306
    vertex 214.7251033906825 272.21415047621605 33.84687216152306
  endloop
endfacet
facet normal -1.330726126053813e-22 5.551115123125227e-17 1.0
  outer loop
    vertex 247.72510339068248 272.21415186706133 38.84687216152305
    vertex 214.72510328531547 274.7141504762161 38.84687216152305
    vertex 214.7251033906825 272.21415047621605 38.84687216152305
  endloop
endfacet
facet normal -1.330726126053813e-22 5.551115123125227e-17 1.0
  outer loop
    vertex 214.72510328531547 274.7141504762161 38.84687216152305
    vertex 247.72510339068248 272.21415186706133 38.84687216152305
    vertex 247.7251032853154 274.71415186706145 38.84687216152305
  endloop
endfacet
facet normal -4.214682624711865e-08 0.9999999999999991 -5.551115123125783e-17
  outer loop
    vertex 214.72510328531547 274.7141504762161 33.84687216152306
    vertex 247.7251032853154 274.71415186706145 38.84687216152305
    vertex 247.7251032853154 274.71415186706145 33.84687216152306
  endloop
endfacet
facet normal -4.214682624711865e-08 0.9999999999999991 -5.551115123125783e-17
  outer loop
    vertex 247.7251032853154 274.71415186706145 38.84687216152305
    vertex 214.72510328531547 274.7141504762161 33.84687216152306
    vertex 214.72510328531547 274.7141504762161 38.84687216152305
  endloop
endfacet
endsolid vr-version3
