G75*
%MOIN*%
%OFA0B0*%
%FSLAX25Y25*%
%IPPOS*%
%LPD*%
%AMOC8*
5,1,8,0,0,1.08239X$1,22.5*
%
%ADD10C,0.12411*%
%ADD11OC8,0.06000*%
%ADD12C,0.06000*%
%ADD13R,0.04900X0.06100*%
%ADD14R,0.01781X0.06899*%
%ADD15R,0.06899X0.01781*%
%ADD16C,0.06600*%
%ADD17R,0.05718X0.02765*%
%ADD18R,0.02765X0.05718*%
%ADD19R,0.06102X0.01378*%
%ADD20R,0.05718X0.06506*%
%ADD21C,0.03500*%
D10*
X0011500Y0013300D03*
X0011300Y0242000D03*
X0247200Y0242500D03*
X0247200Y0013300D03*
D11*
X0179800Y0058800D03*
X0179800Y0068800D03*
X0169800Y0068800D03*
X0169800Y0058800D03*
X0159800Y0058800D03*
X0159800Y0068800D03*
X0149800Y0068800D03*
X0149800Y0058800D03*
X0139800Y0058800D03*
X0129800Y0058800D03*
X0129800Y0068800D03*
X0139800Y0068800D03*
D12*
X0115300Y0066000D02*
X0115300Y0060600D01*
X0105300Y0060600D02*
X0105300Y0066000D01*
X0092800Y0066500D02*
X0092800Y0061100D01*
X0082800Y0061100D02*
X0082800Y0066500D01*
X0058500Y0067800D02*
X0053100Y0067800D01*
X0053100Y0075800D02*
X0058500Y0075800D01*
X0058500Y0085800D02*
X0053100Y0085800D01*
X0053100Y0093800D02*
X0058500Y0093800D01*
X0058500Y0103800D02*
X0053100Y0103800D01*
X0053100Y0111800D02*
X0058500Y0111800D01*
X0058500Y0121800D02*
X0053100Y0121800D01*
X0054100Y0141300D02*
X0059500Y0141300D01*
X0059500Y0151300D02*
X0054100Y0151300D01*
X0054100Y0162800D02*
X0059500Y0162800D01*
X0059500Y0172800D02*
X0054100Y0172800D01*
X0059638Y0202820D02*
X0055820Y0206638D01*
X0062891Y0213709D02*
X0066709Y0209891D01*
X0073780Y0216962D02*
X0069962Y0220780D01*
X0108300Y0224100D02*
X0108300Y0229500D01*
X0118300Y0229500D02*
X0118300Y0224100D01*
X0152800Y0230100D02*
X0152800Y0235500D01*
X0162800Y0235500D02*
X0162800Y0230100D01*
X0172800Y0230100D02*
X0172800Y0235500D01*
X0182800Y0235500D02*
X0182800Y0230100D01*
X0183300Y0216000D02*
X0183300Y0210600D01*
X0173300Y0210600D02*
X0173300Y0216000D01*
X0163300Y0216000D02*
X0163300Y0210600D01*
X0153300Y0210600D02*
X0153300Y0216000D01*
X0201100Y0192300D02*
X0206500Y0192300D01*
X0206500Y0182300D02*
X0201100Y0182300D01*
X0201100Y0162300D02*
X0206500Y0162300D01*
X0206500Y0152300D02*
X0201100Y0152300D01*
X0201100Y0142300D02*
X0206500Y0142300D01*
X0206500Y0131300D02*
X0201100Y0131300D01*
X0201100Y0121300D02*
X0206500Y0121300D01*
X0206500Y0111300D02*
X0201100Y0111300D01*
X0221100Y0111800D02*
X0226500Y0111800D01*
X0226500Y0121800D02*
X0221100Y0121800D01*
X0221100Y0131800D02*
X0226500Y0131800D01*
X0226500Y0141800D02*
X0221100Y0141800D01*
X0221300Y0151700D02*
X0226700Y0151700D01*
X0226700Y0161700D02*
X0221300Y0161700D01*
X0221100Y0172800D02*
X0226500Y0172800D01*
X0226500Y0182800D02*
X0221100Y0182800D01*
X0221100Y0192800D02*
X0226500Y0192800D01*
X0226500Y0202800D02*
X0221100Y0202800D01*
X0058500Y0057800D02*
X0053100Y0057800D01*
X0036000Y0036300D02*
X0030600Y0036300D01*
X0030600Y0026300D02*
X0036000Y0026300D01*
X0129800Y0030100D02*
X0129800Y0035500D01*
X0139800Y0035500D02*
X0139800Y0030100D01*
X0149800Y0030100D02*
X0149800Y0035500D01*
X0161300Y0035000D02*
X0161300Y0029600D01*
X0171300Y0029600D02*
X0171300Y0035000D01*
X0181300Y0035000D02*
X0181300Y0029600D01*
X0192300Y0029100D02*
X0192300Y0034500D01*
X0202300Y0034500D02*
X0202300Y0029100D01*
D13*
G36*
X0049992Y0209295D02*
X0046527Y0212760D01*
X0050840Y0217073D01*
X0054305Y0213608D01*
X0049992Y0209295D01*
G37*
G36*
X0044760Y0214527D02*
X0041295Y0217992D01*
X0045608Y0222305D01*
X0049073Y0218840D01*
X0044760Y0214527D01*
G37*
G36*
X0059760Y0227527D02*
X0056295Y0230992D01*
X0060608Y0235305D01*
X0064073Y0231840D01*
X0059760Y0227527D01*
G37*
G36*
X0064992Y0222295D02*
X0061527Y0225760D01*
X0065840Y0230073D01*
X0069305Y0226608D01*
X0064992Y0222295D01*
G37*
D14*
G36*
X0113142Y0172334D02*
X0114401Y0173593D01*
X0119278Y0168716D01*
X0118019Y0167457D01*
X0113142Y0172334D01*
G37*
G36*
X0111750Y0170942D02*
X0113009Y0172201D01*
X0117886Y0167324D01*
X0116627Y0166065D01*
X0111750Y0170942D01*
G37*
G36*
X0110358Y0169550D02*
X0111617Y0170809D01*
X0116494Y0165932D01*
X0115235Y0164673D01*
X0110358Y0169550D01*
G37*
G36*
X0108966Y0168158D02*
X0110225Y0169417D01*
X0115102Y0164540D01*
X0113843Y0163281D01*
X0108966Y0168158D01*
G37*
G36*
X0107574Y0166767D02*
X0108833Y0168026D01*
X0113710Y0163149D01*
X0112451Y0161890D01*
X0107574Y0166767D01*
G37*
G36*
X0106183Y0165375D02*
X0107442Y0166634D01*
X0112319Y0161757D01*
X0111060Y0160498D01*
X0106183Y0165375D01*
G37*
G36*
X0104791Y0163983D02*
X0106050Y0165242D01*
X0110927Y0160365D01*
X0109668Y0159106D01*
X0104791Y0163983D01*
G37*
G36*
X0103399Y0162591D02*
X0104658Y0163850D01*
X0109535Y0158973D01*
X0108276Y0157714D01*
X0103399Y0162591D01*
G37*
G36*
X0102007Y0161199D02*
X0103266Y0162458D01*
X0108143Y0157581D01*
X0106884Y0156322D01*
X0102007Y0161199D01*
G37*
G36*
X0100615Y0159807D02*
X0101874Y0161066D01*
X0106751Y0156189D01*
X0105492Y0154930D01*
X0100615Y0159807D01*
G37*
G36*
X0099223Y0158415D02*
X0100482Y0159674D01*
X0105359Y0154797D01*
X0104100Y0153538D01*
X0099223Y0158415D01*
G37*
G36*
X0097831Y0157023D02*
X0099090Y0158282D01*
X0103967Y0153405D01*
X0102708Y0152146D01*
X0097831Y0157023D01*
G37*
G36*
X0096439Y0155631D02*
X0097698Y0156890D01*
X0102575Y0152013D01*
X0101316Y0150754D01*
X0096439Y0155631D01*
G37*
G36*
X0095047Y0154239D02*
X0096306Y0155498D01*
X0101183Y0150621D01*
X0099924Y0149362D01*
X0095047Y0154239D01*
G37*
G36*
X0093655Y0152847D02*
X0094914Y0154106D01*
X0099791Y0149229D01*
X0098532Y0147970D01*
X0093655Y0152847D01*
G37*
G36*
X0092263Y0151455D02*
X0093522Y0152714D01*
X0098399Y0147837D01*
X0097140Y0146578D01*
X0092263Y0151455D01*
G37*
G36*
X0090871Y0150063D02*
X0092130Y0151322D01*
X0097007Y0146445D01*
X0095748Y0145186D01*
X0090871Y0150063D01*
G37*
G36*
X0114534Y0173726D02*
X0115793Y0174985D01*
X0120670Y0170108D01*
X0119411Y0168849D01*
X0114534Y0173726D01*
G37*
G36*
X0115926Y0175118D02*
X0117185Y0176377D01*
X0122062Y0171500D01*
X0120803Y0170241D01*
X0115926Y0175118D01*
G37*
G36*
X0117318Y0176510D02*
X0118577Y0177769D01*
X0123454Y0172892D01*
X0122195Y0171633D01*
X0117318Y0176510D01*
G37*
G36*
X0118710Y0177902D02*
X0119969Y0179161D01*
X0124846Y0174284D01*
X0123587Y0173025D01*
X0118710Y0177902D01*
G37*
G36*
X0120102Y0179294D02*
X0121361Y0180553D01*
X0126238Y0175676D01*
X0124979Y0174417D01*
X0120102Y0179294D01*
G37*
G36*
X0121494Y0180686D02*
X0122753Y0181945D01*
X0127630Y0177068D01*
X0126371Y0175809D01*
X0121494Y0180686D01*
G37*
G36*
X0122886Y0182078D02*
X0124145Y0183337D01*
X0129022Y0178460D01*
X0127763Y0177201D01*
X0122886Y0182078D01*
G37*
G36*
X0124278Y0183470D02*
X0125537Y0184729D01*
X0130414Y0179852D01*
X0129155Y0178593D01*
X0124278Y0183470D01*
G37*
G36*
X0166593Y0141155D02*
X0167852Y0142414D01*
X0172729Y0137537D01*
X0171470Y0136278D01*
X0166593Y0141155D01*
G37*
G36*
X0165201Y0139763D02*
X0166460Y0141022D01*
X0171337Y0136145D01*
X0170078Y0134886D01*
X0165201Y0139763D01*
G37*
G36*
X0163809Y0138371D02*
X0165068Y0139630D01*
X0169945Y0134753D01*
X0168686Y0133494D01*
X0163809Y0138371D01*
G37*
G36*
X0162417Y0136979D02*
X0163676Y0138238D01*
X0168553Y0133361D01*
X0167294Y0132102D01*
X0162417Y0136979D01*
G37*
G36*
X0161025Y0135587D02*
X0162284Y0136846D01*
X0167161Y0131969D01*
X0165902Y0130710D01*
X0161025Y0135587D01*
G37*
G36*
X0159633Y0134195D02*
X0160892Y0135454D01*
X0165769Y0130577D01*
X0164510Y0129318D01*
X0159633Y0134195D01*
G37*
G36*
X0158241Y0132803D02*
X0159500Y0134062D01*
X0164377Y0129185D01*
X0163118Y0127926D01*
X0158241Y0132803D01*
G37*
G36*
X0156849Y0131411D02*
X0158108Y0132670D01*
X0162985Y0127793D01*
X0161726Y0126534D01*
X0156849Y0131411D01*
G37*
G36*
X0155457Y0130019D02*
X0156716Y0131278D01*
X0161593Y0126401D01*
X0160334Y0125142D01*
X0155457Y0130019D01*
G37*
G36*
X0154065Y0128627D02*
X0155324Y0129886D01*
X0160201Y0125009D01*
X0158942Y0123750D01*
X0154065Y0128627D01*
G37*
G36*
X0152673Y0127235D02*
X0153932Y0128494D01*
X0158809Y0123617D01*
X0157550Y0122358D01*
X0152673Y0127235D01*
G37*
G36*
X0151281Y0125843D02*
X0152540Y0127102D01*
X0157417Y0122225D01*
X0156158Y0120966D01*
X0151281Y0125843D01*
G37*
G36*
X0149890Y0124451D02*
X0151149Y0125710D01*
X0156026Y0120833D01*
X0154767Y0119574D01*
X0149890Y0124451D01*
G37*
G36*
X0148498Y0123060D02*
X0149757Y0124319D01*
X0154634Y0119442D01*
X0153375Y0118183D01*
X0148498Y0123060D01*
G37*
G36*
X0147106Y0121668D02*
X0148365Y0122927D01*
X0153242Y0118050D01*
X0151983Y0116791D01*
X0147106Y0121668D01*
G37*
G36*
X0145714Y0120276D02*
X0146973Y0121535D01*
X0151850Y0116658D01*
X0150591Y0115399D01*
X0145714Y0120276D01*
G37*
G36*
X0144322Y0118884D02*
X0145581Y0120143D01*
X0150458Y0115266D01*
X0149199Y0114007D01*
X0144322Y0118884D01*
G37*
G36*
X0142930Y0117492D02*
X0144189Y0118751D01*
X0149066Y0113874D01*
X0147807Y0112615D01*
X0142930Y0117492D01*
G37*
G36*
X0141538Y0116100D02*
X0142797Y0117359D01*
X0147674Y0112482D01*
X0146415Y0111223D01*
X0141538Y0116100D01*
G37*
G36*
X0140146Y0114708D02*
X0141405Y0115967D01*
X0146282Y0111090D01*
X0145023Y0109831D01*
X0140146Y0114708D01*
G37*
G36*
X0138754Y0113316D02*
X0140013Y0114575D01*
X0144890Y0109698D01*
X0143631Y0108439D01*
X0138754Y0113316D01*
G37*
G36*
X0137362Y0111924D02*
X0138621Y0113183D01*
X0143498Y0108306D01*
X0142239Y0107047D01*
X0137362Y0111924D01*
G37*
G36*
X0135970Y0110532D02*
X0137229Y0111791D01*
X0142106Y0106914D01*
X0140847Y0105655D01*
X0135970Y0110532D01*
G37*
G36*
X0134578Y0109140D02*
X0135837Y0110399D01*
X0140714Y0105522D01*
X0139455Y0104263D01*
X0134578Y0109140D01*
G37*
G36*
X0133186Y0107748D02*
X0134445Y0109007D01*
X0139322Y0104130D01*
X0138063Y0102871D01*
X0133186Y0107748D01*
G37*
D15*
G36*
X0124278Y0104130D02*
X0129155Y0109007D01*
X0130414Y0107748D01*
X0125537Y0102871D01*
X0124278Y0104130D01*
G37*
G36*
X0122886Y0105522D02*
X0127763Y0110399D01*
X0129022Y0109140D01*
X0124145Y0104263D01*
X0122886Y0105522D01*
G37*
G36*
X0121494Y0106914D02*
X0126371Y0111791D01*
X0127630Y0110532D01*
X0122753Y0105655D01*
X0121494Y0106914D01*
G37*
G36*
X0120102Y0108306D02*
X0124979Y0113183D01*
X0126238Y0111924D01*
X0121361Y0107047D01*
X0120102Y0108306D01*
G37*
G36*
X0118710Y0109698D02*
X0123587Y0114575D01*
X0124846Y0113316D01*
X0119969Y0108439D01*
X0118710Y0109698D01*
G37*
G36*
X0117318Y0111090D02*
X0122195Y0115967D01*
X0123454Y0114708D01*
X0118577Y0109831D01*
X0117318Y0111090D01*
G37*
G36*
X0115926Y0112482D02*
X0120803Y0117359D01*
X0122062Y0116100D01*
X0117185Y0111223D01*
X0115926Y0112482D01*
G37*
G36*
X0114534Y0113874D02*
X0119411Y0118751D01*
X0120670Y0117492D01*
X0115793Y0112615D01*
X0114534Y0113874D01*
G37*
G36*
X0113142Y0115266D02*
X0118019Y0120143D01*
X0119278Y0118884D01*
X0114401Y0114007D01*
X0113142Y0115266D01*
G37*
G36*
X0111750Y0116658D02*
X0116627Y0121535D01*
X0117886Y0120276D01*
X0113009Y0115399D01*
X0111750Y0116658D01*
G37*
G36*
X0110358Y0118050D02*
X0115235Y0122927D01*
X0116494Y0121668D01*
X0111617Y0116791D01*
X0110358Y0118050D01*
G37*
G36*
X0108966Y0119442D02*
X0113843Y0124319D01*
X0115102Y0123060D01*
X0110225Y0118183D01*
X0108966Y0119442D01*
G37*
G36*
X0107574Y0120833D02*
X0112451Y0125710D01*
X0113710Y0124451D01*
X0108833Y0119574D01*
X0107574Y0120833D01*
G37*
G36*
X0106183Y0122225D02*
X0111060Y0127102D01*
X0112319Y0125843D01*
X0107442Y0120966D01*
X0106183Y0122225D01*
G37*
G36*
X0104791Y0123617D02*
X0109668Y0128494D01*
X0110927Y0127235D01*
X0106050Y0122358D01*
X0104791Y0123617D01*
G37*
G36*
X0103399Y0125009D02*
X0108276Y0129886D01*
X0109535Y0128627D01*
X0104658Y0123750D01*
X0103399Y0125009D01*
G37*
G36*
X0102007Y0126401D02*
X0106884Y0131278D01*
X0108143Y0130019D01*
X0103266Y0125142D01*
X0102007Y0126401D01*
G37*
G36*
X0100615Y0127793D02*
X0105492Y0132670D01*
X0106751Y0131411D01*
X0101874Y0126534D01*
X0100615Y0127793D01*
G37*
G36*
X0099223Y0129185D02*
X0104100Y0134062D01*
X0105359Y0132803D01*
X0100482Y0127926D01*
X0099223Y0129185D01*
G37*
G36*
X0097831Y0130577D02*
X0102708Y0135454D01*
X0103967Y0134195D01*
X0099090Y0129318D01*
X0097831Y0130577D01*
G37*
G36*
X0096439Y0131969D02*
X0101316Y0136846D01*
X0102575Y0135587D01*
X0097698Y0130710D01*
X0096439Y0131969D01*
G37*
G36*
X0095047Y0133361D02*
X0099924Y0138238D01*
X0101183Y0136979D01*
X0096306Y0132102D01*
X0095047Y0133361D01*
G37*
G36*
X0093655Y0134753D02*
X0098532Y0139630D01*
X0099791Y0138371D01*
X0094914Y0133494D01*
X0093655Y0134753D01*
G37*
G36*
X0092263Y0136145D02*
X0097140Y0141022D01*
X0098399Y0139763D01*
X0093522Y0134886D01*
X0092263Y0136145D01*
G37*
G36*
X0090871Y0137537D02*
X0095748Y0142414D01*
X0097007Y0141155D01*
X0092130Y0136278D01*
X0090871Y0137537D01*
G37*
G36*
X0133186Y0179852D02*
X0138063Y0184729D01*
X0139322Y0183470D01*
X0134445Y0178593D01*
X0133186Y0179852D01*
G37*
G36*
X0134578Y0178460D02*
X0139455Y0183337D01*
X0140714Y0182078D01*
X0135837Y0177201D01*
X0134578Y0178460D01*
G37*
G36*
X0135970Y0177068D02*
X0140847Y0181945D01*
X0142106Y0180686D01*
X0137229Y0175809D01*
X0135970Y0177068D01*
G37*
G36*
X0137362Y0175676D02*
X0142239Y0180553D01*
X0143498Y0179294D01*
X0138621Y0174417D01*
X0137362Y0175676D01*
G37*
G36*
X0138754Y0174284D02*
X0143631Y0179161D01*
X0144890Y0177902D01*
X0140013Y0173025D01*
X0138754Y0174284D01*
G37*
G36*
X0140146Y0172892D02*
X0145023Y0177769D01*
X0146282Y0176510D01*
X0141405Y0171633D01*
X0140146Y0172892D01*
G37*
G36*
X0141538Y0171500D02*
X0146415Y0176377D01*
X0147674Y0175118D01*
X0142797Y0170241D01*
X0141538Y0171500D01*
G37*
G36*
X0142930Y0170108D02*
X0147807Y0174985D01*
X0149066Y0173726D01*
X0144189Y0168849D01*
X0142930Y0170108D01*
G37*
G36*
X0144322Y0168716D02*
X0149199Y0173593D01*
X0150458Y0172334D01*
X0145581Y0167457D01*
X0144322Y0168716D01*
G37*
G36*
X0145714Y0167324D02*
X0150591Y0172201D01*
X0151850Y0170942D01*
X0146973Y0166065D01*
X0145714Y0167324D01*
G37*
G36*
X0147106Y0165932D02*
X0151983Y0170809D01*
X0153242Y0169550D01*
X0148365Y0164673D01*
X0147106Y0165932D01*
G37*
G36*
X0148498Y0164540D02*
X0153375Y0169417D01*
X0154634Y0168158D01*
X0149757Y0163281D01*
X0148498Y0164540D01*
G37*
G36*
X0149890Y0163149D02*
X0154767Y0168026D01*
X0156026Y0166767D01*
X0151149Y0161890D01*
X0149890Y0163149D01*
G37*
G36*
X0151281Y0161757D02*
X0156158Y0166634D01*
X0157417Y0165375D01*
X0152540Y0160498D01*
X0151281Y0161757D01*
G37*
G36*
X0152673Y0160365D02*
X0157550Y0165242D01*
X0158809Y0163983D01*
X0153932Y0159106D01*
X0152673Y0160365D01*
G37*
G36*
X0154065Y0158973D02*
X0158942Y0163850D01*
X0160201Y0162591D01*
X0155324Y0157714D01*
X0154065Y0158973D01*
G37*
G36*
X0155457Y0157581D02*
X0160334Y0162458D01*
X0161593Y0161199D01*
X0156716Y0156322D01*
X0155457Y0157581D01*
G37*
G36*
X0156849Y0156189D02*
X0161726Y0161066D01*
X0162985Y0159807D01*
X0158108Y0154930D01*
X0156849Y0156189D01*
G37*
G36*
X0158241Y0154797D02*
X0163118Y0159674D01*
X0164377Y0158415D01*
X0159500Y0153538D01*
X0158241Y0154797D01*
G37*
G36*
X0159633Y0153405D02*
X0164510Y0158282D01*
X0165769Y0157023D01*
X0160892Y0152146D01*
X0159633Y0153405D01*
G37*
G36*
X0161025Y0152013D02*
X0165902Y0156890D01*
X0167161Y0155631D01*
X0162284Y0150754D01*
X0161025Y0152013D01*
G37*
G36*
X0162417Y0150621D02*
X0167294Y0155498D01*
X0168553Y0154239D01*
X0163676Y0149362D01*
X0162417Y0150621D01*
G37*
G36*
X0163809Y0149229D02*
X0168686Y0154106D01*
X0169945Y0152847D01*
X0165068Y0147970D01*
X0163809Y0149229D01*
G37*
G36*
X0165201Y0147837D02*
X0170078Y0152714D01*
X0171337Y0151455D01*
X0166460Y0146578D01*
X0165201Y0147837D01*
G37*
G36*
X0166593Y0146445D02*
X0171470Y0151322D01*
X0172729Y0150063D01*
X0167852Y0145186D01*
X0166593Y0146445D01*
G37*
D16*
X0108300Y0036300D03*
X0108300Y0026300D03*
X0108300Y0016300D03*
D17*
X0198879Y0214926D03*
X0198879Y0218076D03*
X0198879Y0221225D03*
X0198879Y0224375D03*
X0198879Y0227524D03*
X0198879Y0230674D03*
X0208721Y0230674D03*
X0208721Y0227524D03*
X0208721Y0224375D03*
X0208721Y0221225D03*
X0208721Y0218076D03*
X0208721Y0214926D03*
D18*
X0203800Y0213942D03*
X0203800Y0231658D03*
D19*
X0138461Y0214237D03*
X0138461Y0212269D03*
X0138461Y0210300D03*
X0138461Y0208331D03*
X0138461Y0206363D03*
X0121139Y0206363D03*
X0121139Y0208331D03*
X0121139Y0210300D03*
X0121139Y0212269D03*
X0121139Y0214237D03*
D20*
G36*
X0076167Y0182834D02*
X0072124Y0186877D01*
X0076723Y0191476D01*
X0080766Y0187433D01*
X0076167Y0182834D01*
G37*
G36*
X0070877Y0188124D02*
X0066834Y0192167D01*
X0071433Y0196766D01*
X0075476Y0192723D01*
X0070877Y0188124D01*
G37*
D21*
X0092300Y0168300D03*
X0097300Y0167300D03*
X0106800Y0179800D03*
X0114300Y0182800D03*
X0117300Y0194300D03*
X0113300Y0210300D03*
X0141300Y0197800D03*
X0144800Y0190800D03*
X0149300Y0190800D03*
X0164800Y0191300D03*
X0172600Y0173900D03*
X0155800Y0148800D03*
X0175300Y0131300D03*
X0178800Y0136800D03*
X0130300Y0160800D03*
X0124800Y0167800D03*
X0115300Y0147300D03*
X0087800Y0131800D03*
X0101800Y0116300D03*
X0119800Y0094800D03*
X0124800Y0092800D03*
X0082800Y0094300D03*
X0079300Y0162800D03*
X0143300Y0219800D03*
X0219300Y0210800D03*
X0218800Y0235300D03*
X0048800Y0242800D03*
X0032800Y0230800D03*
M02*
