G75*
%MOIN*%
%OFA0B0*%
%FSLAX25Y25*%
%IPPOS*%
%LPD*%
%AMOC8*
5,1,8,0,0,1.08239X$1,22.5*
%
%ADD10C,0.00500*%
%ADD11C,0.00400*%
%ADD12C,0.00600*%
%ADD13C,0.01200*%
%ADD14R,0.00787X0.00787*%
%ADD15R,0.00591X0.00984*%
D10*
X0114037Y0101583D02*
X0116583Y0099037D01*
X0118563Y0101017D01*
X0116017Y0103563D01*
X0114037Y0101583D01*
X0129537Y0110083D02*
X0132083Y0107537D01*
X0134063Y0109517D01*
X0131517Y0112063D01*
X0129537Y0110083D01*
X0104583Y0135537D02*
X0102037Y0138083D01*
X0104017Y0140063D01*
X0106563Y0137517D01*
X0104583Y0135537D01*
X0100017Y0145037D02*
X0102563Y0147583D01*
X0100583Y0149563D01*
X0098037Y0147017D01*
X0100017Y0145037D01*
X0104517Y0149537D02*
X0102537Y0151517D01*
X0105083Y0154063D01*
X0107063Y0152083D01*
X0104517Y0149537D01*
X0109017Y0154037D02*
X0107037Y0156017D01*
X0109583Y0158563D01*
X0111563Y0156583D01*
X0109017Y0154037D01*
X0117517Y0162537D02*
X0120063Y0165083D01*
X0118083Y0167063D01*
X0115537Y0164517D01*
X0117517Y0162537D01*
X0131037Y0175583D02*
X0133583Y0173037D01*
X0135563Y0175017D01*
X0133017Y0177563D01*
X0131037Y0175583D01*
X0112063Y0191583D02*
X0109517Y0189037D01*
X0107537Y0191017D01*
X0110083Y0193563D01*
X0112063Y0191583D01*
X0158583Y0141063D02*
X0156037Y0138517D01*
X0158017Y0136537D01*
X0160563Y0139083D01*
X0158583Y0141063D01*
X0162537Y0141517D02*
X0165083Y0144063D01*
X0167063Y0142083D01*
X0164517Y0139537D01*
X0162537Y0141517D01*
X0203900Y0102600D02*
X0203900Y0099000D01*
X0206700Y0099000D01*
X0206700Y0102600D01*
X0203900Y0102600D01*
X0227500Y0090700D02*
X0227500Y0087900D01*
X0231100Y0087900D01*
X0231100Y0090700D01*
X0227500Y0090700D01*
X0224200Y0215500D02*
X0221400Y0215500D01*
X0221400Y0219100D01*
X0224200Y0219100D01*
X0224200Y0215500D01*
X0224200Y0227500D02*
X0221400Y0227500D01*
X0221400Y0231100D01*
X0224200Y0231100D01*
X0224200Y0227500D01*
D11*
X0027704Y0048767D02*
X0027704Y0048000D01*
X0027704Y0048767D02*
X0024635Y0051837D01*
X0024635Y0052604D01*
X0027704Y0052604D01*
X0030773Y0052604D02*
X0030773Y0048000D01*
X0029239Y0048000D02*
X0032308Y0048000D01*
X0033843Y0048000D02*
X0035377Y0049535D01*
X0034610Y0049535D02*
X0036912Y0049535D01*
X0036912Y0048000D02*
X0036912Y0052604D01*
X0034610Y0052604D01*
X0033843Y0051837D01*
X0033843Y0050302D01*
X0034610Y0049535D01*
X0032308Y0051069D02*
X0030773Y0052604D01*
X0030773Y0066000D02*
X0030773Y0070604D01*
X0032308Y0069069D01*
X0033843Y0068302D02*
X0034610Y0067535D01*
X0036912Y0067535D01*
X0035377Y0067535D02*
X0033843Y0066000D01*
X0032308Y0066000D02*
X0029239Y0066000D01*
X0027704Y0066767D02*
X0026937Y0066000D01*
X0025402Y0066000D01*
X0024635Y0066767D01*
X0024635Y0067535D01*
X0025402Y0068302D01*
X0027704Y0068302D01*
X0027704Y0066767D01*
X0027704Y0068302D02*
X0026169Y0069837D01*
X0024635Y0070604D01*
X0033843Y0069837D02*
X0033843Y0068302D01*
X0033843Y0069837D02*
X0034610Y0070604D01*
X0036912Y0070604D01*
X0036912Y0066000D01*
X0036912Y0084000D02*
X0036912Y0088604D01*
X0034610Y0088604D01*
X0033843Y0087837D01*
X0033843Y0086302D01*
X0034610Y0085535D01*
X0036912Y0085535D01*
X0035377Y0085535D02*
X0033843Y0084000D01*
X0032308Y0084000D02*
X0029239Y0084000D01*
X0030773Y0084000D02*
X0030773Y0088604D01*
X0032308Y0087069D01*
X0027704Y0086302D02*
X0026169Y0087069D01*
X0025402Y0087069D01*
X0024635Y0086302D01*
X0024635Y0084767D01*
X0025402Y0084000D01*
X0026937Y0084000D01*
X0027704Y0084767D01*
X0027704Y0086302D02*
X0027704Y0088604D01*
X0024635Y0088604D01*
X0024635Y0101000D02*
X0027704Y0101000D01*
X0029239Y0101000D02*
X0030773Y0102535D01*
X0030006Y0102535D02*
X0032308Y0102535D01*
X0032308Y0101000D02*
X0032308Y0105604D01*
X0030006Y0105604D01*
X0029239Y0104837D01*
X0029239Y0103302D01*
X0030006Y0102535D01*
X0027704Y0104069D02*
X0026169Y0105604D01*
X0026169Y0101000D01*
X0025635Y0132000D02*
X0028704Y0132000D01*
X0025635Y0135069D01*
X0025635Y0135837D01*
X0026402Y0136604D01*
X0027937Y0136604D01*
X0028704Y0135837D01*
X0031773Y0136604D02*
X0031773Y0132000D01*
X0030239Y0132000D02*
X0033308Y0132000D01*
X0034843Y0132000D02*
X0036377Y0133535D01*
X0035610Y0133535D02*
X0037912Y0133535D01*
X0037912Y0132000D02*
X0037912Y0136604D01*
X0035610Y0136604D01*
X0034843Y0135837D01*
X0034843Y0134302D01*
X0035610Y0133535D01*
X0033308Y0135069D02*
X0031773Y0136604D01*
X0031773Y0153000D02*
X0031773Y0157604D01*
X0033308Y0156069D01*
X0034843Y0155302D02*
X0035610Y0154535D01*
X0037912Y0154535D01*
X0036377Y0154535D02*
X0034843Y0153000D01*
X0033308Y0153000D02*
X0030239Y0153000D01*
X0028704Y0153000D02*
X0025635Y0153000D01*
X0027169Y0153000D02*
X0027169Y0157604D01*
X0028704Y0156069D01*
X0034843Y0156837D02*
X0034843Y0155302D01*
X0034843Y0156837D02*
X0035610Y0157604D01*
X0037912Y0157604D01*
X0037912Y0153000D01*
X0093330Y0138574D02*
X0094415Y0139659D01*
X0095500Y0139659D01*
X0093330Y0138574D02*
X0093330Y0137488D01*
X0093873Y0136946D01*
X0098213Y0136946D01*
X0096043Y0134776D01*
X0099299Y0138031D02*
X0101469Y0140201D01*
X0100384Y0139116D02*
X0097128Y0142372D01*
X0099299Y0142372D01*
X0099841Y0143999D02*
X0099841Y0145085D01*
X0100926Y0146170D01*
X0102011Y0146170D01*
X0104182Y0143999D01*
X0104182Y0142914D01*
X0103097Y0141829D01*
X0102011Y0141829D01*
X0105414Y0147418D02*
X0104329Y0148503D01*
X0104329Y0149589D01*
X0103244Y0150674D02*
X0102159Y0150674D01*
X0101074Y0151759D01*
X0101074Y0152844D01*
X0103244Y0155014D01*
X0104329Y0155014D01*
X0105414Y0153929D01*
X0105414Y0152844D01*
X0104872Y0152301D01*
X0103787Y0152301D01*
X0102159Y0153929D01*
X0105031Y0156801D02*
X0107201Y0154631D01*
X0106116Y0155716D02*
X0109372Y0158972D01*
X0109372Y0156801D01*
X0110999Y0156259D02*
X0112085Y0156259D01*
X0113170Y0155174D01*
X0113170Y0154089D01*
X0110999Y0151918D01*
X0109914Y0151918D01*
X0108829Y0153003D01*
X0108829Y0154089D01*
X0107585Y0151759D02*
X0108670Y0150674D01*
X0108670Y0149589D01*
X0106499Y0147418D01*
X0105414Y0147418D01*
X0106499Y0151759D02*
X0107585Y0151759D01*
X0104489Y0158429D02*
X0103403Y0158429D01*
X0102318Y0159514D01*
X0102318Y0160600D01*
X0102861Y0161142D01*
X0103946Y0161142D01*
X0104489Y0160600D01*
X0103946Y0161142D02*
X0103946Y0162227D01*
X0104489Y0162770D01*
X0105574Y0162770D01*
X0106659Y0161685D01*
X0106659Y0160600D01*
X0108446Y0162387D02*
X0106276Y0164557D01*
X0107361Y0163472D02*
X0110616Y0166727D01*
X0110616Y0164557D01*
X0113872Y0163472D02*
X0110616Y0160216D01*
X0111701Y0159131D02*
X0109531Y0161301D01*
X0113872Y0161301D02*
X0113872Y0163472D01*
X0115499Y0160759D02*
X0116585Y0160759D01*
X0117670Y0159674D01*
X0117670Y0158589D01*
X0115499Y0156418D01*
X0114414Y0156418D01*
X0113329Y0157503D01*
X0113329Y0158589D01*
X0121829Y0166003D02*
X0121829Y0167089D01*
X0121829Y0166003D02*
X0122914Y0164918D01*
X0123999Y0164918D01*
X0126170Y0167089D01*
X0126170Y0168174D01*
X0125085Y0169259D01*
X0123999Y0169259D01*
X0122372Y0169801D02*
X0122372Y0171972D01*
X0119116Y0168716D01*
X0120201Y0167631D02*
X0118031Y0169801D01*
X0117489Y0171429D02*
X0117489Y0175770D01*
X0115318Y0173600D01*
X0115318Y0172514D01*
X0116403Y0171429D01*
X0117489Y0171429D01*
X0119659Y0173600D01*
X0119659Y0174685D01*
X0118574Y0175770D01*
X0117489Y0175770D01*
X0113087Y0181701D02*
X0110917Y0179531D01*
X0109831Y0179531D01*
X0108746Y0180616D01*
X0108746Y0181701D01*
X0107119Y0182243D02*
X0104948Y0184414D01*
X0106033Y0183329D02*
X0109289Y0186584D01*
X0109289Y0184414D01*
X0110917Y0183871D02*
X0112002Y0183871D01*
X0113087Y0182786D01*
X0113087Y0181701D01*
X0107119Y0188754D02*
X0105491Y0187127D01*
X0104948Y0188754D01*
X0104406Y0189297D01*
X0103321Y0189297D01*
X0102235Y0188212D01*
X0102235Y0187127D01*
X0103321Y0186041D01*
X0104406Y0186041D01*
X0107119Y0188754D02*
X0104948Y0190925D01*
X0134218Y0170991D02*
X0134218Y0169906D01*
X0134760Y0169363D01*
X0135846Y0169363D01*
X0136931Y0170448D01*
X0136931Y0171533D01*
X0136388Y0172076D01*
X0135303Y0172076D01*
X0134218Y0170991D01*
X0135846Y0169363D02*
X0135846Y0168278D01*
X0136388Y0167735D01*
X0137473Y0167735D01*
X0138559Y0168820D01*
X0138559Y0169906D01*
X0138016Y0170448D01*
X0136931Y0170448D01*
X0139644Y0170991D02*
X0140729Y0170991D01*
X0141814Y0172076D01*
X0141814Y0173161D01*
X0139644Y0175331D01*
X0138559Y0175331D01*
X0137473Y0174246D01*
X0137473Y0173161D01*
X0159135Y0190767D02*
X0159902Y0190000D01*
X0161437Y0190000D01*
X0162204Y0190767D01*
X0162204Y0192302D02*
X0160669Y0193069D01*
X0159902Y0193069D01*
X0159135Y0192302D01*
X0159135Y0190767D01*
X0162204Y0192302D02*
X0162204Y0194604D01*
X0159135Y0194604D01*
X0163739Y0193837D02*
X0163739Y0192302D01*
X0164506Y0191535D01*
X0166808Y0191535D01*
X0165273Y0191535D02*
X0163739Y0190000D01*
X0166808Y0190000D02*
X0166808Y0194604D01*
X0164506Y0194604D01*
X0163739Y0193837D01*
X0173194Y0205000D02*
X0173194Y0209604D01*
X0175496Y0207302D01*
X0172427Y0207302D01*
X0177031Y0207302D02*
X0177798Y0206535D01*
X0180100Y0206535D01*
X0178565Y0206535D02*
X0177031Y0205000D01*
X0177031Y0207302D02*
X0177031Y0208837D01*
X0177798Y0209604D01*
X0180100Y0209604D01*
X0180100Y0205000D01*
X0184194Y0181104D02*
X0183427Y0180337D01*
X0183427Y0179569D01*
X0184194Y0178802D01*
X0185729Y0178802D01*
X0186496Y0179569D01*
X0186496Y0180337D01*
X0185729Y0181104D01*
X0184194Y0181104D01*
X0184194Y0178802D02*
X0183427Y0178035D01*
X0183427Y0177267D01*
X0184194Y0176500D01*
X0185729Y0176500D01*
X0186496Y0177267D01*
X0186496Y0178035D01*
X0185729Y0178802D01*
X0188031Y0178802D02*
X0188031Y0180337D01*
X0188798Y0181104D01*
X0191100Y0181104D01*
X0191100Y0176500D01*
X0191100Y0178035D02*
X0188798Y0178035D01*
X0188031Y0178802D01*
X0189565Y0178035D02*
X0188031Y0176500D01*
X0220402Y0209000D02*
X0219635Y0209767D01*
X0219635Y0210535D01*
X0220402Y0211302D01*
X0221937Y0211302D01*
X0222704Y0212069D01*
X0222704Y0212837D01*
X0221937Y0213604D01*
X0220402Y0213604D01*
X0219635Y0212837D01*
X0219635Y0212069D01*
X0220402Y0211302D01*
X0221937Y0211302D02*
X0222704Y0210535D01*
X0222704Y0209767D01*
X0221937Y0209000D01*
X0220402Y0209000D01*
X0224239Y0209000D02*
X0227308Y0209000D01*
X0225773Y0209000D02*
X0225773Y0213604D01*
X0227308Y0212069D01*
X0228843Y0212837D02*
X0229610Y0213604D01*
X0231144Y0213604D01*
X0231912Y0212837D01*
X0231912Y0209767D01*
X0231144Y0209000D01*
X0229610Y0209000D01*
X0228843Y0209767D01*
X0229610Y0221000D02*
X0228843Y0221767D01*
X0229610Y0221000D02*
X0231144Y0221000D01*
X0231912Y0221767D01*
X0231912Y0224837D01*
X0231144Y0225604D01*
X0229610Y0225604D01*
X0228843Y0224837D01*
X0227308Y0224069D02*
X0225773Y0225604D01*
X0225773Y0221000D01*
X0224239Y0221000D02*
X0227308Y0221000D01*
X0222704Y0221767D02*
X0221937Y0221000D01*
X0220402Y0221000D01*
X0219635Y0221767D01*
X0219635Y0224837D01*
X0220402Y0225604D01*
X0221937Y0225604D01*
X0222704Y0224837D01*
X0222704Y0224069D01*
X0221937Y0223302D01*
X0219635Y0223302D01*
X0159948Y0141425D02*
X0159406Y0140882D01*
X0159406Y0136541D01*
X0158863Y0135999D01*
X0160491Y0135456D02*
X0160491Y0134371D01*
X0161576Y0133286D01*
X0162661Y0133286D01*
X0164831Y0135456D01*
X0164831Y0136541D01*
X0163746Y0137627D01*
X0162661Y0137627D01*
X0162119Y0139254D02*
X0159948Y0141425D01*
X0155619Y0136254D02*
X0153448Y0138425D01*
X0152906Y0137882D01*
X0152906Y0133541D01*
X0152363Y0132999D01*
X0153448Y0131914D02*
X0155619Y0129743D01*
X0154533Y0130829D02*
X0157789Y0134084D01*
X0157789Y0131914D01*
X0159417Y0131371D02*
X0160502Y0131371D01*
X0161587Y0130286D01*
X0161587Y0129201D01*
X0159417Y0127031D01*
X0158331Y0127031D01*
X0157246Y0128116D01*
X0157246Y0129201D01*
X0131682Y0115999D02*
X0131682Y0114914D01*
X0130597Y0113829D01*
X0129511Y0113829D01*
X0128969Y0112201D02*
X0126799Y0110031D01*
X0127884Y0111116D02*
X0124628Y0114372D01*
X0126799Y0114372D01*
X0127341Y0115999D02*
X0127341Y0117085D01*
X0128426Y0118170D01*
X0129511Y0118170D01*
X0131682Y0115999D01*
X0124086Y0110574D02*
X0121915Y0108403D01*
X0124086Y0107318D02*
X0120830Y0110574D01*
X0124086Y0110574D01*
X0116182Y0107499D02*
X0116182Y0106414D01*
X0115097Y0105329D01*
X0114011Y0105329D01*
X0113469Y0103701D02*
X0111299Y0101531D01*
X0112384Y0102616D02*
X0109128Y0105872D01*
X0111299Y0105872D01*
X0111841Y0107499D02*
X0111841Y0108585D01*
X0112926Y0109670D01*
X0114011Y0109670D01*
X0116182Y0107499D01*
X0109671Y0100988D02*
X0109671Y0099903D01*
X0108586Y0098818D01*
X0107500Y0098818D01*
X0106958Y0099361D01*
X0106958Y0100446D01*
X0108586Y0102074D01*
X0109671Y0100988D01*
X0108586Y0102074D02*
X0106415Y0102074D01*
X0104788Y0101531D01*
X0104104Y0086673D02*
X0103337Y0085139D01*
X0101802Y0083604D01*
X0101802Y0085906D01*
X0101035Y0086673D01*
X0100267Y0086673D01*
X0099500Y0085906D01*
X0099500Y0084371D01*
X0100267Y0083604D01*
X0101802Y0083604D01*
X0101802Y0082069D02*
X0101035Y0081302D01*
X0101035Y0079000D01*
X0100604Y0080163D02*
X0100604Y0081698D01*
X0099837Y0082465D01*
X0099069Y0082465D01*
X0098302Y0081698D01*
X0097535Y0082465D01*
X0096767Y0082465D01*
X0096000Y0081698D01*
X0096000Y0080163D01*
X0096767Y0079396D01*
X0096000Y0077861D02*
X0096000Y0074792D01*
X0096000Y0073257D02*
X0097535Y0071723D01*
X0097535Y0072490D02*
X0097535Y0070188D01*
X0096000Y0070188D02*
X0100604Y0070188D01*
X0100604Y0072490D01*
X0099837Y0073257D01*
X0098302Y0073257D01*
X0097535Y0072490D01*
X0099069Y0074792D02*
X0100604Y0076327D01*
X0096000Y0076327D01*
X0099500Y0079000D02*
X0104104Y0079000D01*
X0104104Y0081302D01*
X0103337Y0082069D01*
X0101802Y0082069D01*
X0101035Y0080535D02*
X0099500Y0082069D01*
X0098302Y0081698D02*
X0098302Y0080931D01*
X0099837Y0079396D02*
X0100604Y0080163D01*
X0105500Y0081698D02*
X0110104Y0081698D01*
X0107802Y0079396D01*
X0107802Y0082465D01*
X0105500Y0077861D02*
X0105500Y0074792D01*
X0105500Y0073257D02*
X0107035Y0071723D01*
X0107035Y0072490D02*
X0107035Y0070188D01*
X0105500Y0070188D02*
X0110104Y0070188D01*
X0110104Y0072490D01*
X0109337Y0073257D01*
X0107802Y0073257D01*
X0107035Y0072490D01*
X0108569Y0074792D02*
X0110104Y0076327D01*
X0105500Y0076327D01*
X0077604Y0077094D02*
X0077604Y0074792D01*
X0073000Y0074792D01*
X0074535Y0074792D02*
X0074535Y0077094D01*
X0075302Y0077861D01*
X0076837Y0077861D01*
X0077604Y0077094D01*
X0077604Y0079396D02*
X0077604Y0082465D01*
X0076837Y0082465D01*
X0073767Y0079396D01*
X0073000Y0079396D01*
X0073000Y0077861D02*
X0074535Y0076327D01*
X0201927Y0104500D02*
X0204996Y0104500D01*
X0203461Y0104500D02*
X0203461Y0109104D01*
X0204996Y0107569D01*
X0206531Y0108337D02*
X0207298Y0109104D01*
X0208833Y0109104D01*
X0209600Y0108337D01*
X0209600Y0105267D01*
X0208833Y0104500D01*
X0207298Y0104500D01*
X0206531Y0105267D01*
X0221000Y0092465D02*
X0221000Y0089396D01*
X0224069Y0092465D01*
X0224837Y0092465D01*
X0225604Y0091698D01*
X0225604Y0090163D01*
X0224837Y0089396D01*
X0224837Y0087861D02*
X0225604Y0087094D01*
X0225604Y0085559D01*
X0224837Y0084792D01*
X0221767Y0084792D01*
X0221000Y0085559D01*
X0221000Y0087094D01*
X0221767Y0087861D01*
X0232335Y0070232D02*
X0232408Y0070155D01*
X0232483Y0070080D01*
X0232561Y0070009D01*
X0232642Y0069940D01*
X0232725Y0069874D01*
X0232810Y0069811D01*
X0232898Y0069752D01*
X0232987Y0069695D01*
X0233079Y0069642D01*
X0233173Y0069592D01*
X0233268Y0069546D01*
X0233365Y0069503D01*
X0233463Y0069464D01*
X0233563Y0069428D01*
X0233664Y0069396D01*
X0233766Y0069368D01*
X0233869Y0069343D01*
X0233973Y0069322D01*
X0234078Y0069305D01*
X0234183Y0069291D01*
X0234288Y0069282D01*
X0234394Y0069276D01*
X0234500Y0069274D01*
X0234606Y0069276D01*
X0234712Y0069282D01*
X0234817Y0069291D01*
X0234922Y0069305D01*
X0235027Y0069322D01*
X0235131Y0069343D01*
X0235234Y0069368D01*
X0235336Y0069396D01*
X0235437Y0069428D01*
X0235537Y0069464D01*
X0235635Y0069503D01*
X0235732Y0069546D01*
X0235827Y0069592D01*
X0235921Y0069642D01*
X0236013Y0069695D01*
X0236102Y0069752D01*
X0236190Y0069811D01*
X0236275Y0069874D01*
X0236358Y0069940D01*
X0236439Y0070009D01*
X0236517Y0070080D01*
X0236592Y0070155D01*
X0236665Y0070232D01*
X0236665Y0074168D02*
X0236592Y0074245D01*
X0236517Y0074320D01*
X0236439Y0074391D01*
X0236358Y0074460D01*
X0236275Y0074526D01*
X0236190Y0074589D01*
X0236102Y0074648D01*
X0236013Y0074705D01*
X0235921Y0074758D01*
X0235827Y0074808D01*
X0235732Y0074854D01*
X0235635Y0074897D01*
X0235537Y0074936D01*
X0235437Y0074972D01*
X0235336Y0075004D01*
X0235234Y0075032D01*
X0235131Y0075057D01*
X0235027Y0075078D01*
X0234922Y0075095D01*
X0234817Y0075109D01*
X0234712Y0075118D01*
X0234606Y0075124D01*
X0234500Y0075126D01*
X0234394Y0075124D01*
X0234288Y0075118D01*
X0234183Y0075109D01*
X0234078Y0075095D01*
X0233973Y0075078D01*
X0233869Y0075057D01*
X0233766Y0075032D01*
X0233664Y0075004D01*
X0233563Y0074972D01*
X0233463Y0074936D01*
X0233365Y0074897D01*
X0233268Y0074854D01*
X0233173Y0074808D01*
X0233079Y0074758D01*
X0232987Y0074705D01*
X0232898Y0074648D01*
X0232810Y0074589D01*
X0232725Y0074526D01*
X0232642Y0074460D01*
X0232561Y0074391D01*
X0232483Y0074320D01*
X0232408Y0074245D01*
X0232335Y0074168D01*
X0231602Y0067004D02*
X0230835Y0066237D01*
X0230835Y0065469D01*
X0231602Y0064702D01*
X0230835Y0063935D01*
X0230835Y0063167D01*
X0231602Y0062400D01*
X0233137Y0062400D01*
X0233904Y0063167D01*
X0235439Y0063167D02*
X0235439Y0062400D01*
X0236206Y0062400D01*
X0236206Y0063167D01*
X0235439Y0063167D01*
X0236665Y0063068D02*
X0236592Y0063145D01*
X0236517Y0063220D01*
X0236439Y0063291D01*
X0236358Y0063360D01*
X0236275Y0063426D01*
X0236190Y0063489D01*
X0236102Y0063548D01*
X0236013Y0063605D01*
X0235921Y0063658D01*
X0235827Y0063708D01*
X0235732Y0063754D01*
X0235635Y0063797D01*
X0235537Y0063836D01*
X0235437Y0063872D01*
X0235336Y0063904D01*
X0235234Y0063932D01*
X0235131Y0063957D01*
X0235027Y0063978D01*
X0234922Y0063995D01*
X0234817Y0064009D01*
X0234712Y0064018D01*
X0234606Y0064024D01*
X0234500Y0064026D01*
X0234394Y0064024D01*
X0234288Y0064018D01*
X0234183Y0064009D01*
X0234078Y0063995D01*
X0233973Y0063978D01*
X0233869Y0063957D01*
X0233766Y0063932D01*
X0233664Y0063904D01*
X0233563Y0063872D01*
X0233463Y0063836D01*
X0233365Y0063797D01*
X0233268Y0063754D01*
X0233173Y0063708D01*
X0233079Y0063658D01*
X0232987Y0063605D01*
X0232898Y0063548D01*
X0232810Y0063489D01*
X0232725Y0063426D01*
X0232642Y0063360D01*
X0232561Y0063291D01*
X0232483Y0063220D01*
X0232408Y0063145D01*
X0232335Y0063068D01*
X0232369Y0064702D02*
X0231602Y0064702D01*
X0231602Y0067004D02*
X0233137Y0067004D01*
X0233904Y0066237D01*
X0237741Y0066237D02*
X0237741Y0065469D01*
X0238508Y0064702D01*
X0237741Y0063935D01*
X0237741Y0063167D01*
X0238508Y0062400D01*
X0240043Y0062400D01*
X0240810Y0063167D01*
X0239275Y0064702D02*
X0238508Y0064702D01*
X0237741Y0066237D02*
X0238508Y0067004D01*
X0240043Y0067004D01*
X0240810Y0066237D01*
X0236665Y0059132D02*
X0236592Y0059055D01*
X0236517Y0058980D01*
X0236439Y0058909D01*
X0236358Y0058840D01*
X0236275Y0058774D01*
X0236190Y0058711D01*
X0236102Y0058652D01*
X0236013Y0058595D01*
X0235921Y0058542D01*
X0235827Y0058492D01*
X0235732Y0058446D01*
X0235635Y0058403D01*
X0235537Y0058364D01*
X0235437Y0058328D01*
X0235336Y0058296D01*
X0235234Y0058268D01*
X0235131Y0058243D01*
X0235027Y0058222D01*
X0234922Y0058205D01*
X0234817Y0058191D01*
X0234712Y0058182D01*
X0234606Y0058176D01*
X0234500Y0058174D01*
X0234394Y0058176D01*
X0234288Y0058182D01*
X0234183Y0058191D01*
X0234078Y0058205D01*
X0233973Y0058222D01*
X0233869Y0058243D01*
X0233766Y0058268D01*
X0233664Y0058296D01*
X0233563Y0058328D01*
X0233463Y0058364D01*
X0233365Y0058403D01*
X0233268Y0058446D01*
X0233173Y0058492D01*
X0233079Y0058542D01*
X0232987Y0058595D01*
X0232898Y0058652D01*
X0232810Y0058711D01*
X0232725Y0058774D01*
X0232642Y0058840D01*
X0232561Y0058909D01*
X0232483Y0058980D01*
X0232408Y0059055D01*
X0232335Y0059132D01*
X0230835Y0055904D02*
X0230835Y0052835D01*
X0232369Y0051300D01*
X0233904Y0052835D01*
X0233904Y0055904D01*
X0235439Y0055904D02*
X0238508Y0055904D01*
X0238508Y0053602D01*
X0236973Y0054369D01*
X0236206Y0054369D01*
X0235439Y0053602D01*
X0235439Y0052067D01*
X0236206Y0051300D01*
X0237741Y0051300D01*
X0238508Y0052067D01*
D12*
X0209383Y0079308D02*
X0202217Y0079308D01*
X0202217Y0091292D02*
X0209383Y0091292D01*
X0144406Y0195900D02*
X0143538Y0195900D01*
X0143105Y0196334D01*
X0141893Y0195900D02*
X0140158Y0197635D01*
X0140158Y0198069D01*
X0140592Y0198502D01*
X0141459Y0198502D01*
X0141893Y0198069D01*
X0143105Y0198069D02*
X0143538Y0198502D01*
X0144406Y0198502D01*
X0144840Y0198069D01*
X0144840Y0196334D01*
X0144406Y0195900D01*
X0141893Y0195900D02*
X0140158Y0195900D01*
X0138947Y0196334D02*
X0138947Y0198069D01*
X0138513Y0198502D01*
X0137645Y0198502D01*
X0137212Y0198069D01*
X0138947Y0196334D01*
X0138513Y0195900D01*
X0137645Y0195900D01*
X0137212Y0196334D01*
X0137212Y0198069D01*
X0121500Y0210534D02*
X0121066Y0210100D01*
X0120199Y0210100D01*
X0119765Y0210534D01*
X0118553Y0210100D02*
X0116819Y0211835D01*
X0116819Y0212269D01*
X0117252Y0212702D01*
X0118120Y0212702D01*
X0118553Y0212269D01*
X0119765Y0212269D02*
X0120199Y0212702D01*
X0121066Y0212702D01*
X0121500Y0212269D01*
X0121500Y0210534D01*
X0118553Y0210100D02*
X0116819Y0210100D01*
X0115607Y0210100D02*
X0113872Y0210100D01*
X0114740Y0210100D02*
X0114740Y0212702D01*
X0115607Y0211835D01*
D13*
X0128300Y0200300D02*
X0128300Y0196300D01*
X0129800Y0208300D02*
X0129800Y0212300D01*
D14*
X0234500Y0072200D03*
X0234500Y0061100D03*
D15*
X0236567Y0063364D03*
X0236567Y0074464D03*
M02*
