G75*
%MOIN*%
%OFA0B0*%
%FSLAX25Y25*%
%IPPOS*%
%LPD*%
%AMOC8*
5,1,8,0,0,1.08239X$1,22.5*
%
%ADD10C,0.00000*%
D10*
X0002300Y0003800D02*
X0002800Y0251761D01*
X0256001Y0251761D01*
X0256501Y0003800D01*
X0002300Y0003800D01*
X0005594Y0013300D02*
X0005596Y0013453D01*
X0005602Y0013607D01*
X0005612Y0013760D01*
X0005626Y0013912D01*
X0005644Y0014065D01*
X0005666Y0014216D01*
X0005691Y0014367D01*
X0005721Y0014518D01*
X0005755Y0014668D01*
X0005792Y0014816D01*
X0005833Y0014964D01*
X0005878Y0015110D01*
X0005927Y0015256D01*
X0005980Y0015400D01*
X0006036Y0015542D01*
X0006096Y0015683D01*
X0006160Y0015823D01*
X0006227Y0015961D01*
X0006298Y0016097D01*
X0006373Y0016231D01*
X0006450Y0016363D01*
X0006532Y0016493D01*
X0006616Y0016621D01*
X0006704Y0016747D01*
X0006795Y0016870D01*
X0006889Y0016991D01*
X0006987Y0017109D01*
X0007087Y0017225D01*
X0007191Y0017338D01*
X0007297Y0017449D01*
X0007406Y0017557D01*
X0007518Y0017662D01*
X0007632Y0017763D01*
X0007750Y0017862D01*
X0007869Y0017958D01*
X0007991Y0018051D01*
X0008116Y0018140D01*
X0008243Y0018227D01*
X0008372Y0018309D01*
X0008503Y0018389D01*
X0008636Y0018465D01*
X0008771Y0018538D01*
X0008908Y0018607D01*
X0009047Y0018672D01*
X0009187Y0018734D01*
X0009329Y0018792D01*
X0009472Y0018847D01*
X0009617Y0018898D01*
X0009763Y0018945D01*
X0009910Y0018988D01*
X0010058Y0019027D01*
X0010207Y0019063D01*
X0010357Y0019094D01*
X0010508Y0019122D01*
X0010659Y0019146D01*
X0010812Y0019166D01*
X0010964Y0019182D01*
X0011117Y0019194D01*
X0011270Y0019202D01*
X0011423Y0019206D01*
X0011577Y0019206D01*
X0011730Y0019202D01*
X0011883Y0019194D01*
X0012036Y0019182D01*
X0012188Y0019166D01*
X0012341Y0019146D01*
X0012492Y0019122D01*
X0012643Y0019094D01*
X0012793Y0019063D01*
X0012942Y0019027D01*
X0013090Y0018988D01*
X0013237Y0018945D01*
X0013383Y0018898D01*
X0013528Y0018847D01*
X0013671Y0018792D01*
X0013813Y0018734D01*
X0013953Y0018672D01*
X0014092Y0018607D01*
X0014229Y0018538D01*
X0014364Y0018465D01*
X0014497Y0018389D01*
X0014628Y0018309D01*
X0014757Y0018227D01*
X0014884Y0018140D01*
X0015009Y0018051D01*
X0015131Y0017958D01*
X0015250Y0017862D01*
X0015368Y0017763D01*
X0015482Y0017662D01*
X0015594Y0017557D01*
X0015703Y0017449D01*
X0015809Y0017338D01*
X0015913Y0017225D01*
X0016013Y0017109D01*
X0016111Y0016991D01*
X0016205Y0016870D01*
X0016296Y0016747D01*
X0016384Y0016621D01*
X0016468Y0016493D01*
X0016550Y0016363D01*
X0016627Y0016231D01*
X0016702Y0016097D01*
X0016773Y0015961D01*
X0016840Y0015823D01*
X0016904Y0015683D01*
X0016964Y0015542D01*
X0017020Y0015400D01*
X0017073Y0015256D01*
X0017122Y0015110D01*
X0017167Y0014964D01*
X0017208Y0014816D01*
X0017245Y0014668D01*
X0017279Y0014518D01*
X0017309Y0014367D01*
X0017334Y0014216D01*
X0017356Y0014065D01*
X0017374Y0013912D01*
X0017388Y0013760D01*
X0017398Y0013607D01*
X0017404Y0013453D01*
X0017406Y0013300D01*
X0017404Y0013147D01*
X0017398Y0012993D01*
X0017388Y0012840D01*
X0017374Y0012688D01*
X0017356Y0012535D01*
X0017334Y0012384D01*
X0017309Y0012233D01*
X0017279Y0012082D01*
X0017245Y0011932D01*
X0017208Y0011784D01*
X0017167Y0011636D01*
X0017122Y0011490D01*
X0017073Y0011344D01*
X0017020Y0011200D01*
X0016964Y0011058D01*
X0016904Y0010917D01*
X0016840Y0010777D01*
X0016773Y0010639D01*
X0016702Y0010503D01*
X0016627Y0010369D01*
X0016550Y0010237D01*
X0016468Y0010107D01*
X0016384Y0009979D01*
X0016296Y0009853D01*
X0016205Y0009730D01*
X0016111Y0009609D01*
X0016013Y0009491D01*
X0015913Y0009375D01*
X0015809Y0009262D01*
X0015703Y0009151D01*
X0015594Y0009043D01*
X0015482Y0008938D01*
X0015368Y0008837D01*
X0015250Y0008738D01*
X0015131Y0008642D01*
X0015009Y0008549D01*
X0014884Y0008460D01*
X0014757Y0008373D01*
X0014628Y0008291D01*
X0014497Y0008211D01*
X0014364Y0008135D01*
X0014229Y0008062D01*
X0014092Y0007993D01*
X0013953Y0007928D01*
X0013813Y0007866D01*
X0013671Y0007808D01*
X0013528Y0007753D01*
X0013383Y0007702D01*
X0013237Y0007655D01*
X0013090Y0007612D01*
X0012942Y0007573D01*
X0012793Y0007537D01*
X0012643Y0007506D01*
X0012492Y0007478D01*
X0012341Y0007454D01*
X0012188Y0007434D01*
X0012036Y0007418D01*
X0011883Y0007406D01*
X0011730Y0007398D01*
X0011577Y0007394D01*
X0011423Y0007394D01*
X0011270Y0007398D01*
X0011117Y0007406D01*
X0010964Y0007418D01*
X0010812Y0007434D01*
X0010659Y0007454D01*
X0010508Y0007478D01*
X0010357Y0007506D01*
X0010207Y0007537D01*
X0010058Y0007573D01*
X0009910Y0007612D01*
X0009763Y0007655D01*
X0009617Y0007702D01*
X0009472Y0007753D01*
X0009329Y0007808D01*
X0009187Y0007866D01*
X0009047Y0007928D01*
X0008908Y0007993D01*
X0008771Y0008062D01*
X0008636Y0008135D01*
X0008503Y0008211D01*
X0008372Y0008291D01*
X0008243Y0008373D01*
X0008116Y0008460D01*
X0007991Y0008549D01*
X0007869Y0008642D01*
X0007750Y0008738D01*
X0007632Y0008837D01*
X0007518Y0008938D01*
X0007406Y0009043D01*
X0007297Y0009151D01*
X0007191Y0009262D01*
X0007087Y0009375D01*
X0006987Y0009491D01*
X0006889Y0009609D01*
X0006795Y0009730D01*
X0006704Y0009853D01*
X0006616Y0009979D01*
X0006532Y0010107D01*
X0006450Y0010237D01*
X0006373Y0010369D01*
X0006298Y0010503D01*
X0006227Y0010639D01*
X0006160Y0010777D01*
X0006096Y0010917D01*
X0006036Y0011058D01*
X0005980Y0011200D01*
X0005927Y0011344D01*
X0005878Y0011490D01*
X0005833Y0011636D01*
X0005792Y0011784D01*
X0005755Y0011932D01*
X0005721Y0012082D01*
X0005691Y0012233D01*
X0005666Y0012384D01*
X0005644Y0012535D01*
X0005626Y0012688D01*
X0005612Y0012840D01*
X0005602Y0012993D01*
X0005596Y0013147D01*
X0005594Y0013300D01*
X0005394Y0242000D02*
X0005396Y0242153D01*
X0005402Y0242307D01*
X0005412Y0242460D01*
X0005426Y0242612D01*
X0005444Y0242765D01*
X0005466Y0242916D01*
X0005491Y0243067D01*
X0005521Y0243218D01*
X0005555Y0243368D01*
X0005592Y0243516D01*
X0005633Y0243664D01*
X0005678Y0243810D01*
X0005727Y0243956D01*
X0005780Y0244100D01*
X0005836Y0244242D01*
X0005896Y0244383D01*
X0005960Y0244523D01*
X0006027Y0244661D01*
X0006098Y0244797D01*
X0006173Y0244931D01*
X0006250Y0245063D01*
X0006332Y0245193D01*
X0006416Y0245321D01*
X0006504Y0245447D01*
X0006595Y0245570D01*
X0006689Y0245691D01*
X0006787Y0245809D01*
X0006887Y0245925D01*
X0006991Y0246038D01*
X0007097Y0246149D01*
X0007206Y0246257D01*
X0007318Y0246362D01*
X0007432Y0246463D01*
X0007550Y0246562D01*
X0007669Y0246658D01*
X0007791Y0246751D01*
X0007916Y0246840D01*
X0008043Y0246927D01*
X0008172Y0247009D01*
X0008303Y0247089D01*
X0008436Y0247165D01*
X0008571Y0247238D01*
X0008708Y0247307D01*
X0008847Y0247372D01*
X0008987Y0247434D01*
X0009129Y0247492D01*
X0009272Y0247547D01*
X0009417Y0247598D01*
X0009563Y0247645D01*
X0009710Y0247688D01*
X0009858Y0247727D01*
X0010007Y0247763D01*
X0010157Y0247794D01*
X0010308Y0247822D01*
X0010459Y0247846D01*
X0010612Y0247866D01*
X0010764Y0247882D01*
X0010917Y0247894D01*
X0011070Y0247902D01*
X0011223Y0247906D01*
X0011377Y0247906D01*
X0011530Y0247902D01*
X0011683Y0247894D01*
X0011836Y0247882D01*
X0011988Y0247866D01*
X0012141Y0247846D01*
X0012292Y0247822D01*
X0012443Y0247794D01*
X0012593Y0247763D01*
X0012742Y0247727D01*
X0012890Y0247688D01*
X0013037Y0247645D01*
X0013183Y0247598D01*
X0013328Y0247547D01*
X0013471Y0247492D01*
X0013613Y0247434D01*
X0013753Y0247372D01*
X0013892Y0247307D01*
X0014029Y0247238D01*
X0014164Y0247165D01*
X0014297Y0247089D01*
X0014428Y0247009D01*
X0014557Y0246927D01*
X0014684Y0246840D01*
X0014809Y0246751D01*
X0014931Y0246658D01*
X0015050Y0246562D01*
X0015168Y0246463D01*
X0015282Y0246362D01*
X0015394Y0246257D01*
X0015503Y0246149D01*
X0015609Y0246038D01*
X0015713Y0245925D01*
X0015813Y0245809D01*
X0015911Y0245691D01*
X0016005Y0245570D01*
X0016096Y0245447D01*
X0016184Y0245321D01*
X0016268Y0245193D01*
X0016350Y0245063D01*
X0016427Y0244931D01*
X0016502Y0244797D01*
X0016573Y0244661D01*
X0016640Y0244523D01*
X0016704Y0244383D01*
X0016764Y0244242D01*
X0016820Y0244100D01*
X0016873Y0243956D01*
X0016922Y0243810D01*
X0016967Y0243664D01*
X0017008Y0243516D01*
X0017045Y0243368D01*
X0017079Y0243218D01*
X0017109Y0243067D01*
X0017134Y0242916D01*
X0017156Y0242765D01*
X0017174Y0242612D01*
X0017188Y0242460D01*
X0017198Y0242307D01*
X0017204Y0242153D01*
X0017206Y0242000D01*
X0017204Y0241847D01*
X0017198Y0241693D01*
X0017188Y0241540D01*
X0017174Y0241388D01*
X0017156Y0241235D01*
X0017134Y0241084D01*
X0017109Y0240933D01*
X0017079Y0240782D01*
X0017045Y0240632D01*
X0017008Y0240484D01*
X0016967Y0240336D01*
X0016922Y0240190D01*
X0016873Y0240044D01*
X0016820Y0239900D01*
X0016764Y0239758D01*
X0016704Y0239617D01*
X0016640Y0239477D01*
X0016573Y0239339D01*
X0016502Y0239203D01*
X0016427Y0239069D01*
X0016350Y0238937D01*
X0016268Y0238807D01*
X0016184Y0238679D01*
X0016096Y0238553D01*
X0016005Y0238430D01*
X0015911Y0238309D01*
X0015813Y0238191D01*
X0015713Y0238075D01*
X0015609Y0237962D01*
X0015503Y0237851D01*
X0015394Y0237743D01*
X0015282Y0237638D01*
X0015168Y0237537D01*
X0015050Y0237438D01*
X0014931Y0237342D01*
X0014809Y0237249D01*
X0014684Y0237160D01*
X0014557Y0237073D01*
X0014428Y0236991D01*
X0014297Y0236911D01*
X0014164Y0236835D01*
X0014029Y0236762D01*
X0013892Y0236693D01*
X0013753Y0236628D01*
X0013613Y0236566D01*
X0013471Y0236508D01*
X0013328Y0236453D01*
X0013183Y0236402D01*
X0013037Y0236355D01*
X0012890Y0236312D01*
X0012742Y0236273D01*
X0012593Y0236237D01*
X0012443Y0236206D01*
X0012292Y0236178D01*
X0012141Y0236154D01*
X0011988Y0236134D01*
X0011836Y0236118D01*
X0011683Y0236106D01*
X0011530Y0236098D01*
X0011377Y0236094D01*
X0011223Y0236094D01*
X0011070Y0236098D01*
X0010917Y0236106D01*
X0010764Y0236118D01*
X0010612Y0236134D01*
X0010459Y0236154D01*
X0010308Y0236178D01*
X0010157Y0236206D01*
X0010007Y0236237D01*
X0009858Y0236273D01*
X0009710Y0236312D01*
X0009563Y0236355D01*
X0009417Y0236402D01*
X0009272Y0236453D01*
X0009129Y0236508D01*
X0008987Y0236566D01*
X0008847Y0236628D01*
X0008708Y0236693D01*
X0008571Y0236762D01*
X0008436Y0236835D01*
X0008303Y0236911D01*
X0008172Y0236991D01*
X0008043Y0237073D01*
X0007916Y0237160D01*
X0007791Y0237249D01*
X0007669Y0237342D01*
X0007550Y0237438D01*
X0007432Y0237537D01*
X0007318Y0237638D01*
X0007206Y0237743D01*
X0007097Y0237851D01*
X0006991Y0237962D01*
X0006887Y0238075D01*
X0006787Y0238191D01*
X0006689Y0238309D01*
X0006595Y0238430D01*
X0006504Y0238553D01*
X0006416Y0238679D01*
X0006332Y0238807D01*
X0006250Y0238937D01*
X0006173Y0239069D01*
X0006098Y0239203D01*
X0006027Y0239339D01*
X0005960Y0239477D01*
X0005896Y0239617D01*
X0005836Y0239758D01*
X0005780Y0239900D01*
X0005727Y0240044D01*
X0005678Y0240190D01*
X0005633Y0240336D01*
X0005592Y0240484D01*
X0005555Y0240632D01*
X0005521Y0240782D01*
X0005491Y0240933D01*
X0005466Y0241084D01*
X0005444Y0241235D01*
X0005426Y0241388D01*
X0005412Y0241540D01*
X0005402Y0241693D01*
X0005396Y0241847D01*
X0005394Y0242000D01*
X0241294Y0242500D02*
X0241296Y0242653D01*
X0241302Y0242807D01*
X0241312Y0242960D01*
X0241326Y0243112D01*
X0241344Y0243265D01*
X0241366Y0243416D01*
X0241391Y0243567D01*
X0241421Y0243718D01*
X0241455Y0243868D01*
X0241492Y0244016D01*
X0241533Y0244164D01*
X0241578Y0244310D01*
X0241627Y0244456D01*
X0241680Y0244600D01*
X0241736Y0244742D01*
X0241796Y0244883D01*
X0241860Y0245023D01*
X0241927Y0245161D01*
X0241998Y0245297D01*
X0242073Y0245431D01*
X0242150Y0245563D01*
X0242232Y0245693D01*
X0242316Y0245821D01*
X0242404Y0245947D01*
X0242495Y0246070D01*
X0242589Y0246191D01*
X0242687Y0246309D01*
X0242787Y0246425D01*
X0242891Y0246538D01*
X0242997Y0246649D01*
X0243106Y0246757D01*
X0243218Y0246862D01*
X0243332Y0246963D01*
X0243450Y0247062D01*
X0243569Y0247158D01*
X0243691Y0247251D01*
X0243816Y0247340D01*
X0243943Y0247427D01*
X0244072Y0247509D01*
X0244203Y0247589D01*
X0244336Y0247665D01*
X0244471Y0247738D01*
X0244608Y0247807D01*
X0244747Y0247872D01*
X0244887Y0247934D01*
X0245029Y0247992D01*
X0245172Y0248047D01*
X0245317Y0248098D01*
X0245463Y0248145D01*
X0245610Y0248188D01*
X0245758Y0248227D01*
X0245907Y0248263D01*
X0246057Y0248294D01*
X0246208Y0248322D01*
X0246359Y0248346D01*
X0246512Y0248366D01*
X0246664Y0248382D01*
X0246817Y0248394D01*
X0246970Y0248402D01*
X0247123Y0248406D01*
X0247277Y0248406D01*
X0247430Y0248402D01*
X0247583Y0248394D01*
X0247736Y0248382D01*
X0247888Y0248366D01*
X0248041Y0248346D01*
X0248192Y0248322D01*
X0248343Y0248294D01*
X0248493Y0248263D01*
X0248642Y0248227D01*
X0248790Y0248188D01*
X0248937Y0248145D01*
X0249083Y0248098D01*
X0249228Y0248047D01*
X0249371Y0247992D01*
X0249513Y0247934D01*
X0249653Y0247872D01*
X0249792Y0247807D01*
X0249929Y0247738D01*
X0250064Y0247665D01*
X0250197Y0247589D01*
X0250328Y0247509D01*
X0250457Y0247427D01*
X0250584Y0247340D01*
X0250709Y0247251D01*
X0250831Y0247158D01*
X0250950Y0247062D01*
X0251068Y0246963D01*
X0251182Y0246862D01*
X0251294Y0246757D01*
X0251403Y0246649D01*
X0251509Y0246538D01*
X0251613Y0246425D01*
X0251713Y0246309D01*
X0251811Y0246191D01*
X0251905Y0246070D01*
X0251996Y0245947D01*
X0252084Y0245821D01*
X0252168Y0245693D01*
X0252250Y0245563D01*
X0252327Y0245431D01*
X0252402Y0245297D01*
X0252473Y0245161D01*
X0252540Y0245023D01*
X0252604Y0244883D01*
X0252664Y0244742D01*
X0252720Y0244600D01*
X0252773Y0244456D01*
X0252822Y0244310D01*
X0252867Y0244164D01*
X0252908Y0244016D01*
X0252945Y0243868D01*
X0252979Y0243718D01*
X0253009Y0243567D01*
X0253034Y0243416D01*
X0253056Y0243265D01*
X0253074Y0243112D01*
X0253088Y0242960D01*
X0253098Y0242807D01*
X0253104Y0242653D01*
X0253106Y0242500D01*
X0253104Y0242347D01*
X0253098Y0242193D01*
X0253088Y0242040D01*
X0253074Y0241888D01*
X0253056Y0241735D01*
X0253034Y0241584D01*
X0253009Y0241433D01*
X0252979Y0241282D01*
X0252945Y0241132D01*
X0252908Y0240984D01*
X0252867Y0240836D01*
X0252822Y0240690D01*
X0252773Y0240544D01*
X0252720Y0240400D01*
X0252664Y0240258D01*
X0252604Y0240117D01*
X0252540Y0239977D01*
X0252473Y0239839D01*
X0252402Y0239703D01*
X0252327Y0239569D01*
X0252250Y0239437D01*
X0252168Y0239307D01*
X0252084Y0239179D01*
X0251996Y0239053D01*
X0251905Y0238930D01*
X0251811Y0238809D01*
X0251713Y0238691D01*
X0251613Y0238575D01*
X0251509Y0238462D01*
X0251403Y0238351D01*
X0251294Y0238243D01*
X0251182Y0238138D01*
X0251068Y0238037D01*
X0250950Y0237938D01*
X0250831Y0237842D01*
X0250709Y0237749D01*
X0250584Y0237660D01*
X0250457Y0237573D01*
X0250328Y0237491D01*
X0250197Y0237411D01*
X0250064Y0237335D01*
X0249929Y0237262D01*
X0249792Y0237193D01*
X0249653Y0237128D01*
X0249513Y0237066D01*
X0249371Y0237008D01*
X0249228Y0236953D01*
X0249083Y0236902D01*
X0248937Y0236855D01*
X0248790Y0236812D01*
X0248642Y0236773D01*
X0248493Y0236737D01*
X0248343Y0236706D01*
X0248192Y0236678D01*
X0248041Y0236654D01*
X0247888Y0236634D01*
X0247736Y0236618D01*
X0247583Y0236606D01*
X0247430Y0236598D01*
X0247277Y0236594D01*
X0247123Y0236594D01*
X0246970Y0236598D01*
X0246817Y0236606D01*
X0246664Y0236618D01*
X0246512Y0236634D01*
X0246359Y0236654D01*
X0246208Y0236678D01*
X0246057Y0236706D01*
X0245907Y0236737D01*
X0245758Y0236773D01*
X0245610Y0236812D01*
X0245463Y0236855D01*
X0245317Y0236902D01*
X0245172Y0236953D01*
X0245029Y0237008D01*
X0244887Y0237066D01*
X0244747Y0237128D01*
X0244608Y0237193D01*
X0244471Y0237262D01*
X0244336Y0237335D01*
X0244203Y0237411D01*
X0244072Y0237491D01*
X0243943Y0237573D01*
X0243816Y0237660D01*
X0243691Y0237749D01*
X0243569Y0237842D01*
X0243450Y0237938D01*
X0243332Y0238037D01*
X0243218Y0238138D01*
X0243106Y0238243D01*
X0242997Y0238351D01*
X0242891Y0238462D01*
X0242787Y0238575D01*
X0242687Y0238691D01*
X0242589Y0238809D01*
X0242495Y0238930D01*
X0242404Y0239053D01*
X0242316Y0239179D01*
X0242232Y0239307D01*
X0242150Y0239437D01*
X0242073Y0239569D01*
X0241998Y0239703D01*
X0241927Y0239839D01*
X0241860Y0239977D01*
X0241796Y0240117D01*
X0241736Y0240258D01*
X0241680Y0240400D01*
X0241627Y0240544D01*
X0241578Y0240690D01*
X0241533Y0240836D01*
X0241492Y0240984D01*
X0241455Y0241132D01*
X0241421Y0241282D01*
X0241391Y0241433D01*
X0241366Y0241584D01*
X0241344Y0241735D01*
X0241326Y0241888D01*
X0241312Y0242040D01*
X0241302Y0242193D01*
X0241296Y0242347D01*
X0241294Y0242500D01*
X0241294Y0013300D02*
X0241296Y0013453D01*
X0241302Y0013607D01*
X0241312Y0013760D01*
X0241326Y0013912D01*
X0241344Y0014065D01*
X0241366Y0014216D01*
X0241391Y0014367D01*
X0241421Y0014518D01*
X0241455Y0014668D01*
X0241492Y0014816D01*
X0241533Y0014964D01*
X0241578Y0015110D01*
X0241627Y0015256D01*
X0241680Y0015400D01*
X0241736Y0015542D01*
X0241796Y0015683D01*
X0241860Y0015823D01*
X0241927Y0015961D01*
X0241998Y0016097D01*
X0242073Y0016231D01*
X0242150Y0016363D01*
X0242232Y0016493D01*
X0242316Y0016621D01*
X0242404Y0016747D01*
X0242495Y0016870D01*
X0242589Y0016991D01*
X0242687Y0017109D01*
X0242787Y0017225D01*
X0242891Y0017338D01*
X0242997Y0017449D01*
X0243106Y0017557D01*
X0243218Y0017662D01*
X0243332Y0017763D01*
X0243450Y0017862D01*
X0243569Y0017958D01*
X0243691Y0018051D01*
X0243816Y0018140D01*
X0243943Y0018227D01*
X0244072Y0018309D01*
X0244203Y0018389D01*
X0244336Y0018465D01*
X0244471Y0018538D01*
X0244608Y0018607D01*
X0244747Y0018672D01*
X0244887Y0018734D01*
X0245029Y0018792D01*
X0245172Y0018847D01*
X0245317Y0018898D01*
X0245463Y0018945D01*
X0245610Y0018988D01*
X0245758Y0019027D01*
X0245907Y0019063D01*
X0246057Y0019094D01*
X0246208Y0019122D01*
X0246359Y0019146D01*
X0246512Y0019166D01*
X0246664Y0019182D01*
X0246817Y0019194D01*
X0246970Y0019202D01*
X0247123Y0019206D01*
X0247277Y0019206D01*
X0247430Y0019202D01*
X0247583Y0019194D01*
X0247736Y0019182D01*
X0247888Y0019166D01*
X0248041Y0019146D01*
X0248192Y0019122D01*
X0248343Y0019094D01*
X0248493Y0019063D01*
X0248642Y0019027D01*
X0248790Y0018988D01*
X0248937Y0018945D01*
X0249083Y0018898D01*
X0249228Y0018847D01*
X0249371Y0018792D01*
X0249513Y0018734D01*
X0249653Y0018672D01*
X0249792Y0018607D01*
X0249929Y0018538D01*
X0250064Y0018465D01*
X0250197Y0018389D01*
X0250328Y0018309D01*
X0250457Y0018227D01*
X0250584Y0018140D01*
X0250709Y0018051D01*
X0250831Y0017958D01*
X0250950Y0017862D01*
X0251068Y0017763D01*
X0251182Y0017662D01*
X0251294Y0017557D01*
X0251403Y0017449D01*
X0251509Y0017338D01*
X0251613Y0017225D01*
X0251713Y0017109D01*
X0251811Y0016991D01*
X0251905Y0016870D01*
X0251996Y0016747D01*
X0252084Y0016621D01*
X0252168Y0016493D01*
X0252250Y0016363D01*
X0252327Y0016231D01*
X0252402Y0016097D01*
X0252473Y0015961D01*
X0252540Y0015823D01*
X0252604Y0015683D01*
X0252664Y0015542D01*
X0252720Y0015400D01*
X0252773Y0015256D01*
X0252822Y0015110D01*
X0252867Y0014964D01*
X0252908Y0014816D01*
X0252945Y0014668D01*
X0252979Y0014518D01*
X0253009Y0014367D01*
X0253034Y0014216D01*
X0253056Y0014065D01*
X0253074Y0013912D01*
X0253088Y0013760D01*
X0253098Y0013607D01*
X0253104Y0013453D01*
X0253106Y0013300D01*
X0253104Y0013147D01*
X0253098Y0012993D01*
X0253088Y0012840D01*
X0253074Y0012688D01*
X0253056Y0012535D01*
X0253034Y0012384D01*
X0253009Y0012233D01*
X0252979Y0012082D01*
X0252945Y0011932D01*
X0252908Y0011784D01*
X0252867Y0011636D01*
X0252822Y0011490D01*
X0252773Y0011344D01*
X0252720Y0011200D01*
X0252664Y0011058D01*
X0252604Y0010917D01*
X0252540Y0010777D01*
X0252473Y0010639D01*
X0252402Y0010503D01*
X0252327Y0010369D01*
X0252250Y0010237D01*
X0252168Y0010107D01*
X0252084Y0009979D01*
X0251996Y0009853D01*
X0251905Y0009730D01*
X0251811Y0009609D01*
X0251713Y0009491D01*
X0251613Y0009375D01*
X0251509Y0009262D01*
X0251403Y0009151D01*
X0251294Y0009043D01*
X0251182Y0008938D01*
X0251068Y0008837D01*
X0250950Y0008738D01*
X0250831Y0008642D01*
X0250709Y0008549D01*
X0250584Y0008460D01*
X0250457Y0008373D01*
X0250328Y0008291D01*
X0250197Y0008211D01*
X0250064Y0008135D01*
X0249929Y0008062D01*
X0249792Y0007993D01*
X0249653Y0007928D01*
X0249513Y0007866D01*
X0249371Y0007808D01*
X0249228Y0007753D01*
X0249083Y0007702D01*
X0248937Y0007655D01*
X0248790Y0007612D01*
X0248642Y0007573D01*
X0248493Y0007537D01*
X0248343Y0007506D01*
X0248192Y0007478D01*
X0248041Y0007454D01*
X0247888Y0007434D01*
X0247736Y0007418D01*
X0247583Y0007406D01*
X0247430Y0007398D01*
X0247277Y0007394D01*
X0247123Y0007394D01*
X0246970Y0007398D01*
X0246817Y0007406D01*
X0246664Y0007418D01*
X0246512Y0007434D01*
X0246359Y0007454D01*
X0246208Y0007478D01*
X0246057Y0007506D01*
X0245907Y0007537D01*
X0245758Y0007573D01*
X0245610Y0007612D01*
X0245463Y0007655D01*
X0245317Y0007702D01*
X0245172Y0007753D01*
X0245029Y0007808D01*
X0244887Y0007866D01*
X0244747Y0007928D01*
X0244608Y0007993D01*
X0244471Y0008062D01*
X0244336Y0008135D01*
X0244203Y0008211D01*
X0244072Y0008291D01*
X0243943Y0008373D01*
X0243816Y0008460D01*
X0243691Y0008549D01*
X0243569Y0008642D01*
X0243450Y0008738D01*
X0243332Y0008837D01*
X0243218Y0008938D01*
X0243106Y0009043D01*
X0242997Y0009151D01*
X0242891Y0009262D01*
X0242787Y0009375D01*
X0242687Y0009491D01*
X0242589Y0009609D01*
X0242495Y0009730D01*
X0242404Y0009853D01*
X0242316Y0009979D01*
X0242232Y0010107D01*
X0242150Y0010237D01*
X0242073Y0010369D01*
X0241998Y0010503D01*
X0241927Y0010639D01*
X0241860Y0010777D01*
X0241796Y0010917D01*
X0241736Y0011058D01*
X0241680Y0011200D01*
X0241627Y0011344D01*
X0241578Y0011490D01*
X0241533Y0011636D01*
X0241492Y0011784D01*
X0241455Y0011932D01*
X0241421Y0012082D01*
X0241391Y0012233D01*
X0241366Y0012384D01*
X0241344Y0012535D01*
X0241326Y0012688D01*
X0241312Y0012840D01*
X0241302Y0012993D01*
X0241296Y0013147D01*
X0241294Y0013300D01*
M02*
