G75*
%MOIN*%
%OFA0B0*%
%FSLAX25Y25*%
%IPPOS*%
%LPD*%
%AMOC8*
5,1,8,0,0,1.08239X$1,22.5*
%
%ADD10C,0.00200*%
%ADD11C,0.00600*%
%ADD12C,0.00500*%
%ADD13C,0.00400*%
%ADD14C,0.00800*%
%ADD15C,0.01000*%
%ADD16C,0.01600*%
D10*
X0023365Y0024900D02*
X0025233Y0024900D01*
X0025700Y0025367D01*
X0025700Y0026301D01*
X0025233Y0026768D01*
X0024299Y0026768D01*
X0024299Y0025834D01*
X0023365Y0024900D02*
X0022898Y0025367D01*
X0022898Y0026301D01*
X0023365Y0026768D01*
X0022898Y0027662D02*
X0025700Y0027662D01*
X0025700Y0029531D02*
X0022898Y0029531D01*
X0022898Y0030425D02*
X0022898Y0031826D01*
X0023365Y0032293D01*
X0025233Y0032293D01*
X0025700Y0031826D01*
X0025700Y0030425D01*
X0022898Y0030425D01*
X0022898Y0027662D02*
X0025700Y0029531D01*
X0024733Y0036400D02*
X0025200Y0036867D01*
X0025200Y0037801D01*
X0024733Y0038268D01*
X0022865Y0038268D01*
X0022398Y0037801D01*
X0022398Y0036867D01*
X0022865Y0036400D01*
X0023332Y0036400D01*
X0023799Y0036867D01*
X0023799Y0038268D01*
X0024266Y0039162D02*
X0025200Y0040096D01*
X0024266Y0041031D01*
X0022398Y0041031D01*
X0022398Y0039162D02*
X0024266Y0039162D01*
X0126400Y0025235D02*
X0126400Y0023367D01*
X0126867Y0022900D01*
X0127801Y0022900D01*
X0128268Y0023367D01*
X0128268Y0024301D01*
X0127334Y0024301D01*
X0126400Y0025235D02*
X0126867Y0025702D01*
X0127801Y0025702D01*
X0128268Y0025235D01*
X0129162Y0025702D02*
X0129162Y0022900D01*
X0131031Y0022900D02*
X0129162Y0025702D01*
X0131031Y0025702D02*
X0131031Y0022900D01*
X0131925Y0022900D02*
X0133326Y0022900D01*
X0133793Y0023367D01*
X0133793Y0025235D01*
X0133326Y0025702D01*
X0131925Y0025702D01*
X0131925Y0022900D01*
X0137400Y0022867D02*
X0137867Y0022400D01*
X0138801Y0022400D01*
X0139268Y0022867D01*
X0139268Y0023801D01*
X0138801Y0024268D01*
X0138334Y0024268D01*
X0137400Y0023801D01*
X0137400Y0025202D01*
X0139268Y0025202D01*
X0140162Y0025202D02*
X0140162Y0023334D01*
X0141096Y0022400D01*
X0142031Y0023334D01*
X0142031Y0025202D01*
X0145900Y0025202D02*
X0145900Y0022400D01*
X0145900Y0023334D02*
X0147301Y0023334D01*
X0147768Y0023801D01*
X0147768Y0024735D01*
X0147301Y0025202D01*
X0145900Y0025202D01*
X0148662Y0025202D02*
X0148662Y0022400D01*
X0150064Y0022400D01*
X0150531Y0022867D01*
X0150531Y0024735D01*
X0150064Y0025202D01*
X0148662Y0025202D01*
X0151425Y0024268D02*
X0152359Y0025202D01*
X0152359Y0022400D01*
X0151425Y0022400D02*
X0153293Y0022400D01*
X0154187Y0022400D02*
X0156055Y0024268D01*
X0156055Y0024735D01*
X0155588Y0025202D01*
X0154654Y0025202D01*
X0154187Y0024735D01*
X0154187Y0022400D02*
X0156055Y0022400D01*
X0158900Y0022867D02*
X0159367Y0022400D01*
X0160301Y0022400D01*
X0160768Y0022867D01*
X0160768Y0023801D01*
X0159834Y0023801D01*
X0158900Y0024735D02*
X0158900Y0022867D01*
X0158900Y0024735D02*
X0159367Y0025202D01*
X0160301Y0025202D01*
X0160768Y0024735D01*
X0161662Y0025202D02*
X0163531Y0022400D01*
X0163531Y0025202D01*
X0164425Y0025202D02*
X0165826Y0025202D01*
X0166293Y0024735D01*
X0166293Y0022867D01*
X0165826Y0022400D01*
X0164425Y0022400D01*
X0164425Y0025202D01*
X0161662Y0025202D02*
X0161662Y0022400D01*
X0169900Y0023367D02*
X0170367Y0022900D01*
X0171301Y0022900D01*
X0171768Y0023367D01*
X0171768Y0024301D01*
X0171301Y0024768D01*
X0170834Y0024768D01*
X0169900Y0024301D01*
X0169900Y0025702D01*
X0171768Y0025702D01*
X0172662Y0025702D02*
X0172662Y0023834D01*
X0173596Y0022900D01*
X0174531Y0023834D01*
X0174531Y0025702D01*
X0177900Y0025202D02*
X0179301Y0025202D01*
X0179768Y0024735D01*
X0179768Y0023801D01*
X0179301Y0023334D01*
X0177900Y0023334D01*
X0177900Y0022400D02*
X0177900Y0025202D01*
X0180662Y0025202D02*
X0180662Y0022400D01*
X0182064Y0022400D01*
X0182531Y0022867D01*
X0182531Y0024735D01*
X0182064Y0025202D01*
X0180662Y0025202D01*
X0183425Y0024268D02*
X0184359Y0025202D01*
X0184359Y0022400D01*
X0183425Y0022400D02*
X0185293Y0022400D01*
X0186187Y0022867D02*
X0186654Y0022400D01*
X0187588Y0022400D01*
X0188055Y0022867D01*
X0188055Y0023334D01*
X0187588Y0023801D01*
X0187121Y0023801D01*
X0187588Y0023801D02*
X0188055Y0024268D01*
X0188055Y0024735D01*
X0187588Y0025202D01*
X0186654Y0025202D01*
X0186187Y0024735D01*
X0189900Y0025202D02*
X0189900Y0022400D01*
X0189900Y0023334D02*
X0191301Y0023334D01*
X0191768Y0023801D01*
X0191768Y0024735D01*
X0191301Y0025202D01*
X0189900Y0025202D01*
X0192662Y0025202D02*
X0192662Y0022400D01*
X0194064Y0022400D01*
X0194531Y0022867D01*
X0194531Y0024735D01*
X0194064Y0025202D01*
X0192662Y0025202D01*
X0195425Y0024268D02*
X0196359Y0025202D01*
X0196359Y0022400D01*
X0195425Y0022400D02*
X0197293Y0022400D01*
X0198187Y0023801D02*
X0200055Y0023801D01*
X0199588Y0022400D02*
X0199588Y0025202D01*
X0198187Y0023801D01*
X0202400Y0023334D02*
X0203801Y0023334D01*
X0204268Y0023801D01*
X0204268Y0024735D01*
X0203801Y0025202D01*
X0202400Y0025202D01*
X0202400Y0022400D01*
X0205162Y0022400D02*
X0205162Y0025202D01*
X0206564Y0025202D01*
X0207031Y0024735D01*
X0207031Y0022867D01*
X0206564Y0022400D01*
X0205162Y0022400D01*
X0207925Y0022400D02*
X0209793Y0022400D01*
X0208859Y0022400D02*
X0208859Y0025202D01*
X0207925Y0024268D01*
X0210687Y0023801D02*
X0211621Y0024268D01*
X0212088Y0024268D01*
X0212555Y0023801D01*
X0212555Y0022867D01*
X0212088Y0022400D01*
X0211154Y0022400D01*
X0210687Y0022867D01*
X0210687Y0023801D02*
X0210687Y0025202D01*
X0212555Y0025202D01*
D11*
X0207300Y0027800D02*
X0207300Y0035800D01*
X0206300Y0036800D01*
X0198300Y0036800D01*
X0197300Y0035800D01*
X0196300Y0036800D01*
X0188300Y0036800D01*
X0187300Y0035800D01*
X0187300Y0027800D01*
X0188300Y0026800D01*
X0196300Y0026800D01*
X0197300Y0027800D01*
X0198300Y0026800D01*
X0206300Y0026800D01*
X0207300Y0027800D01*
X0186300Y0028300D02*
X0185300Y0027300D01*
X0177300Y0027300D01*
X0176300Y0028300D01*
X0175300Y0027300D01*
X0167300Y0027300D01*
X0166300Y0028300D01*
X0165300Y0027300D01*
X0157300Y0027300D01*
X0156300Y0028300D01*
X0156300Y0036300D01*
X0157300Y0037300D01*
X0165300Y0037300D01*
X0166300Y0036300D01*
X0167300Y0037300D01*
X0175300Y0037300D01*
X0176300Y0036300D01*
X0177300Y0037300D01*
X0185300Y0037300D01*
X0186300Y0036300D01*
X0186300Y0028300D01*
X0183300Y0053800D02*
X0176300Y0053800D01*
X0174800Y0055300D01*
X0173300Y0053800D01*
X0166300Y0053800D01*
X0164800Y0055300D01*
X0163300Y0053800D01*
X0156300Y0053800D01*
X0154800Y0055300D01*
X0153300Y0053800D01*
X0146300Y0053800D01*
X0144800Y0055300D01*
X0143300Y0053800D01*
X0136300Y0053800D01*
X0134800Y0055300D01*
X0133300Y0053800D01*
X0126300Y0053800D01*
X0124800Y0055300D01*
X0124800Y0072300D01*
X0126300Y0073800D01*
X0133300Y0073800D01*
X0134800Y0072300D01*
X0136300Y0073800D01*
X0143300Y0073800D01*
X0144800Y0072300D01*
X0146300Y0073800D01*
X0153300Y0073800D01*
X0154800Y0072300D01*
X0156300Y0073800D01*
X0163300Y0073800D01*
X0164800Y0072300D01*
X0166300Y0073800D01*
X0173300Y0073800D01*
X0174800Y0072300D01*
X0176300Y0073800D01*
X0183300Y0073800D01*
X0184800Y0072300D01*
X0184800Y0055300D01*
X0183300Y0053800D01*
X0154800Y0036800D02*
X0154800Y0028800D01*
X0153800Y0027800D01*
X0145800Y0027800D01*
X0144800Y0028800D01*
X0143800Y0027800D01*
X0135800Y0027800D01*
X0134800Y0028800D01*
X0133800Y0027800D01*
X0125800Y0027800D01*
X0124800Y0028800D01*
X0124800Y0036800D01*
X0125800Y0037800D01*
X0133800Y0037800D01*
X0134800Y0036800D01*
X0135800Y0037800D01*
X0143800Y0037800D01*
X0144800Y0036800D01*
X0145800Y0037800D01*
X0153800Y0037800D01*
X0154800Y0036800D01*
X0120300Y0059300D02*
X0120300Y0067300D01*
X0119300Y0068300D01*
X0111300Y0068300D01*
X0110300Y0067300D01*
X0109300Y0068300D01*
X0101300Y0068300D01*
X0100300Y0067300D01*
X0100300Y0059300D01*
X0101300Y0058300D01*
X0109300Y0058300D01*
X0110300Y0059300D01*
X0111300Y0058300D01*
X0119300Y0058300D01*
X0120300Y0059300D01*
X0097800Y0059800D02*
X0097800Y0067800D01*
X0096800Y0068800D01*
X0088800Y0068800D01*
X0087800Y0067800D01*
X0086800Y0068800D01*
X0078800Y0068800D01*
X0077800Y0067800D01*
X0077800Y0059800D01*
X0078800Y0058800D01*
X0086800Y0058800D01*
X0087800Y0059800D01*
X0088800Y0058800D01*
X0096800Y0058800D01*
X0097800Y0059800D01*
X0060800Y0061800D02*
X0060800Y0053800D01*
X0059800Y0052800D01*
X0051800Y0052800D01*
X0050800Y0053800D01*
X0050800Y0061800D01*
X0051800Y0062800D01*
X0050800Y0063800D01*
X0050800Y0071800D01*
X0051800Y0072800D01*
X0059800Y0072800D01*
X0060800Y0071800D01*
X0060800Y0063800D01*
X0059800Y0062800D01*
X0060800Y0061800D01*
X0059800Y0070800D02*
X0051800Y0070800D01*
X0050800Y0071800D01*
X0050800Y0079800D01*
X0051800Y0080800D01*
X0050800Y0081800D01*
X0050800Y0089800D01*
X0051800Y0090800D01*
X0059800Y0090800D01*
X0060800Y0089800D01*
X0060800Y0081800D01*
X0059800Y0080800D01*
X0060800Y0079800D01*
X0060800Y0071800D01*
X0059800Y0070800D01*
X0059800Y0088800D02*
X0051800Y0088800D01*
X0050800Y0089800D01*
X0050800Y0097800D01*
X0051800Y0098800D01*
X0050800Y0099800D01*
X0050800Y0107800D01*
X0051800Y0108800D01*
X0059800Y0108800D01*
X0060800Y0107800D01*
X0060800Y0099800D01*
X0059800Y0098800D01*
X0060800Y0097800D01*
X0060800Y0089800D01*
X0059800Y0088800D01*
X0059800Y0106800D02*
X0051800Y0106800D01*
X0050800Y0107800D01*
X0050800Y0115800D01*
X0051800Y0116800D01*
X0050800Y0117800D01*
X0050800Y0125800D01*
X0051800Y0126800D01*
X0059800Y0126800D01*
X0060800Y0125800D01*
X0060800Y0117800D01*
X0059800Y0116800D01*
X0060800Y0115800D01*
X0060800Y0107800D01*
X0059800Y0106800D01*
X0060800Y0136300D02*
X0052800Y0136300D01*
X0051800Y0137300D01*
X0051800Y0145300D01*
X0052800Y0146300D01*
X0051800Y0147300D01*
X0051800Y0155300D01*
X0052800Y0156300D01*
X0060800Y0156300D01*
X0061800Y0155300D01*
X0061800Y0147300D01*
X0060800Y0146300D01*
X0061800Y0145300D01*
X0061800Y0137300D01*
X0060800Y0136300D01*
X0060800Y0157800D02*
X0052800Y0157800D01*
X0051800Y0158800D01*
X0051800Y0166800D01*
X0052800Y0167800D01*
X0051800Y0168800D01*
X0051800Y0176800D01*
X0052800Y0177800D01*
X0060800Y0177800D01*
X0061800Y0176800D01*
X0061800Y0168800D01*
X0060800Y0167800D01*
X0061800Y0166800D01*
X0061800Y0158800D01*
X0060800Y0157800D01*
X0058436Y0198365D02*
X0057022Y0198365D01*
X0051365Y0204022D01*
X0051365Y0205436D01*
X0057022Y0211093D01*
X0058436Y0211093D01*
X0058436Y0212507D01*
X0064093Y0218164D01*
X0065507Y0218164D01*
X0065507Y0219578D01*
X0071164Y0225235D01*
X0072578Y0225235D01*
X0078235Y0219578D01*
X0078235Y0218164D01*
X0072578Y0212507D01*
X0071164Y0212507D01*
X0071164Y0211093D01*
X0065507Y0205436D01*
X0064093Y0205436D01*
X0064093Y0204022D01*
X0058436Y0198365D01*
X0103300Y0222800D02*
X0104300Y0221800D01*
X0112300Y0221800D01*
X0113300Y0222800D01*
X0114300Y0221800D01*
X0122300Y0221800D01*
X0123300Y0222800D01*
X0123300Y0230800D01*
X0122300Y0231800D01*
X0114300Y0231800D01*
X0113300Y0230800D01*
X0112300Y0231800D01*
X0104300Y0231800D01*
X0103300Y0230800D01*
X0103300Y0222800D01*
X0130207Y0202018D02*
X0130207Y0199849D01*
X0130641Y0199416D01*
X0131508Y0199416D01*
X0131942Y0199849D01*
X0131942Y0202018D01*
X0133153Y0201151D02*
X0134021Y0202018D01*
X0134021Y0199416D01*
X0134888Y0199416D02*
X0133153Y0199416D01*
X0148300Y0209300D02*
X0149300Y0208300D01*
X0157300Y0208300D01*
X0158300Y0209300D01*
X0159300Y0208300D01*
X0167300Y0208300D01*
X0168300Y0209300D01*
X0169300Y0208300D01*
X0177300Y0208300D01*
X0178300Y0209300D01*
X0179300Y0208300D01*
X0187300Y0208300D01*
X0188300Y0209300D01*
X0188300Y0217300D01*
X0187300Y0218300D01*
X0179300Y0218300D01*
X0178300Y0217300D01*
X0177300Y0218300D01*
X0169300Y0218300D01*
X0168300Y0217300D01*
X0167300Y0218300D01*
X0159300Y0218300D01*
X0158300Y0217300D01*
X0157300Y0218300D01*
X0149300Y0218300D01*
X0148300Y0217300D01*
X0148300Y0209300D01*
X0148800Y0227800D02*
X0156800Y0227800D01*
X0157800Y0228800D01*
X0158800Y0227800D01*
X0166800Y0227800D01*
X0167800Y0228800D01*
X0168800Y0227800D01*
X0176800Y0227800D01*
X0177800Y0228800D01*
X0178800Y0227800D01*
X0186800Y0227800D01*
X0187800Y0228800D01*
X0187800Y0236800D01*
X0186800Y0237800D01*
X0178800Y0237800D01*
X0177800Y0236800D01*
X0176800Y0237800D01*
X0168800Y0237800D01*
X0167800Y0236800D01*
X0166800Y0237800D01*
X0158800Y0237800D01*
X0157800Y0236800D01*
X0156800Y0237800D01*
X0148800Y0237800D01*
X0147800Y0236800D01*
X0147800Y0228800D01*
X0148800Y0227800D01*
X0198800Y0196300D02*
X0198800Y0188300D01*
X0199800Y0187300D01*
X0198800Y0186300D01*
X0198800Y0178300D01*
X0199800Y0177300D01*
X0207800Y0177300D01*
X0208800Y0178300D01*
X0208800Y0186300D01*
X0207800Y0187300D01*
X0208800Y0188300D01*
X0208800Y0196300D01*
X0207800Y0197300D01*
X0199800Y0197300D01*
X0198800Y0196300D01*
X0218800Y0196800D02*
X0218800Y0188800D01*
X0219800Y0187800D01*
X0218800Y0186800D01*
X0218800Y0178800D01*
X0219800Y0177800D01*
X0218800Y0176800D01*
X0218800Y0168800D01*
X0219800Y0167800D01*
X0227800Y0167800D01*
X0228800Y0168800D01*
X0228800Y0176800D01*
X0227800Y0177800D01*
X0228800Y0178800D01*
X0228800Y0186800D01*
X0227800Y0187800D01*
X0228800Y0188800D01*
X0228800Y0196800D01*
X0227800Y0197800D01*
X0228800Y0198800D01*
X0228800Y0206800D01*
X0227800Y0207800D01*
X0219800Y0207800D01*
X0218800Y0206800D01*
X0218800Y0198800D01*
X0219800Y0197800D01*
X0218800Y0196800D01*
X0207800Y0167300D02*
X0199800Y0167300D01*
X0198800Y0166300D01*
X0198800Y0158300D01*
X0199800Y0157300D01*
X0198800Y0156300D01*
X0198800Y0148300D01*
X0199800Y0147300D01*
X0198800Y0146300D01*
X0198800Y0138300D01*
X0199800Y0137300D01*
X0207800Y0137300D01*
X0208800Y0138300D01*
X0208800Y0146300D01*
X0207800Y0147300D01*
X0208800Y0148300D01*
X0208800Y0156300D01*
X0207800Y0157300D01*
X0208800Y0158300D01*
X0208800Y0166300D01*
X0207800Y0167300D01*
X0219000Y0165700D02*
X0219000Y0157700D01*
X0220000Y0156700D01*
X0219000Y0155700D01*
X0219000Y0147700D01*
X0220000Y0146700D01*
X0228000Y0146700D01*
X0229000Y0147700D01*
X0229000Y0155700D01*
X0228000Y0156700D01*
X0229000Y0157700D01*
X0229000Y0165700D01*
X0228000Y0166700D01*
X0220000Y0166700D01*
X0219000Y0165700D01*
X0219800Y0146800D02*
X0218800Y0145800D01*
X0218800Y0137800D01*
X0219800Y0136800D01*
X0218800Y0135800D01*
X0218800Y0127800D01*
X0219800Y0126800D01*
X0218800Y0125800D01*
X0218800Y0117800D01*
X0219800Y0116800D01*
X0218800Y0115800D01*
X0218800Y0107800D01*
X0219800Y0106800D01*
X0227800Y0106800D01*
X0228800Y0107800D01*
X0228800Y0115800D01*
X0227800Y0116800D01*
X0228800Y0117800D01*
X0228800Y0125800D01*
X0227800Y0126800D01*
X0228800Y0127800D01*
X0228800Y0135800D01*
X0227800Y0136800D01*
X0228800Y0137800D01*
X0228800Y0145800D01*
X0227800Y0146800D01*
X0219800Y0146800D01*
X0208800Y0135300D02*
X0207800Y0136300D01*
X0199800Y0136300D01*
X0198800Y0135300D01*
X0198800Y0127300D01*
X0199800Y0126300D01*
X0198800Y0125300D01*
X0198800Y0117300D01*
X0199800Y0116300D01*
X0198800Y0115300D01*
X0198800Y0107300D01*
X0199800Y0106300D01*
X0207800Y0106300D01*
X0208800Y0107300D01*
X0208800Y0115300D01*
X0207800Y0116300D01*
X0208800Y0117300D01*
X0208800Y0125300D01*
X0207800Y0126300D01*
X0208800Y0127300D01*
X0208800Y0135300D01*
X0038300Y0040300D02*
X0038300Y0032300D01*
X0037300Y0031300D01*
X0038300Y0030300D01*
X0038300Y0022300D01*
X0037300Y0021300D01*
X0029300Y0021300D01*
X0028300Y0022300D01*
X0028300Y0030300D01*
X0029300Y0031300D01*
X0028300Y0032300D01*
X0028300Y0040300D01*
X0029300Y0041300D01*
X0037300Y0041300D01*
X0038300Y0040300D01*
D12*
X0048300Y0046300D02*
X0068300Y0046300D01*
X0088300Y0046300D01*
X0098300Y0036300D01*
X0098300Y0016300D01*
X0088300Y0006300D01*
X0068300Y0006300D01*
X0058300Y0016300D01*
X0058300Y0036300D01*
X0068300Y0046300D01*
X0048300Y0046300D02*
X0048300Y0006300D01*
X0068300Y0006300D01*
X0088300Y0006300D02*
X0113300Y0006300D01*
X0113300Y0046300D01*
X0088300Y0046300D01*
X0166634Y0047801D02*
X0169637Y0050803D01*
X0169637Y0047801D01*
X0168886Y0047050D01*
X0167385Y0047050D01*
X0166634Y0047801D01*
X0166634Y0050803D01*
X0167385Y0051554D01*
X0168886Y0051554D01*
X0169637Y0050803D01*
X0171238Y0050803D02*
X0171989Y0051554D01*
X0173490Y0051554D01*
X0174241Y0050803D01*
X0174241Y0050053D01*
X0173490Y0049302D01*
X0174241Y0048551D01*
X0174241Y0047801D01*
X0173490Y0047050D01*
X0171989Y0047050D01*
X0171238Y0047801D01*
X0172739Y0049302D02*
X0173490Y0049302D01*
X0175842Y0050803D02*
X0176593Y0051554D01*
X0178094Y0051554D01*
X0178845Y0050803D01*
X0178845Y0050053D01*
X0178094Y0049302D01*
X0178845Y0048551D01*
X0178845Y0047801D01*
X0178094Y0047050D01*
X0176593Y0047050D01*
X0175842Y0047801D01*
X0177343Y0049302D02*
X0178094Y0049302D01*
X0180446Y0049302D02*
X0180446Y0051554D01*
X0183449Y0051554D01*
X0182698Y0050053D02*
X0183449Y0049302D01*
X0183449Y0047801D01*
X0182698Y0047050D01*
X0181197Y0047050D01*
X0180446Y0047801D01*
X0180446Y0049302D02*
X0181947Y0050053D01*
X0182698Y0050053D01*
X0136099Y0204001D02*
X0123501Y0204001D01*
X0123501Y0205182D01*
X0123501Y0215418D02*
X0123501Y0216599D01*
X0136099Y0216599D01*
X0136099Y0215418D01*
X0136099Y0205182D02*
X0136099Y0204001D01*
X0065063Y0229083D02*
X0062517Y0226537D01*
X0060537Y0228517D01*
X0063083Y0231063D01*
X0065063Y0229083D01*
X0050063Y0216083D02*
X0047517Y0213537D01*
X0045537Y0215517D01*
X0048083Y0218063D01*
X0050063Y0216083D01*
D13*
X0052259Y0216574D02*
X0055514Y0219829D01*
X0052259Y0219829D01*
X0054429Y0217659D01*
X0052259Y0221999D02*
X0052259Y0223085D01*
X0051174Y0224170D01*
X0050089Y0224170D01*
X0047918Y0221999D01*
X0047918Y0220914D01*
X0049003Y0219829D01*
X0050089Y0219829D01*
X0064003Y0232829D02*
X0065089Y0232829D01*
X0064003Y0232829D02*
X0062918Y0233914D01*
X0062918Y0234999D01*
X0065089Y0237170D01*
X0066174Y0237170D01*
X0067259Y0236085D01*
X0067259Y0234999D01*
X0068344Y0233914D02*
X0069429Y0233914D01*
X0070514Y0232829D01*
X0070514Y0231744D01*
X0069972Y0231201D01*
X0068887Y0231201D01*
X0068887Y0230116D01*
X0068344Y0229574D01*
X0067259Y0229574D01*
X0066174Y0230659D01*
X0066174Y0231744D01*
X0068344Y0231744D02*
X0068887Y0231201D01*
X0079106Y0198359D02*
X0080734Y0196731D01*
X0080734Y0195646D01*
X0079649Y0194561D01*
X0078563Y0194561D01*
X0076936Y0196188D01*
X0078021Y0195103D02*
X0078021Y0192933D01*
X0079649Y0192390D02*
X0079649Y0191305D01*
X0080734Y0190220D01*
X0081819Y0190220D01*
X0082362Y0190763D01*
X0082362Y0191848D01*
X0081819Y0192390D01*
X0082362Y0191848D02*
X0083447Y0191848D01*
X0083989Y0192390D01*
X0083989Y0193476D01*
X0082904Y0194561D01*
X0081819Y0194561D01*
X0079106Y0198359D02*
X0075851Y0195103D01*
X0122019Y0162020D02*
X0122019Y0160935D01*
X0123104Y0159850D01*
X0124189Y0159850D01*
X0124732Y0160392D01*
X0124732Y0161478D01*
X0123647Y0162563D01*
X0123647Y0163648D01*
X0124189Y0164191D01*
X0125274Y0164191D01*
X0126359Y0163105D01*
X0126359Y0162020D01*
X0127987Y0161478D02*
X0130157Y0159307D01*
X0129072Y0160392D02*
X0125817Y0157137D01*
X0127987Y0154967D02*
X0131243Y0158222D01*
X0131243Y0156052D01*
X0133413Y0156052D01*
X0130157Y0152796D01*
X0131785Y0152254D02*
X0131785Y0151169D01*
X0132870Y0150083D01*
X0133955Y0150083D01*
X0134498Y0150626D01*
X0134498Y0151711D01*
X0133955Y0152254D01*
X0134498Y0151711D02*
X0135583Y0151711D01*
X0136126Y0152254D01*
X0136126Y0153339D01*
X0135041Y0154424D01*
X0133955Y0154424D01*
X0137211Y0151169D02*
X0138296Y0151169D01*
X0139381Y0150083D01*
X0139381Y0148998D01*
X0138839Y0148456D01*
X0134498Y0148456D01*
X0136668Y0146285D01*
X0137754Y0145200D02*
X0141009Y0148456D01*
X0143179Y0146285D01*
X0142637Y0143573D02*
X0144807Y0141402D01*
X0144807Y0139232D02*
X0149148Y0139232D01*
X0146977Y0137062D01*
X0145892Y0137062D01*
X0144807Y0138147D01*
X0144807Y0139232D01*
X0146977Y0141402D01*
X0148062Y0141402D01*
X0149148Y0140317D01*
X0149148Y0139232D01*
X0150775Y0138689D02*
X0149690Y0133264D01*
X0147520Y0135434D02*
X0152946Y0136519D01*
X0145892Y0143573D02*
X0142637Y0143573D01*
X0140466Y0145743D02*
X0139381Y0146828D01*
X0142637Y0140317D02*
X0145892Y0143573D01*
D14*
X0169188Y0143828D02*
X0131828Y0181188D01*
X0094440Y0143800D01*
X0131800Y0106440D01*
X0169188Y0143828D01*
D15*
X0128847Y0174423D02*
X0128849Y0174531D01*
X0128855Y0174640D01*
X0128865Y0174748D01*
X0128879Y0174855D01*
X0128897Y0174962D01*
X0128918Y0175069D01*
X0128944Y0175174D01*
X0128974Y0175279D01*
X0129007Y0175382D01*
X0129044Y0175484D01*
X0129085Y0175584D01*
X0129129Y0175683D01*
X0129178Y0175781D01*
X0129229Y0175876D01*
X0129284Y0175969D01*
X0129343Y0176061D01*
X0129405Y0176150D01*
X0129470Y0176237D01*
X0129538Y0176321D01*
X0129609Y0176403D01*
X0129683Y0176482D01*
X0129760Y0176558D01*
X0129840Y0176632D01*
X0129923Y0176702D01*
X0130008Y0176770D01*
X0130095Y0176834D01*
X0130185Y0176895D01*
X0130277Y0176953D01*
X0130371Y0177007D01*
X0130467Y0177058D01*
X0130564Y0177105D01*
X0130664Y0177149D01*
X0130765Y0177189D01*
X0130867Y0177225D01*
X0130970Y0177257D01*
X0131075Y0177286D01*
X0131181Y0177310D01*
X0131287Y0177331D01*
X0131394Y0177348D01*
X0131502Y0177361D01*
X0131610Y0177370D01*
X0131719Y0177375D01*
X0131827Y0177376D01*
X0131936Y0177373D01*
X0132044Y0177366D01*
X0132152Y0177355D01*
X0132259Y0177340D01*
X0132366Y0177321D01*
X0132472Y0177298D01*
X0132577Y0177272D01*
X0132682Y0177241D01*
X0132784Y0177207D01*
X0132886Y0177169D01*
X0132986Y0177127D01*
X0133085Y0177082D01*
X0133182Y0177033D01*
X0133276Y0176980D01*
X0133369Y0176924D01*
X0133460Y0176865D01*
X0133549Y0176802D01*
X0133635Y0176737D01*
X0133719Y0176668D01*
X0133800Y0176596D01*
X0133878Y0176521D01*
X0133954Y0176443D01*
X0134027Y0176362D01*
X0134097Y0176279D01*
X0134163Y0176194D01*
X0134227Y0176106D01*
X0134287Y0176015D01*
X0134344Y0175923D01*
X0134397Y0175828D01*
X0134447Y0175732D01*
X0134493Y0175634D01*
X0134536Y0175534D01*
X0134575Y0175433D01*
X0134610Y0175330D01*
X0134642Y0175227D01*
X0134669Y0175122D01*
X0134693Y0175016D01*
X0134713Y0174909D01*
X0134729Y0174802D01*
X0134741Y0174694D01*
X0134749Y0174586D01*
X0134753Y0174477D01*
X0134753Y0174369D01*
X0134749Y0174260D01*
X0134741Y0174152D01*
X0134729Y0174044D01*
X0134713Y0173937D01*
X0134693Y0173830D01*
X0134669Y0173724D01*
X0134642Y0173619D01*
X0134610Y0173516D01*
X0134575Y0173413D01*
X0134536Y0173312D01*
X0134493Y0173212D01*
X0134447Y0173114D01*
X0134397Y0173018D01*
X0134344Y0172923D01*
X0134287Y0172831D01*
X0134227Y0172740D01*
X0134163Y0172652D01*
X0134097Y0172567D01*
X0134027Y0172484D01*
X0133954Y0172403D01*
X0133878Y0172325D01*
X0133800Y0172250D01*
X0133719Y0172178D01*
X0133635Y0172109D01*
X0133549Y0172044D01*
X0133460Y0171981D01*
X0133369Y0171922D01*
X0133277Y0171866D01*
X0133182Y0171813D01*
X0133085Y0171764D01*
X0132986Y0171719D01*
X0132886Y0171677D01*
X0132784Y0171639D01*
X0132682Y0171605D01*
X0132577Y0171574D01*
X0132472Y0171548D01*
X0132366Y0171525D01*
X0132259Y0171506D01*
X0132152Y0171491D01*
X0132044Y0171480D01*
X0131936Y0171473D01*
X0131827Y0171470D01*
X0131719Y0171471D01*
X0131610Y0171476D01*
X0131502Y0171485D01*
X0131394Y0171498D01*
X0131287Y0171515D01*
X0131181Y0171536D01*
X0131075Y0171560D01*
X0130970Y0171589D01*
X0130867Y0171621D01*
X0130765Y0171657D01*
X0130664Y0171697D01*
X0130564Y0171741D01*
X0130467Y0171788D01*
X0130371Y0171839D01*
X0130277Y0171893D01*
X0130185Y0171951D01*
X0130095Y0172012D01*
X0130008Y0172076D01*
X0129923Y0172144D01*
X0129840Y0172214D01*
X0129760Y0172288D01*
X0129683Y0172364D01*
X0129609Y0172443D01*
X0129538Y0172525D01*
X0129470Y0172609D01*
X0129405Y0172696D01*
X0129343Y0172785D01*
X0129284Y0172877D01*
X0129229Y0172970D01*
X0129178Y0173065D01*
X0129129Y0173163D01*
X0129085Y0173262D01*
X0129044Y0173362D01*
X0129007Y0173464D01*
X0128974Y0173567D01*
X0128944Y0173672D01*
X0128918Y0173777D01*
X0128897Y0173884D01*
X0128879Y0173991D01*
X0128865Y0174098D01*
X0128855Y0174206D01*
X0128849Y0174315D01*
X0128847Y0174423D01*
D16*
X0137871Y0203410D02*
X0137873Y0203466D01*
X0137879Y0203521D01*
X0137889Y0203575D01*
X0137902Y0203629D01*
X0137920Y0203682D01*
X0137941Y0203733D01*
X0137965Y0203783D01*
X0137993Y0203831D01*
X0138025Y0203877D01*
X0138059Y0203921D01*
X0138097Y0203962D01*
X0138137Y0204000D01*
X0138180Y0204035D01*
X0138225Y0204067D01*
X0138273Y0204096D01*
X0138322Y0204122D01*
X0138373Y0204144D01*
X0138425Y0204162D01*
X0138479Y0204176D01*
X0138534Y0204187D01*
X0138589Y0204194D01*
X0138644Y0204197D01*
X0138700Y0204196D01*
X0138755Y0204191D01*
X0138810Y0204182D01*
X0138864Y0204170D01*
X0138917Y0204153D01*
X0138969Y0204133D01*
X0139019Y0204109D01*
X0139067Y0204082D01*
X0139114Y0204052D01*
X0139158Y0204018D01*
X0139200Y0203981D01*
X0139238Y0203941D01*
X0139275Y0203899D01*
X0139308Y0203854D01*
X0139337Y0203808D01*
X0139364Y0203759D01*
X0139386Y0203708D01*
X0139406Y0203656D01*
X0139421Y0203602D01*
X0139433Y0203548D01*
X0139441Y0203493D01*
X0139445Y0203438D01*
X0139445Y0203382D01*
X0139441Y0203327D01*
X0139433Y0203272D01*
X0139421Y0203218D01*
X0139406Y0203164D01*
X0139386Y0203112D01*
X0139364Y0203061D01*
X0139337Y0203012D01*
X0139308Y0202966D01*
X0139275Y0202921D01*
X0139238Y0202879D01*
X0139200Y0202839D01*
X0139158Y0202802D01*
X0139114Y0202768D01*
X0139067Y0202738D01*
X0139019Y0202711D01*
X0138969Y0202687D01*
X0138917Y0202667D01*
X0138864Y0202650D01*
X0138810Y0202638D01*
X0138755Y0202629D01*
X0138700Y0202624D01*
X0138644Y0202623D01*
X0138589Y0202626D01*
X0138534Y0202633D01*
X0138479Y0202644D01*
X0138425Y0202658D01*
X0138373Y0202676D01*
X0138322Y0202698D01*
X0138273Y0202724D01*
X0138225Y0202753D01*
X0138180Y0202785D01*
X0138137Y0202820D01*
X0138097Y0202858D01*
X0138059Y0202899D01*
X0138025Y0202943D01*
X0137993Y0202989D01*
X0137965Y0203037D01*
X0137941Y0203087D01*
X0137920Y0203138D01*
X0137902Y0203191D01*
X0137889Y0203245D01*
X0137879Y0203299D01*
X0137873Y0203354D01*
X0137871Y0203410D01*
M02*
