G75*
%MOIN*%
%OFA0B0*%
%FSLAX25Y25*%
%IPPOS*%
%LPD*%
%AMOC8*
5,1,8,0,0,1.08239X$1,22.5*
%
%ADD10R,0.04300X0.05500*%
%ADD11R,0.01181X0.06299*%
%ADD12R,0.06299X0.01181*%
%ADD13R,0.05118X0.02165*%
%ADD14R,0.02165X0.05118*%
%ADD15R,0.05709X0.01102*%
%ADD16R,0.05118X0.05906*%
D10*
G36*
X0049992Y0209720D02*
X0046952Y0212760D01*
X0050840Y0216648D01*
X0053880Y0213608D01*
X0049992Y0209720D01*
G37*
G36*
X0044760Y0214952D02*
X0041720Y0217992D01*
X0045608Y0221880D01*
X0048648Y0218840D01*
X0044760Y0214952D01*
G37*
G36*
X0059760Y0227952D02*
X0056720Y0230992D01*
X0060608Y0234880D01*
X0063648Y0231840D01*
X0059760Y0227952D01*
G37*
G36*
X0064992Y0222720D02*
X0061952Y0225760D01*
X0065840Y0229648D01*
X0068880Y0226608D01*
X0064992Y0222720D01*
G37*
D11*
G36*
X0113567Y0172334D02*
X0114401Y0173168D01*
X0118853Y0168716D01*
X0118019Y0167882D01*
X0113567Y0172334D01*
G37*
G36*
X0112175Y0170942D02*
X0113009Y0171776D01*
X0117461Y0167324D01*
X0116627Y0166490D01*
X0112175Y0170942D01*
G37*
G36*
X0110783Y0169550D02*
X0111617Y0170384D01*
X0116069Y0165932D01*
X0115235Y0165098D01*
X0110783Y0169550D01*
G37*
G36*
X0109391Y0168158D02*
X0110225Y0168992D01*
X0114677Y0164540D01*
X0113843Y0163706D01*
X0109391Y0168158D01*
G37*
G36*
X0107999Y0166767D02*
X0108833Y0167601D01*
X0113285Y0163149D01*
X0112451Y0162315D01*
X0107999Y0166767D01*
G37*
G36*
X0106608Y0165375D02*
X0107442Y0166209D01*
X0111894Y0161757D01*
X0111060Y0160923D01*
X0106608Y0165375D01*
G37*
G36*
X0105216Y0163983D02*
X0106050Y0164817D01*
X0110502Y0160365D01*
X0109668Y0159531D01*
X0105216Y0163983D01*
G37*
G36*
X0103824Y0162591D02*
X0104658Y0163425D01*
X0109110Y0158973D01*
X0108276Y0158139D01*
X0103824Y0162591D01*
G37*
G36*
X0102432Y0161199D02*
X0103266Y0162033D01*
X0107718Y0157581D01*
X0106884Y0156747D01*
X0102432Y0161199D01*
G37*
G36*
X0101040Y0159807D02*
X0101874Y0160641D01*
X0106326Y0156189D01*
X0105492Y0155355D01*
X0101040Y0159807D01*
G37*
G36*
X0099648Y0158415D02*
X0100482Y0159249D01*
X0104934Y0154797D01*
X0104100Y0153963D01*
X0099648Y0158415D01*
G37*
G36*
X0098256Y0157023D02*
X0099090Y0157857D01*
X0103542Y0153405D01*
X0102708Y0152571D01*
X0098256Y0157023D01*
G37*
G36*
X0096864Y0155631D02*
X0097698Y0156465D01*
X0102150Y0152013D01*
X0101316Y0151179D01*
X0096864Y0155631D01*
G37*
G36*
X0095472Y0154239D02*
X0096306Y0155073D01*
X0100758Y0150621D01*
X0099924Y0149787D01*
X0095472Y0154239D01*
G37*
G36*
X0094080Y0152847D02*
X0094914Y0153681D01*
X0099366Y0149229D01*
X0098532Y0148395D01*
X0094080Y0152847D01*
G37*
G36*
X0092688Y0151455D02*
X0093522Y0152289D01*
X0097974Y0147837D01*
X0097140Y0147003D01*
X0092688Y0151455D01*
G37*
G36*
X0091296Y0150063D02*
X0092130Y0150897D01*
X0096582Y0146445D01*
X0095748Y0145611D01*
X0091296Y0150063D01*
G37*
G36*
X0114959Y0173726D02*
X0115793Y0174560D01*
X0120245Y0170108D01*
X0119411Y0169274D01*
X0114959Y0173726D01*
G37*
G36*
X0116351Y0175118D02*
X0117185Y0175952D01*
X0121637Y0171500D01*
X0120803Y0170666D01*
X0116351Y0175118D01*
G37*
G36*
X0117743Y0176510D02*
X0118577Y0177344D01*
X0123029Y0172892D01*
X0122195Y0172058D01*
X0117743Y0176510D01*
G37*
G36*
X0119135Y0177902D02*
X0119969Y0178736D01*
X0124421Y0174284D01*
X0123587Y0173450D01*
X0119135Y0177902D01*
G37*
G36*
X0120527Y0179294D02*
X0121361Y0180128D01*
X0125813Y0175676D01*
X0124979Y0174842D01*
X0120527Y0179294D01*
G37*
G36*
X0121919Y0180686D02*
X0122753Y0181520D01*
X0127205Y0177068D01*
X0126371Y0176234D01*
X0121919Y0180686D01*
G37*
G36*
X0123311Y0182078D02*
X0124145Y0182912D01*
X0128597Y0178460D01*
X0127763Y0177626D01*
X0123311Y0182078D01*
G37*
G36*
X0124703Y0183470D02*
X0125537Y0184304D01*
X0129989Y0179852D01*
X0129155Y0179018D01*
X0124703Y0183470D01*
G37*
G36*
X0167018Y0141155D02*
X0167852Y0141989D01*
X0172304Y0137537D01*
X0171470Y0136703D01*
X0167018Y0141155D01*
G37*
G36*
X0165626Y0139763D02*
X0166460Y0140597D01*
X0170912Y0136145D01*
X0170078Y0135311D01*
X0165626Y0139763D01*
G37*
G36*
X0164234Y0138371D02*
X0165068Y0139205D01*
X0169520Y0134753D01*
X0168686Y0133919D01*
X0164234Y0138371D01*
G37*
G36*
X0162842Y0136979D02*
X0163676Y0137813D01*
X0168128Y0133361D01*
X0167294Y0132527D01*
X0162842Y0136979D01*
G37*
G36*
X0161450Y0135587D02*
X0162284Y0136421D01*
X0166736Y0131969D01*
X0165902Y0131135D01*
X0161450Y0135587D01*
G37*
G36*
X0160058Y0134195D02*
X0160892Y0135029D01*
X0165344Y0130577D01*
X0164510Y0129743D01*
X0160058Y0134195D01*
G37*
G36*
X0158666Y0132803D02*
X0159500Y0133637D01*
X0163952Y0129185D01*
X0163118Y0128351D01*
X0158666Y0132803D01*
G37*
G36*
X0157274Y0131411D02*
X0158108Y0132245D01*
X0162560Y0127793D01*
X0161726Y0126959D01*
X0157274Y0131411D01*
G37*
G36*
X0155882Y0130019D02*
X0156716Y0130853D01*
X0161168Y0126401D01*
X0160334Y0125567D01*
X0155882Y0130019D01*
G37*
G36*
X0154490Y0128627D02*
X0155324Y0129461D01*
X0159776Y0125009D01*
X0158942Y0124175D01*
X0154490Y0128627D01*
G37*
G36*
X0153098Y0127235D02*
X0153932Y0128069D01*
X0158384Y0123617D01*
X0157550Y0122783D01*
X0153098Y0127235D01*
G37*
G36*
X0151706Y0125843D02*
X0152540Y0126677D01*
X0156992Y0122225D01*
X0156158Y0121391D01*
X0151706Y0125843D01*
G37*
G36*
X0150315Y0124451D02*
X0151149Y0125285D01*
X0155601Y0120833D01*
X0154767Y0119999D01*
X0150315Y0124451D01*
G37*
G36*
X0148923Y0123060D02*
X0149757Y0123894D01*
X0154209Y0119442D01*
X0153375Y0118608D01*
X0148923Y0123060D01*
G37*
G36*
X0147531Y0121668D02*
X0148365Y0122502D01*
X0152817Y0118050D01*
X0151983Y0117216D01*
X0147531Y0121668D01*
G37*
G36*
X0146139Y0120276D02*
X0146973Y0121110D01*
X0151425Y0116658D01*
X0150591Y0115824D01*
X0146139Y0120276D01*
G37*
G36*
X0144747Y0118884D02*
X0145581Y0119718D01*
X0150033Y0115266D01*
X0149199Y0114432D01*
X0144747Y0118884D01*
G37*
G36*
X0143355Y0117492D02*
X0144189Y0118326D01*
X0148641Y0113874D01*
X0147807Y0113040D01*
X0143355Y0117492D01*
G37*
G36*
X0141963Y0116100D02*
X0142797Y0116934D01*
X0147249Y0112482D01*
X0146415Y0111648D01*
X0141963Y0116100D01*
G37*
G36*
X0140571Y0114708D02*
X0141405Y0115542D01*
X0145857Y0111090D01*
X0145023Y0110256D01*
X0140571Y0114708D01*
G37*
G36*
X0139179Y0113316D02*
X0140013Y0114150D01*
X0144465Y0109698D01*
X0143631Y0108864D01*
X0139179Y0113316D01*
G37*
G36*
X0137787Y0111924D02*
X0138621Y0112758D01*
X0143073Y0108306D01*
X0142239Y0107472D01*
X0137787Y0111924D01*
G37*
G36*
X0136395Y0110532D02*
X0137229Y0111366D01*
X0141681Y0106914D01*
X0140847Y0106080D01*
X0136395Y0110532D01*
G37*
G36*
X0135003Y0109140D02*
X0135837Y0109974D01*
X0140289Y0105522D01*
X0139455Y0104688D01*
X0135003Y0109140D01*
G37*
G36*
X0133611Y0107748D02*
X0134445Y0108582D01*
X0138897Y0104130D01*
X0138063Y0103296D01*
X0133611Y0107748D01*
G37*
D12*
G36*
X0114959Y0113874D02*
X0119411Y0118326D01*
X0120245Y0117492D01*
X0115793Y0113040D01*
X0114959Y0113874D01*
G37*
G36*
X0116351Y0112482D02*
X0120803Y0116934D01*
X0121637Y0116100D01*
X0117185Y0111648D01*
X0116351Y0112482D01*
G37*
G36*
X0117743Y0111090D02*
X0122195Y0115542D01*
X0123029Y0114708D01*
X0118577Y0110256D01*
X0117743Y0111090D01*
G37*
G36*
X0119135Y0109698D02*
X0123587Y0114150D01*
X0124421Y0113316D01*
X0119969Y0108864D01*
X0119135Y0109698D01*
G37*
G36*
X0120527Y0108306D02*
X0124979Y0112758D01*
X0125813Y0111924D01*
X0121361Y0107472D01*
X0120527Y0108306D01*
G37*
G36*
X0121919Y0106914D02*
X0126371Y0111366D01*
X0127205Y0110532D01*
X0122753Y0106080D01*
X0121919Y0106914D01*
G37*
G36*
X0123311Y0105522D02*
X0127763Y0109974D01*
X0128597Y0109140D01*
X0124145Y0104688D01*
X0123311Y0105522D01*
G37*
G36*
X0124703Y0104130D02*
X0129155Y0108582D01*
X0129989Y0107748D01*
X0125537Y0103296D01*
X0124703Y0104130D01*
G37*
G36*
X0113567Y0115266D02*
X0118019Y0119718D01*
X0118853Y0118884D01*
X0114401Y0114432D01*
X0113567Y0115266D01*
G37*
G36*
X0112175Y0116658D02*
X0116627Y0121110D01*
X0117461Y0120276D01*
X0113009Y0115824D01*
X0112175Y0116658D01*
G37*
G36*
X0110783Y0118050D02*
X0115235Y0122502D01*
X0116069Y0121668D01*
X0111617Y0117216D01*
X0110783Y0118050D01*
G37*
G36*
X0109391Y0119442D02*
X0113843Y0123894D01*
X0114677Y0123060D01*
X0110225Y0118608D01*
X0109391Y0119442D01*
G37*
G36*
X0107999Y0120833D02*
X0112451Y0125285D01*
X0113285Y0124451D01*
X0108833Y0119999D01*
X0107999Y0120833D01*
G37*
G36*
X0106608Y0122225D02*
X0111060Y0126677D01*
X0111894Y0125843D01*
X0107442Y0121391D01*
X0106608Y0122225D01*
G37*
G36*
X0105216Y0123617D02*
X0109668Y0128069D01*
X0110502Y0127235D01*
X0106050Y0122783D01*
X0105216Y0123617D01*
G37*
G36*
X0103824Y0125009D02*
X0108276Y0129461D01*
X0109110Y0128627D01*
X0104658Y0124175D01*
X0103824Y0125009D01*
G37*
G36*
X0102432Y0126401D02*
X0106884Y0130853D01*
X0107718Y0130019D01*
X0103266Y0125567D01*
X0102432Y0126401D01*
G37*
G36*
X0101040Y0127793D02*
X0105492Y0132245D01*
X0106326Y0131411D01*
X0101874Y0126959D01*
X0101040Y0127793D01*
G37*
G36*
X0099648Y0129185D02*
X0104100Y0133637D01*
X0104934Y0132803D01*
X0100482Y0128351D01*
X0099648Y0129185D01*
G37*
G36*
X0098256Y0130577D02*
X0102708Y0135029D01*
X0103542Y0134195D01*
X0099090Y0129743D01*
X0098256Y0130577D01*
G37*
G36*
X0096864Y0131969D02*
X0101316Y0136421D01*
X0102150Y0135587D01*
X0097698Y0131135D01*
X0096864Y0131969D01*
G37*
G36*
X0095472Y0133361D02*
X0099924Y0137813D01*
X0100758Y0136979D01*
X0096306Y0132527D01*
X0095472Y0133361D01*
G37*
G36*
X0094080Y0134753D02*
X0098532Y0139205D01*
X0099366Y0138371D01*
X0094914Y0133919D01*
X0094080Y0134753D01*
G37*
G36*
X0092688Y0136145D02*
X0097140Y0140597D01*
X0097974Y0139763D01*
X0093522Y0135311D01*
X0092688Y0136145D01*
G37*
G36*
X0091296Y0137537D02*
X0095748Y0141989D01*
X0096582Y0141155D01*
X0092130Y0136703D01*
X0091296Y0137537D01*
G37*
G36*
X0133611Y0179852D02*
X0138063Y0184304D01*
X0138897Y0183470D01*
X0134445Y0179018D01*
X0133611Y0179852D01*
G37*
G36*
X0135003Y0178460D02*
X0139455Y0182912D01*
X0140289Y0182078D01*
X0135837Y0177626D01*
X0135003Y0178460D01*
G37*
G36*
X0136395Y0177068D02*
X0140847Y0181520D01*
X0141681Y0180686D01*
X0137229Y0176234D01*
X0136395Y0177068D01*
G37*
G36*
X0137787Y0175676D02*
X0142239Y0180128D01*
X0143073Y0179294D01*
X0138621Y0174842D01*
X0137787Y0175676D01*
G37*
G36*
X0139179Y0174284D02*
X0143631Y0178736D01*
X0144465Y0177902D01*
X0140013Y0173450D01*
X0139179Y0174284D01*
G37*
G36*
X0140571Y0172892D02*
X0145023Y0177344D01*
X0145857Y0176510D01*
X0141405Y0172058D01*
X0140571Y0172892D01*
G37*
G36*
X0141963Y0171500D02*
X0146415Y0175952D01*
X0147249Y0175118D01*
X0142797Y0170666D01*
X0141963Y0171500D01*
G37*
G36*
X0143355Y0170108D02*
X0147807Y0174560D01*
X0148641Y0173726D01*
X0144189Y0169274D01*
X0143355Y0170108D01*
G37*
G36*
X0144747Y0168716D02*
X0149199Y0173168D01*
X0150033Y0172334D01*
X0145581Y0167882D01*
X0144747Y0168716D01*
G37*
G36*
X0146139Y0167324D02*
X0150591Y0171776D01*
X0151425Y0170942D01*
X0146973Y0166490D01*
X0146139Y0167324D01*
G37*
G36*
X0147531Y0165932D02*
X0151983Y0170384D01*
X0152817Y0169550D01*
X0148365Y0165098D01*
X0147531Y0165932D01*
G37*
G36*
X0148923Y0164540D02*
X0153375Y0168992D01*
X0154209Y0168158D01*
X0149757Y0163706D01*
X0148923Y0164540D01*
G37*
G36*
X0150315Y0163149D02*
X0154767Y0167601D01*
X0155601Y0166767D01*
X0151149Y0162315D01*
X0150315Y0163149D01*
G37*
G36*
X0151706Y0161757D02*
X0156158Y0166209D01*
X0156992Y0165375D01*
X0152540Y0160923D01*
X0151706Y0161757D01*
G37*
G36*
X0153098Y0160365D02*
X0157550Y0164817D01*
X0158384Y0163983D01*
X0153932Y0159531D01*
X0153098Y0160365D01*
G37*
G36*
X0154490Y0158973D02*
X0158942Y0163425D01*
X0159776Y0162591D01*
X0155324Y0158139D01*
X0154490Y0158973D01*
G37*
G36*
X0155882Y0157581D02*
X0160334Y0162033D01*
X0161168Y0161199D01*
X0156716Y0156747D01*
X0155882Y0157581D01*
G37*
G36*
X0157274Y0156189D02*
X0161726Y0160641D01*
X0162560Y0159807D01*
X0158108Y0155355D01*
X0157274Y0156189D01*
G37*
G36*
X0158666Y0154797D02*
X0163118Y0159249D01*
X0163952Y0158415D01*
X0159500Y0153963D01*
X0158666Y0154797D01*
G37*
G36*
X0160058Y0153405D02*
X0164510Y0157857D01*
X0165344Y0157023D01*
X0160892Y0152571D01*
X0160058Y0153405D01*
G37*
G36*
X0161450Y0152013D02*
X0165902Y0156465D01*
X0166736Y0155631D01*
X0162284Y0151179D01*
X0161450Y0152013D01*
G37*
G36*
X0162842Y0150621D02*
X0167294Y0155073D01*
X0168128Y0154239D01*
X0163676Y0149787D01*
X0162842Y0150621D01*
G37*
G36*
X0164234Y0149229D02*
X0168686Y0153681D01*
X0169520Y0152847D01*
X0165068Y0148395D01*
X0164234Y0149229D01*
G37*
G36*
X0165626Y0147837D02*
X0170078Y0152289D01*
X0170912Y0151455D01*
X0166460Y0147003D01*
X0165626Y0147837D01*
G37*
G36*
X0167018Y0146445D02*
X0171470Y0150897D01*
X0172304Y0150063D01*
X0167852Y0145611D01*
X0167018Y0146445D01*
G37*
D13*
X0198879Y0214926D03*
X0198879Y0218076D03*
X0198879Y0221225D03*
X0198879Y0224375D03*
X0198879Y0227524D03*
X0198879Y0230674D03*
X0208721Y0230674D03*
X0208721Y0227524D03*
X0208721Y0224375D03*
X0208721Y0221225D03*
X0208721Y0218076D03*
X0208721Y0214926D03*
D14*
X0203800Y0213942D03*
X0203800Y0231658D03*
D15*
X0138461Y0214237D03*
X0138461Y0212269D03*
X0138461Y0210300D03*
X0138461Y0208331D03*
X0138461Y0206363D03*
X0121139Y0206363D03*
X0121139Y0208331D03*
X0121139Y0210300D03*
X0121139Y0212269D03*
X0121139Y0214237D03*
D16*
G36*
X0076167Y0183258D02*
X0072548Y0186877D01*
X0076723Y0191052D01*
X0080342Y0187433D01*
X0076167Y0183258D01*
G37*
G36*
X0070877Y0188548D02*
X0067258Y0192167D01*
X0071433Y0196342D01*
X0075052Y0192723D01*
X0070877Y0188548D01*
G37*
M02*
