%
M48
M72
T01C0.0150
T02C0.0360
T03C0.0400
T04C0.1181
%
T01
X8280Y9430
X10180Y11630
X8780Y13180
X11530Y14730
X13030Y16080
X12480Y16780
X11430Y18280
X10680Y17980
X9730Y16730
X9230Y16830
X7930Y16280
X11730Y19430
X11330Y21030
X14130Y19780
X14480Y19080
X14930Y19080
X16480Y19130
X17260Y17390
X15580Y14880
X17530Y13130
X17880Y13680
X12480Y9280
X11980Y9480
X21930Y21080
X21880Y23530
X14330Y21980
X4880Y24280
X3280Y23080
T02
X5773Y20473
X6480Y21180
X7187Y21887
X10830Y22680
X11830Y22680
X15280Y23280
X16280Y23280
X17280Y23280
X18280Y23280
X18330Y21330
X17330Y21330
X16330Y21330
X15330Y21330
X20380Y19230
X20380Y18230
X20380Y16230
X20380Y15230
X20380Y14230
X20380Y13130
X20380Y12130
X20380Y11130
X22380Y11180
X22380Y12180
X22380Y13180
X22380Y14180
X22400Y15170
X22400Y16170
X22380Y17280
X22380Y18280
X22380Y19280
X22380Y20280
X17980Y6880
X17980Y5880
X16980Y5880
X16980Y6880
X15980Y6880
X15980Y5880
X14980Y5880
X14980Y6880
X13980Y6880
X12980Y6880
X12980Y5880
X13980Y5880
X11530Y6330
X10530Y6330
X9280Y6380
X8280Y6380
X5580Y6780
X5580Y7580
X5580Y8580
X5580Y9380
X5580Y10380
X5580Y11180
X5580Y12180
X5680Y14130
X5680Y15130
X5680Y16280
X5680Y17280
X5580Y5780
X3330Y3630
X3330Y2630
X12980Y3280
X13980Y3280
X14980Y3280
X16130Y3230
X17130Y3230
X18130Y3230
X19230Y3180
X20230Y3180
T03
X10830Y3630
X10830Y2630
X10830Y1630
T04
X1150Y1330
X1130Y24200
X24720Y24250
X24720Y1330
M30
